<?xml version="1.0" standalone="no"?>
<!DOCTYPE svg PUBLIC "-//W3C//DTD SVG 1.1//EN" "http://www.w3.org/Graphics/SVG/1.1/DTD/svg11.dtd" >
<svg>
<metadata>
Created by FontForge 20120731 at Fri Dec 16 18:25:42 2016
 By U-Meowington\zoltan,S-1-5-21-1340762506-974568153-834349593-1001
Typeface (c) High-Logic. 1999, 2000. All Rights Reserved
</metadata>
<defs>
<font id="PunkKid" horiz-adv-x="636" >
  <font-face 
    font-family="Punk Kid"
    font-weight="400"
    font-stretch="normal"
    units-per-em="2048"
    panose-1="2 0 0 0 0 0 0 0 0 0"
    ascent="1638"
    descent="-410"
    x-height="1188"
    cap-height="1248"
    bbox="-71 -558 2614 1873"
    underline-thickness="48"
    underline-position="-140"
    unicode-range="U+0020-F002"
  />
<missing-glyph horiz-adv-x="500" 
d="M256 0v1280h1024v-1280h-1024zM288 32h960v1216h-960v-1216z" />
    <glyph glyph-name=".notdef" horiz-adv-x="500" 
d="M256 0v1280h1024v-1280h-1024zM288 32h960v1216h-960v-1216z" />
    <glyph glyph-name=".null" horiz-adv-x="0" 
 />
    <glyph glyph-name="nonmarkingreturn" horiz-adv-x="390" 
 />
    <glyph glyph-name="space" unicode=" " horiz-adv-x="390" 
 />
    <glyph glyph-name="exclam" unicode="!" horiz-adv-x="490" 
d="M131 1216q-75 -8 -42 -84h-42q-1 -44 21 -77q-24 -25 -21 -49q30 -12 21 -42l-21 -7q20 -43 0 -77q60 -45 0 -84q20 -32 0 -63q47 -28 0 -84q43 -13 0 -126q24 -39 21 -84q32 -12 21 -49q-7 -11 -21 -14v-168q-19 -4 -21 -21q59 -26 63 -84q106 16 126 -21q32 28 42 0
q32 28 42 0q39 22 84 21q25 87 21 147h21q-22 39 -21 84q59 35 42 105q34 15 0 105h-21q26 54 21 105h21q-21 37 0 77q-35 44 -21 91q-16 3 -21 14l42 28q-3 19 -21 21q-12 48 21 63q-42 96 0 182q-24 17 -21 49q-21 2 -21 21q-45 -36 -42 21q-52 -28 -84 0q4 -57 -42 -21
q-10 -29 -21 0q-45 -36 -42 21q-21 2 -21 21h-63v-21zM278 1153q-33 -48 -63 0h63zM404 1153q-10 -32 -21 0h21zM467 1132q-11 -28 -21 0h21zM467 733q-11 -28 -21 0h21zM68 187l7 21q21 -15 -7 -21zM47 19q-15 -34 -42 -42q-7 -34 21 -42q-32 -69 0 -126q-28 -11 -21 -42
h21v-42q52 -32 63 -84h28q11 -7 14 -21q76 15 112 -21h35v21q48 4 63 42h21h84v42q66 49 21 126q18 4 21 21q-16 3 -21 14l21 21l-21 28q18 4 21 21q-47 34 -42 84q-21 2 -21 21q-38 4 -70 21q-52 -67 -77 -21q-32 -28 -42 0q-19 -3 -21 -21h-21l-7 21q-56 -1 -98 21
q2 -50 -42 -42z" />
    <glyph glyph-name="quotedbl" unicode="&#x22;" horiz-adv-x="630" 
d="M524 1630h-36v-18h-54q-11 -26 -36 -18q-2 -18 -18 -18q16 -27 18 -54l-36 18q31 -62 90 -72q-20 -45 0 -72q-48 -34 -18 -108q54 28 54 -36q28 17 54 0v18l18 6q0 72 54 102v36h18q10 39 -18 54q3 49 -18 84q20 19 18 42q-28 13 -36 36l-36 -18q6 27 -18 36v-18z
M200 1612h-36q-32 -45 -108 -18q-13 -29 -36 -36q23 -47 0 -90q25 -14 54 -18q-3 -17 -18 -18q3 -16 18 -18q-40 -91 54 -90q-6 -27 18 -36q13 29 36 36q-42 -159 18 -180q13 29 36 36v60v48q-34 20 -18 72l18 6l-18 30h18l18 108h36q-23 50 0 90q-39 -31 -36 18
q-36 -29 -42 18h-12h12h-12v-18zM542 1594q-9 -28 -18 0h18zM596 1594q-10 -61 -18 0h18zM236 1540v18q24 -9 0 -18zM434 1558q-10 -26 -18 0h18zM236 1522q-18 2 -18 18q16 -3 18 -18zM452 1468v18q24 -9 0 -18zM452 1414l6 36q24 -23 -6 -36zM578 1378v18q24 -9 0 -18z
M506 1342q-9 -28 -18 0h18zM524 1270v18q24 -9 0 -18z" />
    <glyph glyph-name="numbersign" unicode="#" 
 />
    <glyph glyph-name="dollar" unicode="$" 
 />
    <glyph glyph-name="percent" unicode="%" horiz-adv-x="1650" 
d="M316 1141q-12 -30 -42 -21q-1 -69 -63 -21q4 -57 -42 -21q-35 -53 -84 -21v-42q-52 -27 -42 -84q-22 -10 -21 -28q21 -18 42 -14q-13 -29 -42 -21q49 -83 21 -147q38 -22 0 -42q4 -51 -42 -42q14 -29 42 -21q-7 -18 -21 -28q24 -34 0 -56l42 -21q-7 32 21 42v-84
q73 -34 84 -105q50 2 42 -42q21 -2 21 -21q64 20 105 0v21q108 43 63 -21l63 42q44 -79 126 -63q10 -25 35 -21h28q-2 50 42 42v-28q-7 -11 -21 -14q9 -73 -42 -105v-42q-35 2 -56 21q-8 -57 -49 -21q0 -51 -42 -63q21 -86 -42 -84q-11 -46 21 -63q-20 -40 -21 -84
q-33 17 -63 0q14 -29 42 -21q3 -56 -42 -21q11 -59 -21 -91v-35q47 -17 42 -63q87 -25 147 -21q14 74 84 63q34 47 84 42v21q-32 -7 -42 21q51 2 84 21q-42 95 42 147q-13 47 21 63l-21 42l42 21v63h21v28q7 11 21 14q6 63 21 105h21q15 34 42 42q12 -49 -21 -63
q-6 -63 -21 -105q4 -19 21 -21q-3 -20 -21 -21l21 -49q-35 -74 -21 -161q82 -55 42 -147q47 -17 42 -63q81 -12 133 -63l35 21l14 -21h49q43 63 105 21q12 30 42 21q-26 -35 0 -42q17 41 56 42q2 -26 -14 -42q62 22 84 63h42q28 77 0 84q13 29 42 21q13 77 42 126
q-55 38 0 98q-48 54 0 98q-23 76 0 140q-52 26 -42 84q-47 17 -42 63q-43 -6 -42 35q-47 43 -63 91h-21h-126v-21l-21 7q-25 17 -56 14q-25 24 -49 21q-3 -16 -14 -21h-28v-42h-42q-9 -64 -63 -84q-15 -34 -42 -42v42h21q8 62 56 84l7 35q10 7 21 7q9 64 63 84q2 58 42 84
v49q21 20 42 14q-7 32 21 42q2 21 21 21q-14 67 42 63q2 58 42 84q2 58 42 84v42q-36 18 -21 63q-21 2 -21 21q-58 -43 -84 0q32 -6 42 21q-60 -19 -105 -21v-21q-29 13 -21 42q-76 -15 -112 21h-35v-42l-42 21q-17 -32 0 -63h-42q14 -77 -21 -112v-49l-63 -63
q-14 -51 -42 -91v-42h-42q-2 -58 -42 -84q7 -32 -21 -42v28v21v28v126q10 7 21 7q-22 34 0 56l-21 21l21 14q-27 46 -21 91q-21 19 -21 49q-63 18 -84 63q-51 0 -63 42q-19 -3 -21 -21q-92 43 -168 42q-18 -36 -63 -21zM1177 1120q-11 -71 -21 0h21zM589 1099q-11 -28 -21 0
h21zM421 889q-11 -46 21 -63q-30 -65 -21 -126h42q-16 -33 -42 -49q9 -11 21 -14l-21 -42q19 -32 0 -63q-37 5 -63 21v21v28v28v28v28v119v21v84q37 -4 63 -21zM442 637l7 21q21 -15 -7 -21zM50 637q20 -32 -7 0h7h-7h7zM442 574v21q28 -11 0 -21zM757 532v21q28 -11 0 -21z
M757 532q-10 -28 -21 0h21zM736 511q-11 -33 -21 0h21zM757 427q-11 -71 -21 0h21zM736 343q-20 3 -21 21q20 -3 21 -21zM715 301q-19 4 -21 21q20 -3 21 -21zM988 301q-9 -71 -21 0h21zM1324 196q-2 -35 -21 -56l21 -7l-21 -49q24 -34 0 -56q40 -7 0 -70v-35q36 -18 21 -63
q-18 -4 -21 -21q-52 24 -84 0q-7 75 21 126h-21q2 35 21 56q-47 40 0 70q-13 47 21 63v42h63zM421 -77h-21q10 -32 21 0zM736 -140v21q28 -10 0 -21zM379 -140q32 10 0 21v-21z" />
    <glyph glyph-name="ampersand" unicode="&#x26;" horiz-adv-x="1375" 
d="M470 1211q-97 18 -105 -63q-32 -14 -42 -42q-32 15 -42 42q-32 -7 -42 21h-21q1 -59 -63 -42q36 -45 -21 -42v-21q47 -34 42 -84q53 -37 -21 -42q28 -32 0 -42v-21q34 -15 42 -42q-32 7 -42 -21q89 -58 42 -147q36 -18 21 -63q54 -33 21 -84q30 -12 21 -42q21 -2 21 -21
q-66 -40 -126 -42v-21q-90 -54 -105 -147q-37 -23 -35 -63q25 -16 35 -42h-21q-1 -35 -14 -56q19 -60 0 -112q26 -18 56 -21l-21 -42q29 -16 63 -21q-28 -60 42 -84q-12 -97 63 -63q10 -85 105 -42q13 -50 84 -21q5 -63 63 -63q14 -32 42 -42q12 30 42 21q17 47 63 42
q17 48 63 35q-27 -25 0 -35q3 20 21 21q-3 19 -21 21q3 20 21 21q-15 79 42 105v-126q46 -12 63 -42q75 24 147 0q97 34 168 0q29 40 70 42q25 -16 35 -42h21h84q12 46 42 63q-19 31 -21 63q-36 18 -21 63q-47 17 -42 63q-64 9 -84 63h-21q44 73 105 105v63h42q4 37 21 63
h-21q56 85 21 168h21q-28 32 0 42q-19 31 -21 63q-46 12 -63 42q-19 -3 -21 -21q-20 3 -21 21q-66 -18 -105 0q18 -32 21 -63h-21q-27 52 -84 42q-4 19 -21 21q35 -46 -21 -42v-21q32 7 42 -21q-78 -13 -63 63h-21q-2 -21 -21 -21q20 -32 0 -63q68 -13 21 -126h-42
q-18 78 -84 105q18 32 0 63q32 20 63 0q0 51 42 63q-2 50 42 42q-7 32 21 42q-32 44 21 63q0 119 63 105q-3 19 -21 21q47 73 0 105q10 60 -21 91q36 56 -21 77v42q-46 23 -63 63q-51 0 -63 42q-198 51 -168 -140q-11 -7 -21 -7v21v126q-45 -36 -42 21h-21q-5 -75 -42 -21
q18 4 21 21h-63q-12 -30 -42 -21q-2 -21 -21 -21v21q-57 -6 -21 35l-21 7v-21zM554 1232h-21q11 -32 21 0zM722 1232h-21q11 -32 21 0zM491 1169q-11 -32 -21 0h21zM218 1106q-10 -32 -21 0h21zM743 959l-21 -42q51 -35 0 -105q32 -12 21 -49v-238l-21 -28l21 -7
q-7 -11 -21 -14q3 -19 21 -21v-413q-11 -7 -21 -7q29 -39 0 -77q38 -47 21 -112q-71 49 -63 126q-243 -61 -231 189q45 15 63 42q-25 4 -7 21q8 19 28 14q45 -23 63 -56q17 -30 42 -42q12 -77 84 -84v56v21v21v217l-42 21q3 20 21 21q-16 109 21 154q-30 37 0 70
q-28 22 0 112q-32 -7 -42 21q-50 -2 -42 42q-63 3 -63 63q-45 -36 -42 21h21q-2 50 42 42q1 34 84 0q-2 50 42 42v42q37 -16 21 -63zM638 896q26 -56 21 -105h42v42q-39 23 -21 84h-21q-2 -21 -21 -21zM302 581q-10 -32 -21 0h21zM806 434v21q71 -9 0 -21zM1121 455
q-11 -28 -21 0h21zM848 413q-11 -33 -21 0h21zM141 371q16 -29 -7 0h7h-7h7zM29 182v21q28 -11 0 -21zM71 -7q-11 -32 -21 0h21zM722 -154q-12 -71 -21 0h21zM806 -280q-10 -32 -21 0h21zM344 -322v21q28 -10 0 -21zM1100 -343v42q37 -20 0 -42z" />
    <glyph glyph-name="quotesingle" unicode="'" horiz-adv-x="395" 
d="M61 1604q-1 -31 -19 -44q23 -62 0 -99l19 -6q-14 -73 18 -93v-56h19q-12 -25 -37 -18v-19q60 -38 37 -112q59 13 56 -37q40 32 37 -18q18 -2 18 -19h38q16 32 55 19v18h19v19q67 43 74 111h19q-6 35 -19 56q42 28 0 93q33 21 19 75l37 18q6 30 -18 37q2 18 18 19
q-17 28 -18 56h-19v18q-33 4 -56 19q-29 -18 -56 0q-17 -35 -55 0q-13 -35 -44 -37q-17 18 -12 37q-46 -25 -75 0q-15 -41 -55 -37zM395 1436q-9 -28 -18 0h18zM98 1399q-10 -28 -19 0h19z" />
    <glyph glyph-name="parenleft" unicode="(" horiz-adv-x="336" 
 />
    <glyph glyph-name="parenright" unicode=")" horiz-adv-x="490" 
 />
    <glyph glyph-name="asterisk" unicode="*" horiz-adv-x="1000" 
d="M563 1833q-36 -24 -77 0q-34 -47 -84 -42q-32 -77 0 -112q-7 -11 -21 -14q-7 -34 21 -42q-3 -20 -21 -21v-21q36 -18 21 -63q21 -2 21 -21q-58 2 -84 42q-62 9 -98 42q-75 -22 -133 0q-13 -29 -42 -21q0 -51 -42 -63q37 -55 0 -91q26 -39 21 -77q59 -32 105 -42v-42
l126 -21q-13 -58 -63 -70q-2 -44 -42 -56q7 -32 -21 -42q14 -29 42 -21l-21 -42q34 -15 42 -42h56q68 -54 133 -63l7 21q29 29 56 42q15 34 42 42q-2 50 42 42v21q48 -34 42 -84q21 -2 21 -21q50 2 42 -42q116 -32 126 21q32 -15 42 -42q71 27 98 84q10 51 28 84h-21
q-18 78 -84 105l21 42h-63q15 32 42 42q-5 56 42 21q-37 58 42 42q12 30 42 21q0 51 42 63q-32 66 0 119q-29 31 -21 70q-54 5 -91 42q-25 -63 -77 -63q-11 -30 -35 -42q-27 -31 -49 7q38 32 28 56h-7h7h-7q74 228 -105 231q7 32 -21 42q-28 -59 -70 -21zM591 1770
q-11 -32 -21 0h21zM108 1518l7 42q28 -26 -7 -42zM738 1518q-10 -28 -21 0h21zM822 1266q-20 3 -21 21q20 -3 21 -21zM822 1182q-10 -32 -21 0h21zM885 1161q32 11 0 21v-21z" />
    <glyph glyph-name="plus" unicode="+" 
 />
    <glyph glyph-name="comma" unicode="," horiz-adv-x="237" 
d="M40 -155q-21 -85 36 -144q-55 -25 -60 -78q34 -57 132 -18v24l24 -12q26 74 84 108v48q-28 42 -24 84q-18 11 -24 24q-47 3 -84 24q-38 -44 -84 -60z" />
    <glyph glyph-name="hyphen" unicode="-" horiz-adv-x="2607" 
d="M2425 742q-36 -54 -63 21h-21q17 -63 -84 -21v-21q58 -3 84 -42q-51 0 -84 21q33 -43 -14 -42q-27 31 -35 -21q-26 18 -56 21q-19 43 -63 42v21q-49 -10 -77 -42l-14 21q-43 -20 -77 0q-15 -32 -42 -42q-20 3 -21 21q-33 -27 -42 0q-59 -30 -84 21q-51 -19 -84 0
q13 -47 -21 -63q-32 48 -84 21v42q-19 -3 -21 -21q-120 48 -147 -21q-83 15 -105 -21q-32 15 -42 42h-42q-2 -78 -140 -42q-19 -21 -49 -21q-3 -16 -14 -21l-7 42q-34 1 -49 21q-54 1 -91 -42q-67 -1 -112 42q-12 -30 -42 -21v-42q-50 -4 -42 42h-21v-21q-56 4 -105 -21
q11 46 -21 63v-42q-86 -33 -105 21q-39 -22 -84 -21l-7 -21q-57 -3 -91 21q-50 -20 -91 0q-31 -19 -63 -21q-2 -21 -21 -21q32 -44 -21 -63q37 -41 42 -84h42v-21q38 23 77 21q83 -1 28 -42q20 -51 0 -84q101 55 63 -21q21 -2 21 -21q31 19 63 21q26 52 84 42q-33 76 42 42
q12 30 42 21q-7 -32 21 -42q2 21 21 21q10 -30 21 0q-33 15 -42 42q86 -35 42 21q63 -9 84 -63h21q32 18 63 21v42q-56 -3 -21 42q32 -15 42 -42q67 11 0 -63q47 36 42 -21q64 32 84 -21q19 3 21 21q-51 18 -21 63q70 -27 126 0v21q-55 -4 -21 42q32 -15 42 -42q47 8 70 -21
q24 19 56 21q-17 -33 0 -63q49 16 21 63q72 -28 84 21q51 -10 84 -42l-21 42q66 15 63 -42h21q4 37 21 63q68 -45 98 -21l14 -21q52 49 98 21q53 64 21 -21h21q13 29 42 21q4 16 14 21l7 -42q32 20 63 0q30 46 84 0l-21 42q50 4 42 -42h21v21h77q62 50 126 21q31 29 70 21
q-6 -53 42 -21q17 -96 147 -84q4 -18 21 -21q2 21 21 21q4 -18 21 -21v-168h42v-147h21v42v56v21v91q22 10 21 28v21v21v91l-21 28q64 0 21 63q31 19 63 21v84q-47 17 -42 63q-50 -2 -42 42h-84l21 42q-52 0 -84 21q16 -31 42 -42zM2348 721q20 -32 -7 0h7h-7h7zM1480 679
q-10 -28 -21 0h21zM997 637q41 22 0 42v-42zM2152 658q-10 -28 -21 0h21zM556 637q32 11 0 21v-21zM808 658h-21q11 -32 21 0zM871 616l7 21q61 -14 -7 -21zM2530 595v21q72 -10 0 -21zM598 595q-10 -32 -21 0h21zM745 595q-11 -32 -21 0h21zM1753 469v42q38 -22 0 -42z
M2593 490q32 10 0 21v-21zM1543 490q-11 -32 -21 0h21zM1858 469q-20 3 -21 21q20 -3 21 -21zM976 469q-11 -31 -21 0h21zM1816 455q-18 -7 -21 14q15 -4 21 -14zM94 427v21q28 -10 0 -21zM577 427q-20 3 -21 21q20 -3 21 -21zM640 427v21q28 -10 0 -21zM892 427v21
q28 -10 0 -21zM2278 427v21q28 -10 0 -21zM2383 427v21q28 -10 0 -21zM325 406q-20 3 -21 21q20 -3 21 -21zM703 427q-12 -71 -21 0h21zM808 385q12 31 42 21v21q100 -23 -42 -42zM976 427q-10 -28 -21 0h21zM2362 427q-10 -32 -21 0h21zM262 385v21q28 -10 0 -21zM367 385
v21q28 -10 0 -21zM1585 385q-3 19 -21 21q3 -19 21 -21zM1081 385h-21q10 -32 21 0zM283 343v21q28 -10 0 -21zM451 280q48 32 0 63v-63zM766 322q32 10 0 21v-21zM493 301q32 11 0 21v-21zM598 322h-21q11 -32 21 0zM619 301q32 11 0 21v-21zM724 301q-3 19 -21 21
q3 -19 21 -21z" />
    <glyph glyph-name="hyphen" unicode="&#x2010;" horiz-adv-x="2607" 
d="M2425 742q-36 -54 -63 21h-21q17 -63 -84 -21v-21q58 -3 84 -42q-51 0 -84 21q33 -43 -14 -42q-27 31 -35 -21q-26 18 -56 21q-19 43 -63 42v21q-49 -10 -77 -42l-14 21q-43 -20 -77 0q-15 -32 -42 -42q-20 3 -21 21q-33 -27 -42 0q-59 -30 -84 21q-51 -19 -84 0
q13 -47 -21 -63q-32 48 -84 21v42q-19 -3 -21 -21q-120 48 -147 -21q-83 15 -105 -21q-32 15 -42 42h-42q-2 -78 -140 -42q-19 -21 -49 -21q-3 -16 -14 -21l-7 42q-34 1 -49 21q-54 1 -91 -42q-67 -1 -112 42q-12 -30 -42 -21v-42q-50 -4 -42 42h-21v-21q-56 4 -105 -21
q11 46 -21 63v-42q-86 -33 -105 21q-39 -22 -84 -21l-7 -21q-57 -3 -91 21q-50 -20 -91 0q-31 -19 -63 -21q-2 -21 -21 -21q32 -44 -21 -63q37 -41 42 -84h42v-21q38 23 77 21q83 -1 28 -42q20 -51 0 -84q101 55 63 -21q21 -2 21 -21q31 19 63 21q26 52 84 42q-33 76 42 42
q12 30 42 21q-7 -32 21 -42q2 21 21 21q10 -30 21 0q-33 15 -42 42q86 -35 42 21q63 -9 84 -63h21q32 18 63 21v42q-56 -3 -21 42q32 -15 42 -42q67 11 0 -63q47 36 42 -21q64 32 84 -21q19 3 21 21q-51 18 -21 63q70 -27 126 0v21q-55 -4 -21 42q32 -15 42 -42q47 8 70 -21
q24 19 56 21q-17 -33 0 -63q49 16 21 63q72 -28 84 21q51 -10 84 -42l-21 42q66 15 63 -42h21q4 37 21 63q68 -45 98 -21l14 -21q52 49 98 21q53 64 21 -21h21q13 29 42 21q4 16 14 21l7 -42q32 20 63 0q30 46 84 0l-21 42q50 4 42 -42h21v21h77q62 50 126 21q31 29 70 21
q-6 -53 42 -21q17 -96 147 -84q4 -18 21 -21q2 21 21 21q4 -18 21 -21v-168h42v-147h21v42v56v21v91q22 10 21 28v21v21v91l-21 28q64 0 21 63q31 19 63 21v84q-47 17 -42 63q-50 -2 -42 42h-84l21 42q-52 0 -84 21q16 -31 42 -42zM2348 721q20 -32 -7 0h7h-7h7zM1480 679
q-10 -28 -21 0h21zM997 637q41 22 0 42v-42zM2152 658q-10 -28 -21 0h21zM556 637q32 11 0 21v-21zM808 658h-21q11 -32 21 0zM871 616l7 21q61 -14 -7 -21zM2530 595v21q72 -10 0 -21zM598 595q-10 -32 -21 0h21zM745 595q-11 -32 -21 0h21zM1753 469v42q38 -22 0 -42z
M2593 490q32 10 0 21v-21zM1543 490q-11 -32 -21 0h21zM1858 469q-20 3 -21 21q20 -3 21 -21zM976 469q-11 -31 -21 0h21zM1816 455q-18 -7 -21 14q15 -4 21 -14zM94 427v21q28 -10 0 -21zM577 427q-20 3 -21 21q20 -3 21 -21zM640 427v21q28 -10 0 -21zM892 427v21
q28 -10 0 -21zM2278 427v21q28 -10 0 -21zM2383 427v21q28 -10 0 -21zM325 406q-20 3 -21 21q20 -3 21 -21zM703 427q-12 -71 -21 0h21zM808 385q12 31 42 21v21q100 -23 -42 -42zM976 427q-10 -28 -21 0h21zM2362 427q-10 -32 -21 0h21zM262 385v21q28 -10 0 -21zM367 385
v21q28 -10 0 -21zM1585 385q-3 19 -21 21q3 -19 21 -21zM1081 385h-21q10 -32 21 0zM283 343v21q28 -10 0 -21zM451 280q48 32 0 63v-63zM766 322q32 10 0 21v-21zM493 301q32 11 0 21v-21zM598 322h-21q11 -32 21 0zM619 301q32 11 0 21v-21zM724 301q-3 19 -21 21
q3 -19 21 -21z" />
    <glyph glyph-name="period" unicode="." horiz-adv-x="365" 
d="M29 -109q12 -48 -12 -84q44 -55 0 -96l12 -48q21 -11 36 -24q48 12 78 -24q15 11 30 0q21 34 48 0l12 24q99 26 84 108q60 24 60 96q-35 18 -60 12q-31 33 -60 48q-56 -37 -108 12q-32 -13 -60 0q-31 -24 -60 -24z" />
    <glyph glyph-name="slash" unicode="/" horiz-adv-x="757" 
d="M440 1177q-2 -21 -21 -21v-42h-21v-147l-42 21l21 -35l-42 -7q-20 -103 -63 -168q32 7 42 -21l-42 -21q4 -63 -21 -105q32 7 42 -21h-42q3 -19 21 -21q-15 -32 -42 -42q7 -32 -21 -42l21 -42h-42q-10 -61 -42 -105h21q-12 -45 -42 -63q38 -42 0 -63q15 -64 -21 -84
q0 -55 -21 -91q2 -45 21 -77q-69 -50 -63 -126q-51 -34 -21 -161l-21 -28q47 -17 42 -63q47 13 63 -21h56q64 52 126 0q28 41 70 42q12 46 42 63q-7 62 42 84q-3 19 -21 21q24 52 0 84q24 52 0 84l42 21q-33 67 21 105q9 64 63 84q2 58 42 84q-3 19 -21 21q7 18 21 28
q-9 11 -21 14q3 20 21 21q-5 34 -21 56l21 14q-6 31 -21 49v21q30 84 21 154q32 14 42 42q-21 2 -21 21q45 35 42 84q75 -33 84 63h21q-18 50 -63 21q8 73 63 105q-7 62 42 84v42q-52 26 -42 84q-45 -3 -77 21q-33 -34 -70 0l-21 -42q-52 42 -105 42q-12 -30 -42 -21z
M650 1114v21q28 -11 0 -21zM356 904v21q28 -11 0 -21zM692 862q-11 -33 -21 0h21zM209 295q-20 3 -21 21q20 -3 21 -21zM482 148q-20 3 -21 21q20 -3 21 -21z" />
    <glyph glyph-name="zero" unicode="0" 
 />
    <glyph glyph-name="one" unicode="1" horiz-adv-x="550" 
d="M382 1382q0 -51 -42 -63q-12 -30 -42 -21q7 32 -21 42v-42h-63q-36 -23 -77 -21q-19 -21 -49 -21q-2 -58 -42 -84q45 -80 -21 -126q23 -42 63 -49q-29 -23 -63 -14q53 -81 21 -112q6 -31 21 -49q-31 -39 -42 -70q40 -20 0 -63h42q-3 -20 -21 -21q26 -79 -21 -147
q32 7 42 -21h-42q38 -42 0 -63q21 -35 0 -56q31 -22 0 -28q28 -32 0 -42q22 -34 0 -56q38 -43 42 -91q-43 5 -42 -35q38 -47 21 -112q30 -12 21 -42q20 -3 21 -21l-21 -7l21 -35h-21q20 -64 0 -105q36 -18 21 -63q60 -33 84 -84q61 48 105 21q20 42 49 0l35 21v-63
q62 -18 84 -63q32 20 63 0q0 51 42 63q-32 66 0 119q-27 47 0 84q-35 6 -42 28l42 21q-44 92 0 168h-21q10 81 -21 140q19 19 21 42l-21 7q7 18 21 28q-14 67 21 105q-19 40 -42 56q15 32 42 42q7 34 -21 42v21v126l-21 7q7 11 21 14q7 34 -21 42q30 65 21 126l21 7
q-45 48 0 77q-21 35 0 56q-26 24 0 49q-51 35 0 105q-32 -7 -42 21h21q0 55 21 91q-24 34 0 56q-30 12 -21 42q-21 2 -21 21q-45 -36 -42 21h-21q-18 -36 -63 -21zM340 1340q-3 19 -21 21q3 -19 21 -21zM109 1067v21q28 -10 0 -21zM529 941q-20 3 -21 21q20 -3 21 -21z
M88 836v21q28 -11 0 -21zM508 479v21q28 -10 0 -21zM67 437v21q28 -10 0 -21zM46 374l7 21q21 -15 -7 -21zM529 395q-11 -33 -21 0h21zM67 206v21q28 -11 0 -21zM88 -25v21q28 -10 0 -21zM88 -67l7 21q21 -15 -7 -21zM424 -340v21q28 -11 0 -21zM424 -382v21q28 -11 0 -21z
" />
    <glyph glyph-name="two" unicode="2" horiz-adv-x="1175" 
d="M445 1139q-83 15 -105 -21h-35q-25 24 -49 21q-25 -43 -63 -56q-8 -39 -42 -49q-17 -81 -84 -105q0 -51 -42 -63q8 -47 -21 -70q9 -11 21 -14q-3 -20 -21 -21q22 -47 0 -84q30 -12 21 -42q63 -18 84 -63l35 21q52 -1 84 21q25 -24 49 -21q-41 61 63 42q5 -34 21 -56
q115 5 126 119q-21 2 -21 21q18 4 21 21q-21 2 -21 21h21q-2 50 42 42q-7 32 21 42q-26 76 0 119l-21 21q11 7 21 7v56q3 65 -7 112l-35 -7q-18 -15 -28 7h-21h-14h14h-14v-21zM571 1041l21 -21q7 -39 -21 -49q25 -30 0 -49q9 -11 21 -14v-273h-21q-15 -34 -42 -42v-28
q-8 -11 -21 -14v-63h-21v-28q-35 -53 -42 -98q-58 -37 -84 -84q-160 -44 -189 -210h-42q0 -51 -42 -63q15 -80 -42 -105q3 -19 21 -21q8 -34 -21 -42q-7 -70 21 -119q-11 -7 -21 -7l21 -35q-11 -7 -21 -7q19 -31 21 -63q46 -12 63 -42q94 22 147 0q-7 32 21 42q4 -18 21 -21
h126q13 30 42 0q7 40 70 0q51 35 98 0q56 26 105 21q-3 19 -21 21l21 35l-21 14q-4 31 21 35q-3 19 -21 21v28v21v35v21v28v21v140q45 15 63 42q18 63 63 84l-21 35q10 7 21 7q38 87 105 133q-11 60 42 56v42h42q-41 81 7 42q12 6 14 14q11 7 21 7q2 58 42 84v84
q-30 12 -21 42l21 14l-21 7q-2 51 -21 84q32 14 42 42q-47 17 -42 63q-47 17 -42 63q-73 34 -84 105q-58 2 -84 42q-35 0 -49 -21q-11 7 -14 21q-47 -13 -63 21q-91 -17 -133 21h-35q10 -71 -21 -119zM1096 782q-10 -28 -21 0h21zM571 719h-21q10 -32 21 0zM550 656
q32 10 0 21v-21zM193 614v21q28 -10 0 -21zM109 593v21q28 -10 0 -21zM1117 614q-11 -32 -21 0h21zM536 551q16 -29 -7 0h7h-7h7zM781 -16q-2 -21 -21 -21q51 -72 0 -105q29 -39 0 -77q46 -51 42 -112h84q-1 -46 63 -63q17 46 63 42q21 -32 0 -63l42 21v-21q93 5 105 84h21
q-25 128 0 126l-21 35q11 7 21 7q-27 33 0 42q-18 32 -21 63h-21v21q-37 4 -63 21q-58 -27 -98 0q-57 -33 -91 21q-32 -20 -63 0q-12 -30 -42 -21zM1159 -100q-11 -33 -21 0h21zM970 -331q-34 -51 -63 0h63zM823 -394q68 10 0 21v-21zM802 -394h-21q11 -32 21 0z" />
    <glyph glyph-name="three" unicode="3" horiz-adv-x="1110" 
d="M570 1201q3 -19 21 -21v-350q-10 -204 -21 -7q-36 -22 -21 -105h-21q-15 -34 -42 -42q-3 -94 -84 -105q-12 -46 -42 -63q29 -97 0 -105q20 -32 0 -63h21q17 -96 147 -84q37 -72 105 -84q-3 -20 -21 -21q33 -55 0 -98q29 -65 0 -112q-40 20 0 63h-42q55 131 -126 189
q7 -32 -21 -42v21q-34 15 -42 42q-49 -10 -77 -42q-86 75 -49 0q-34 -8 -42 21q-30 -25 -49 0q-11 -9 -14 -21q-33 19 -77 21l-28 -21q13 -47 -21 -63q20 -32 0 -63h21q2 -65 42 -112q-37 -66 21 -140q37 -4 63 -21l7 -21q93 -17 140 -84q38 -4 70 -21q11 -7 14 -21
q51 19 84 0q39 55 126 0v84q-58 42 0 119q-46 55 0 112q15 -4 21 -14v-238q30 -12 21 -42q51 1 84 -21v21q93 5 105 84q20 -3 21 -21q77 21 84 84q43 19 42 63q85 10 42 105q72 38 42 105h42q-28 55 0 98q-24 65 0 112l-42 21l21 84q-30 12 -21 42q-59 26 -63 84h-63
q27 73 84 105q-13 47 21 63q-20 32 0 63q-40 20 0 63q-34 15 -42 42q49 -1 42 42q-32 -7 -42 21h42q-3 19 -21 21q51 90 0 126v42q-185 25 -84 42v21q-47 -12 -63 21q-73 -9 -105 42q-47 -13 -63 21q-52 -28 -84 0q-17 -47 -63 -42zM255 1180h-21q-43 -73 -105 -105
q6 -39 21 -63q-52 -27 -42 -84q-49 -17 -21 -63h-42q-19 -33 0 -63h-21q-23 -124 63 -105q-1 -49 42 -42q26 52 84 42q3 16 14 21q223 -98 280 63q-21 2 -21 21q28 11 21 42q88 12 42 42q-3 -20 -21 -21q-4 50 42 42q-3 19 -21 21q4 38 21 70q-36 38 0 56q-22 34 0 56l-21 7
q-2 51 -21 84q-43 -23 -77 0q-36 -17 -70 -21l-7 21q-44 -28 -77 0q-20 -62 -42 -21zM360 1159q-10 -28 -21 0h21zM885 1159q-11 -28 -21 0h21zM199 1117q16 -29 -7 0h7h-7h7zM45 823l7 21q21 -15 -7 -21zM486 613l7 21q61 -14 -7 -21zM990 466q-10 -71 -21 0h21zM276 151
q-10 -32 -21 0h21z" />
    <glyph glyph-name="four" unicode="4" horiz-adv-x="1100" 
d="M419 1083v-42h-21q6 -39 21 -63q-59 -36 -42 -105q-36 -19 -56 -42q-27 -74 -91 -105q9 -64 -42 -84v-84h-21v-21q-31 -86 -42 -147h-21q-23 -45 -63 -63q8 -18 21 -28q-7 -11 -21 -14q3 -19 21 -21q-7 -18 -21 -28q36 -75 0 -77q28 -32 0 -42q26 -56 21 -105
q-32 -14 -42 -42q19 -31 21 -63q51 0 63 -42h63q3 16 14 21q7 -10 7 -21q76 26 119 0q13 20 35 21l35 -21q20 40 63 0q3 131 21 42q42 39 56 -42h7h-7h7q1 44 -21 77q11 7 21 7v35v70h21v21v126h-21q-16 -53 -56 -21q-40 4 -7 42q-59 -30 -84 21q64 42 84 105h42v63
q63 5 63 63h21q-10 71 21 119v35q-9 11 -21 14q-8 34 21 42v77q-56 72 0 147q-4 38 -21 63l21 14q-20 43 0 77q-16 4 -21 14l21 28h21v-224l-21 -21v-70h21v-224l-21 -21l21 -7q-2 -35 -21 -56l21 -7q-4 -38 -21 -70q8 -141 -42 -238q32 -34 21 -77q4 -31 -21 -35
q31 -59 0 -105q53 27 42 84h21q15 -79 -42 -105q-8 -73 -63 -105q11 -81 -63 -84q-2 -21 -21 -21q-4 -37 -21 -63h21q5 -63 63 -63v-21q64 20 105 0q12 30 42 21q19 42 49 0q78 26 140 -21q-2 23 84 0q-4 57 42 21q12 46 42 63q6 45 -21 70q7 11 21 14q-3 19 -21 21
q3 20 21 21v42q-35 15 -21 56q51 51 105 70q33 96 0 168h21v21v126h-21q-52 77 -126 105q16 29 21 63l-42 -21q-8 34 21 42q-19 51 0 84q-38 22 0 42q-13 47 21 63q-27 51 0 84q-67 51 0 147q-25 1 -42 14q26 21 0 28q17 28 42 35l-42 14q7 11 21 14q-1 51 21 84
q-30 12 -21 42q-21 2 -21 21l-42 -21v42q-19 -3 -21 -21q-102 40 -175 -21q-20 21 -14 42q-39 -22 -84 -21l-7 -21q-62 40 -119 42q-23 -46 -63 -63zM965 726q-11 -33 -21 0h21zM272 684v21q28 -11 0 -21zM272 684q-10 -28 -21 0h21zM545 579v21q28 -10 0 -21zM524 495
q-10 -32 -21 0h21zM461 411v21q28 -10 0 -21zM419 327v42q37 -20 0 -42zM62 306l7 21q21 -15 -7 -21zM692 -387v21q28 -10 0 -21zM881 -408v21q28 -11 0 -21z" />
    <glyph glyph-name="five" unicode="5" horiz-adv-x="1055" 
d="M703 1261q-31 -47 -77 0q-26 -50 -70 -21q13 -47 -21 -63q28 -58 21 -112q-9 -78 21 -140q32 20 63 0q33 49 70 0q48 36 84 0q73 21 119 -7q9 -11 21 -14q37 60 105 63q-7 32 21 42q-3 72 -21 119q24 25 21 49q-30 12 -21 42q-34 15 -42 42l-84 -21v21q35 22 -21 0
q-22 36 -105 21q-35 -53 -84 -21zM94 1219q-2 -58 -42 -84q-11 -46 21 -63l-21 -42q20 -32 0 -63h21q-42 -103 0 -154q-7 -11 -21 -14q70 -77 0 -63v-21q59 -28 21 -70q37 -67 -21 -56q14 -29 42 -21q-13 -29 -42 -21v-21q110 -29 63 -168q56 26 105 21q4 16 14 21
q12 -54 35 -21q39 -33 35 21q55 4 21 -42q56 32 98 0q28 41 70 42v21h21q6 64 21 105q36 -17 21 -63q52 28 84 0q-28 -77 0 -84q-23 -56 0 -98q-10 -7 -21 -7q0 -51 -42 -63q7 -32 -21 -42q-7 -34 21 -42q-12 -45 -42 -63v-119q-1 -22 -21 -28q28 -52 0 -84q36 -17 21 -147
h56q40 45 154 0q34 47 84 42q31 106 105 126q3 63 63 63l-21 42h63q-10 71 21 119q-20 50 0 91l-21 7q0 46 21 77q-16 3 -21 14v42q1 22 21 28q-29 39 0 77q-28 21 0 42q-22 36 0 63q-29 31 -21 70q-88 43 -105 126q-51 0 -63 42q-50 -2 -42 42q-32 -7 -42 21
q-71 4 -126 -21v21q-51 -1 -84 21q-15 -34 -42 -42q34 -84 0 -84q-37 69 0 126q-21 2 -21 21l-42 -21q-7 31 21 42q-32 44 21 63q-7 32 21 42q-31 59 0 105q-66 53 0 105q-20 32 0 63q-98 -27 -168 0q-15 -34 -42 -42v42h-21q-15 -34 -42 -42q-1 26 -14 42q-6 -35 -28 -42
q-19 43 -63 42q-17 -47 -63 -42zM556 547h-42q7 18 21 28q-9 11 -21 14q29 68 0 126q66 -35 42 -168zM493 484v21q28 -10 0 -21zM10 484q32 10 0 21v-21zM640 379v21q28 -10 0 -21zM94 232q0 -51 -42 -63v-84q30 -12 21 -42h21q-40 -60 0 -84q-29 -44 21 -63q2 -80 63 -84
q35 -59 105 -42v-21h42v-21q76 -21 126 -21l42 -21q-7 32 21 42q-28 32 0 42l-21 28v21v140h21q-16 106 21 126q-43 58 0 84v42q-46 12 -63 42q-109 -44 -161 0l-7 -21q-31 22 -49 0q-64 31 -119 21q-12 -30 -42 -21zM724 -293q-19 4 -21 21q20 -3 21 -21z" />
    <glyph glyph-name="six" unicode="6" horiz-adv-x="1145" 
d="M479 1222q-49 -3 -63 -42q-29 13 -21 42h-42q-12 -30 -42 -21v-42h-56q-28 -41 -70 -42q-4 -37 -21 -63q-99 -30 -63 -84h-42q3 -19 21 -21q-51 -90 0 -126v-63l-42 -21q6 -39 21 -63q-35 -19 0 -63q-45 -28 0 -77q-35 -44 -42 -84q53 -30 21 -91l42 21q4 -50 -42 -42
q7 -32 -21 -42q25 -59 0 -105q82 -53 42 -168q30 -12 21 -42q47 -17 42 -63q50 2 42 -42q60 -33 84 -84h21q25 -46 63 -63v-42q87 -25 147 -21v84q-57 41 0 91q-9 11 -21 14l21 42q-4 19 -21 21q17 64 21 105h-21v21v28v21v140h42q-14 29 -42 21v28v21v28v126q10 7 21 7v42
q-36 17 -21 147h21v-77q37 -47 21 -175h-21v-63q29 14 21 42q49 -1 42 42q45 -12 63 -42h42q64 -149 42 -301q-46 -197 -126 -98q-32 -20 -63 0q40 -102 0 -105q24 -47 0 -70q24 -80 0 -140q37 -4 63 -21q83 34 84 0q51 19 84 0v21h42q12 30 42 21q3 20 21 21v42
q20 -3 21 -21q39 22 84 21q32 59 42 105l42 21v28q17 41 42 56q-6 57 21 98l-21 28q93 15 42 105l42 21q1 44 -21 77q30 90 -21 168l-21 14q-26 39 -21 77q-74 44 -105 105q-32 -7 -42 21q-64 -15 -84 21q-47 -8 -70 21q-23 -27 -42 0q-11 -9 -14 -21q-29 13 -21 42h-21
q-18 -36 -63 -21q-11 38 -147 -42q-2 45 21 77q-63 85 0 133q-40 80 35 42q114 -22 70 -84q21 -2 21 -21q19 -43 63 -42v-21q49 3 63 42q50 -1 63 -42q92 44 168 0q12 30 42 21q15 34 42 42v98q-28 25 -21 56q-47 42 -42 98q-73 27 -105 84q-64 9 -84 63q-63 -4 -105 21
q7 -32 -21 -42v21q-93 26 -140 0q-25 24 -49 21v-21zM479 1180q32 -43 -21 -63q-6 67 28 105q28 -26 -7 -42zM500 1012q-76 42 -14 105q26 -54 14 -105zM479 1012q-11 -113 -21 0h21zM500 319h-21q11 -32 21 0zM479 109q32 11 0 21v-21zM1004 -80v21q28 -10 0 -21zM521 -227
l7 42q28 -26 -7 -42zM794 -290v21q28 -10 0 -21zM416 -290q-10 -32 -21 0h21z" />
    <glyph glyph-name="seven" unicode="7" horiz-adv-x="1110" 
d="M252 1141q32 11 0 21v-21zM357 1120q-87 -10 -147 21q-69 -29 -126 0v-21h-42q-73 -103 21 -168q7 -39 21 -63h-21q33 -86 42 -147h63v-42q69 48 126 21q24 74 84 42q3 20 21 21q16 -30 42 -42q29 102 126 84q0 36 77 0q34 -35 7 21q94 -4 105 -84h21q-16 -29 -21 -63
q-47 35 -42 84q-32 -20 -63 0q-18 -52 -63 -21v-28q-17 -25 -21 -49q-64 -66 -84 -140q22 -45 0 -70q44 -7 42 -42q-11 -7 -21 -7q32 -44 -21 -63q19 -31 21 -63h-42q5 -34 21 -56l-42 -28l21 -42q-59 -40 -63 -105q22 -5 21 -28q-7 -11 -21 -14q15 -76 -21 -112
q24 -34 0 -56q21 -2 21 -21h-42q33 -67 -21 -112q21 -18 42 -14q-16 -29 -21 -63q59 11 91 -21h35q32 50 63 0q52 28 84 0v21q96 12 168 -21h42q12 30 42 21q0 51 42 63l-21 28l21 21q-25 67 0 119l-21 42h21q1 34 21 49q-24 34 0 56q-29 10 0 21q-13 47 21 63q-27 59 0 105
h-21q-12 48 21 63q-12 94 63 126q15 34 42 42q-7 128 105 126q12 46 42 63q1 44 -21 77q11 7 21 7q-20 32 0 63q-42 11 0 98q-21 19 -21 49l42 21q-19 51 0 84q-30 12 -21 42q-63 18 -84 63h-63v-21q-92 -16 -133 21q-35 -24 -70 0q-73 -37 -126 0q-32 -33 -63 0
q-39 -34 -105 21q-33 -34 -70 0q-2 -84 -126 0zM357 784v21q28 -10 0 -21zM441 805q-8 -74 -42 0h42zM168 742v21q28 -11 0 -21zM756 679l7 21q21 -15 -7 -21zM756 679q-10 -28 -21 0h21zM630 637v21q28 -10 0 -21zM1176 658q-10 -71 -21 0h21zM546 616v21q28 -11 0 -21z
M903 -98q-11 -28 -21 0h21z" />
    <glyph glyph-name="eight" unicode="8" horiz-adv-x="1145" 
d="M321 1267v-63q-20 3 -21 21q-158 -45 -189 -189l-42 -21l21 -42q-18 -4 -21 -21q29 -10 0 -21q25 -30 0 -49q36 -75 0 -77q23 -43 0 -77q46 -53 0 -105q29 -31 21 -70h21q25 -46 63 -63q-4 -62 -63 -63l-21 -35l21 -28h-42l21 -42h-21q23 -108 -42 -105q-5 -93 21 -161
q-24 -25 -21 -49h42q-31 -84 42 -126v-84q47 -17 42 -63q50 2 42 -42q64 -9 84 -63q47 13 63 -21h42q12 30 42 21q2 21 21 21q-7 -32 21 -42v21v49q0 28 21 42v21v21v140h-21v-63q-51 35 0 105l-42 -21v70v28v21v140q7 11 21 14q-13 81 42 42v35v49q-39 25 -21 105
q44 -21 42 -63q58 43 84 0q78 -8 63 -84h21v-224q-10 -7 -21 -7q1 -51 -21 -84h-42v-21q-51 -2 -84 -21q3 -19 21 -21q-18 -32 0 -56q-11 -7 -21 -7v-168q150 88 63 -21q19 3 21 21l42 -21q-2 50 42 42v-35l-21 -28q59 30 84 -21q32 20 63 0q34 47 84 42q9 64 63 84
q26 59 84 63q8 87 84 105q-7 32 21 42q7 34 -21 42q3 20 21 21l-21 35q1 22 21 28v35l-21 21q39 43 0 84l21 28q-30 12 -21 42q-21 2 -21 21q-79 22 -84 105q-49 21 -42 77l-21 7q3 20 21 21q-38 62 21 84q8 73 63 105q-3 19 -21 21q3 20 21 21q-3 19 -21 21
q21 245 -147 378v42q-34 1 -49 21q-57 -3 -91 21h-49l-21 42l-42 -21q-7 29 -126 0q7 -32 -21 -42v-63h21v-210q-30 -12 -21 -42h21v42q183 86 147 -252h-21q-11 -86 -105 -63q6 -87 -21 -42q4 58 -7 105q-48 -86 7 -126v-49l-21 -35l21 -7q0 -48 -28 -14q-12 7 -14 21v28
v28v28v28v21v28v21v28v126q5 93 -21 161q50 65 0 154q43 23 0 147q-105 -40 -63 14l-21 7q-13 -29 -42 -21zM363 1204q-20 3 -21 21q20 -3 21 -21zM174 490v42q38 -22 0 -42zM489 154q11 46 -21 63q-11 -46 21 -63zM468 -266q-39 23 -21 84q39 -23 21 -84zM195 -203
q-11 -32 -21 0h21z" />
    <glyph glyph-name="nine" unicode="9" horiz-adv-x="1160" 
d="M434 1127v-42q-52 42 -105 42l-21 -42l-42 21q-12 -30 -42 -21q-26 -59 -84 -63v-21q-28 -11 -21 -42q-57 -28 -63 -84h-21q24 -66 0 -112q19 -24 21 -56l-42 21q8 -18 21 -28q-35 -143 21 -182q5 -80 63 -126v-70q28 -50 21 -98q52 -32 63 -84q35 -2 56 -21q38 0 56 21
q11 -7 14 -21h56h21h91q1 -53 70 -63l35 21v-63q30 -12 21 -42q21 -2 21 -21q-30 -16 -49 -42q-39 24 -77 21v42q-63 18 -84 63q-64 -20 -105 0q-14 -70 -119 -21l-28 -21v42h-63q-12 -30 -42 -21q-3 -20 -21 -21v-84q30 -12 21 -42h-21q-4 -37 -21 -63q52 -26 42 -84
q103 53 147 -42h63v-21q55 0 91 -21q31 4 35 -21q59 11 91 -21h21h56q23 39 84 21v77q25 62 21 112q-27 7 -21 35q-23 91 42 91q-3 -20 -21 -21q28 -52 0 -84h21v-189q46 -23 63 -63q19 3 21 21q70 -33 105 21l42 -21q-6 43 35 42q65 24 70 84q43 19 42 63q49 -1 42 42h21
q-47 77 -21 140q-47 47 21 49q-28 32 0 42q-19 31 -21 63l42 -21q-18 50 -63 21q-4 50 42 42q-28 42 21 77q-56 8 -21 42q-2 39 21 56q-22 45 0 70l-21 7q1 34 21 49q-30 44 0 77l-42 21q-4 55 42 21q-21 39 -21 84q-21 2 -21 21q32 -7 42 21h-21q-9 60 -63 84q16 29 21 63
q-30 12 -21 42q-87 42 -84 126q-50 -2 -42 42q-51 0 -63 42q-58 2 -84 42h-42q-18 -53 -63 -21q6 -57 -21 -98q34 -33 0 -70q36 -18 21 -63l-42 -21v28v28v21v28v126q-21 2 -21 21q-42 -29 -77 21q-16 -33 -91 0q-12 -30 -42 -21zM707 805q25 -124 -42 -161v-28
q21 -18 42 -14v-525l-21 7v28v77v35v21v28v21v140q-162 -118 -189 63q-31 59 0 105h-21q-9 121 70 189q46 14 70 42q34 -35 28 -84l28 21q11 9 14 21q-53 36 7 84q23 -36 14 -70zM56 833v21q28 -10 0 -21zM1064 854q-10 -32 -21 0h21zM644 665q48 32 0 63v-63zM693 644
q16 -29 -7 0h7h-7h7zM665 539q32 11 0 21v-21zM98 518q-10 -32 -21 0h21zM686 518h-21q11 -32 21 0zM1106 329v21q28 -10 0 -21zM1085 203v21q71 -9 0 -21zM707 56q-10 -120 -42 0h42zM707 -49q-51 -4 -42 42q32 -15 42 -42zM1085 -70q-11 -32 -21 0h21zM581 -91
q-11 -28 -21 0h21zM140 -154q-10 -32 -21 0h21zM1127 -154q-11 -33 -21 0h21zM119 -196q-11 -32 -21 0h21zM1043 -238v21q28 -11 0 -21zM161 -280h-21q10 -32 21 0z" />
    <glyph glyph-name="colon" unicode=":" horiz-adv-x="1085" 
d="M520 1181q0 -36 -77 0q-23 -26 -49 0q-4 -31 -91 0q-48 -37 -98 -42q-43 -63 -119 -21l-28 -21q34 -57 -42 -77q26 -24 0 -49q59 1 42 -63l-21 -7q32 -58 -21 -77v-21q30 -13 0 -42l42 -7q4 -31 -21 -35l21 -35q-10 -7 -21 -7q12 -82 -21 -140q40 -44 0 -91h21
q16 -128 -21 -175q24 -34 0 -56q38 -22 0 -42q37 -69 0 -126l42 21q-17 -64 -21 -105q0 -44 21 -77q-45 -40 0 -70q-18 -32 0 -56l-21 -28q47 -17 42 -63q46 -12 63 -42q31 19 63 21v-42q19 3 21 21q-3 37 63 -21q-54 59 84 21v-21q32 7 42 -21q63 -2 105 21q4 -18 21 -21
q55 25 98 0q44 40 91 0v21q92 20 105 105h63l21 35v28h42q8 73 63 105q-4 62 42 91l-21 21q28 52 21 98h21q-3 19 -21 21q4 37 21 63l-21 7q7 68 -21 112q11 7 21 7l-21 35q29 86 0 154l42 28q-16 24 -42 35q5 38 21 70l-21 21q28 48 21 98q-32 -7 -42 21q46 -11 63 21
q-30 12 -21 42q-59 -1 -42 63q-30 12 -21 42q-47 17 -42 63q-59 -1 -42 63q-21 2 -21 21q-32 -7 -42 21q-45 -36 -42 21q-62 -38 -84 21q-51 0 -63 42l-84 21q-18 -36 -63 -21zM604 866l21 -70v-819q-18 -26 -21 -56q-51 -44 -105 -42l21 56q-83 89 -21 133q-22 47 0 84
l-84 -21q24 52 0 84q32 14 42 42q-50 -2 -42 42l42 -21q15 77 -42 105q-8 34 21 42q-3 19 -21 21v35v91v28v119v21v84h21q10 52 42 84q79 3 126 -42zM1045 698q-12 -70 -21 0h21zM1024 593v21q28 -10 0 -21zM436 593q32 11 0 21v-21zM1066 530q-10 -32 -21 0h21zM457 530
h-21q10 -32 21 0zM1045 509q-11 -33 -21 0h21zM436 341q-10 -32 -21 0h21zM1003 173v21q28 -10 0 -21zM457 173q32 11 0 21v-21zM436 110q-11 -31 -21 0h21zM1066 110q-24 -41 -42 0h42zM436 47l7 42q28 -26 -7 -42zM436 5v21q28 -10 0 -21zM499 -58q-12 -71 -21 0h21z
M310 -352v21q72 -11 0 -21z" />
    <glyph glyph-name="semicolon" unicode=";" horiz-adv-x="237" 
 />
    <glyph glyph-name="less" unicode="&#x3c;" 
 />
    <glyph glyph-name="equal" unicode="=" 
 />
    <glyph glyph-name="greater" unicode="&#x3e;" 
 />
    <glyph glyph-name="question" unicode="?" horiz-adv-x="567" 
 />
    <glyph glyph-name="at" unicode="@" horiz-adv-x="579" 
 />
    <glyph glyph-name="A" unicode="A" horiz-adv-x="1185" 
d="M379 1133q33 -12 46 -37q-62 -17 -88 32l-21 -3l-11 -86q31 -8 26 -39q21 1 23 -18q-51 -8 -81 -31q18 -45 -14 -65q11 -56 -39 -25q50 -156 -7 -128q23 -61 -11 -86q33 -31 5 -42q32 -28 5 -41q5 -19 23 -19q-1 -20 -18 -23q22 -92 -48 -132q49 -83 -28 -130l5 -42
q-28 -20 -37 -47q-83 15 -46 37q21 43 -21 61q-34 -14 -19 40l-14 -1l14 1l-14 -1q-1 -21 -19 -24q25 -42 68 -34q-11 -34 -37 -47q36 -55 91 -53l2 -20q31 13 -2 20q11 34 37 47q6 -17 23 -19q-1 -20 -19 -23q23 -78 -37 -46q34 -42 -12 -72q23 -16 43 -9q-1 -21 -19 -24
q6 -18 24 -18q-5 -19 -18 -30q10 -82 -5 -142l-21 -2q14 -61 -32 -88q41 -94 17 -146l98 11l76 9l35 4l21 2l28 3l20 3l139 16q-10 31 16 44q-21 80 5 141l-8 70l-3 28l-3 27l-3 21l-3 28l-14 125l21 3l-7 55q49 89 22 179l42 5q-37 34 14 58l-45 23q5 19 18 30l-16 139
q32 -13 65 -13q-1 -21 -19 -24q5 -18 23 -18q-5 -84 33 -102l5 -42l-21 -2q21 -28 47 -37q2 -86 38 -144q-35 -2 -58 15q-74 -58 -109 -34q5 -19 23 -18q-10 -31 -39 -26l26 -230q-17 -6 -18 -23q31 -8 25 -39q21 0 24 -19l21 3q-16 66 83 9q12 55 60 28q45 70 23 -18l40 26
l14 -125q42 -21 33 -102q89 30 130 -28q30 24 63 8l-5 41q34 -12 53 -36q103 54 165 -23l21 2q-30 63 -14 119q-31 45 -10 90q-58 27 -31 81l-44 16l-2 21l-15 125q-28 4 -25 32q29 49 11 93q-89 28 -55 114q-40 16 -13 111q-32 8 -26 39q-55 -14 -28 60q-59 -7 -49 58
l-42 -5q1 21 19 24q-8 44 12 79q-49 2 -48 43q-16 3 -22 12l18 23q-68 59 -13 111q-23 30 -7 63q-31 8 -25 39q-49 12 -49 58q-64 30 -75 97q-61 -14 -88 32l-21 -2q8 -61 -19 -23q-47 -9 -53 36q-43 -25 -84 -10q-27 -75 -55 -6q-43 -42 -44 16l-21 -3q-21 -37 5 -41z
M608 1159q31 14 -2 21zM530 1108l-3 21q29 -8 3 -21zM377 963q-6 -33 -21 -2zM433 843q56 -26 72 -76q-62 -3 -69 55q-64 30 -75 97q78 1 72 -76zM250 779l-2 21q29 -7 2 -21zM575 711q23 -132 -11 -86q-49 12 -49 58l-21 -2q-9 52 18 86q33 -42 63 -56zM225 629l5 21
q23 -12 -5 -21zM579 500q30 15 -3 21zM31 120q3 34 -26 39q-3 -34 26 -39zM638 169l-2 21q29 -7 2 -21zM35 78q78 -18 -2 21zM739 -158q31 15 -2 21zM993 -340l-3 21q29 -7 3 -21zM1097 -328l-2 21q29 -7 2 -21zM977 -384q-20 29 -47 37q20 -29 47 -37zM1146 -385
q31 13 -2 20z" />
    <glyph glyph-name="B" unicode="B" horiz-adv-x="1250" 
d="M199 1550q99 -2 21 42zM178 1550h-21q-41 -117 21 0zM241 1529h-21q10 -32 21 0zM304 1508q-3 19 -21 21q3 -19 21 -21zM311 1445q-39 -20 -70 0q-59 -89 -147 -42q24 55 0 105h-35h-7h7h-7q20 -32 0 -63l42 21q6 -30 -21 -42q9 -66 -63 0v-21q73 -25 42 -84
q40 -22 -21 -21q2 57 -63 42q19 -44 63 -42q23 -77 0 -126q46 -17 42 -63q-48 32 -42 -21q127 44 105 -126q39 5 63 21q14 -80 -42 -42q16 -31 42 -42v-35q-22 -89 -21 -147l42 -14q-28 -52 -21 -98q-47 -31 0 -70q-7 -11 -21 -14v-77q29 -31 21 -70h42q-34 -93 -21 -189h21
q-3 -20 -21 -21q26 -56 0 -91q26 -39 21 -77h21q-3 -20 -21 -21q19 -31 21 -63q81 -12 84 -84h21q-7 32 21 42v-168h42q-19 164 42 147q-2 50 42 42v42q55 4 21 -42q19 3 21 21q64 -17 105 -21q-12 47 21 63v-42q35 0 49 21q37 -22 70 -21q84 34 154 0v21h28q39 26 77 21
q12 30 42 21q25 -46 63 -63v-168q70 -38 84 28v77q-68 40 -42 168q53 32 77 84q35 82 7 161q3 40 21 70q-47 28 0 84q-30 12 -21 42l-21 7v56h-21v42q-74 44 -105 105h-42v63h42v42h42v42h21v28q40 62 42 119q28 11 21 42q-16 4 -21 14q11 7 21 7v56v21v91q-36 18 -21 63
q-34 15 -42 42q-73 8 -105 63h-63v21q-64 -15 -84 21h-28h-119h-21h-84q10 -64 -42 -84v84q18 4 21 21q-90 -32 -126 21q-55 -27 -105 -21q-3 49 -42 63q35 -46 -21 -42q-2 -21 -21 -21q38 81 -21 105q34 -125 -35 -84zM262 1487h-21q11 -32 21 0zM283 1466q32 10 0 21v-21z
M136 1424q60 21 21 42zM248 1424q13 -27 -7 0h7h-7h7zM451 1424q-11 -28 -21 0h21zM73 1361l7 21q20 -15 -7 -21zM94 1340l7 21q21 -15 -7 -21zM241 1361q-11 -32 -21 0h21zM136 1319v21q28 -10 0 -21zM136 1319q-10 -28 -21 0h21zM192 1277l-56 -49q-42 -32 -42 28
q60 5 70 63q47 0 28 -42zM661 1256v21q25 16 28 42q44 -58 -28 -63zM52 1256v21q28 -11 0 -21zM1207 1256q-11 -32 -21 0h21zM703 1235q14 -81 -42 -42l21 42h21zM178 1193q-7 -32 21 -42q-33 -74 -42 0q-50 1 -63 42h84zM10 1172q-3 19 -21 21q3 -19 21 -21zM94 1172
q-10 -32 -21 0h21zM703 1130q127 1 126 -84h21q35 -201 -126 -231q-10 -29 -21 0q-41 17 -42 56q26 2 42 -14q-20 32 0 63q-73 55 -21 161q-35 42 -21 91q32 -15 42 -42zM-11 1130q32 10 0 21v-21zM122 1130q49 -55 98 -21q-1 -50 -42 -63q-22 -40 -21 21q-44 22 -42 63h7
h-7h7zM94 1046h-21q11 -32 21 0zM185 1025h35q-9 -78 -42 0h7h-7h7zM178 1004q-11 -33 -21 0h21zM241 983v21q28 -10 0 -21zM227 983q35 -39 -7 -63v63h7h-7h7zM682 815q-10 -28 -21 0h21zM682 668h-21q7 64 21 105q39 -5 0 -105zM682 605q55 -20 21 -84q29 14 21 42
q49 12 63 -21q49 10 70 -84q11 -31 -7 -63q38 -22 0 -42q-1 -49 -42 -70q-63 -31 -63 -77h-42q7 -32 -21 -42q3 -19 21 -21q-7 -18 -21 -28v-35q36 -18 21 -63h-21q-4 -62 -63 -63q5 37 21 63h-21q15 32 42 42v28v21v140l42 28l-21 21q36 61 0 112l21 28q-62 44 -42 210
q29 -13 21 -42zM325 -109v21q28 -10 0 -21z" />
    <glyph glyph-name="C" unicode="C" horiz-adv-x="1179" 
d="M557 1221v-21q-53 0 -84 21v-21h-98q-42 -35 -91 -21q-17 -47 -63 -42q2 -50 -42 -42q-17 -47 -63 -42q0 -51 -42 -63q0 -51 -42 -63q3 -19 21 -21q-3 -20 -21 -21q9 -102 -21 -175q24 -34 0 -56q40 -7 0 -70l21 -35q-35 -19 0 -63q-54 -40 0 -119q-52 -53 0 -91
q-3 -20 -21 -21v-21q30 -12 21 -42q16 -4 21 -14q-2 -25 -21 -35v-161h21q5 -63 63 -63v-42h-42q1 -51 -21 -84l84 21q11 -28 42 -21q2 -51 21 -84q35 -2 56 -21q16 35 112 -7q24 -36 63 -35v-21q52 28 84 0q11 29 21 0q32 20 63 0v21h21q-1 40 14 63l28 -63q35 0 49 21
q40 -23 77 -21v42q146 7 210 105q39 7 63 21q4 38 21 70q-12 79 21 133q-6 59 21 105q31 39 42 70h-21q-21 77 -84 84v21q-156 -66 -294 0q-12 -30 -42 -21q-27 -83 -63 -105q3 -19 21 -21l-21 -35q22 -36 0 -63q34 -33 0 -70q21 -2 21 -21l-42 -28q19 -24 21 -56
q-50 32 -63 84h-35q-85 109 -49 231l-21 35l21 28q-30 12 -21 42q3 20 21 21q-29 59 0 91l-21 28q3 49 21 77l-21 21l21 56q0 44 -21 77q-7 48 21 77q-24 34 0 56q-30 12 -21 42q55 27 105 21v98q-31 84 -21 154h21q0 -44 21 -77l-21 -28h21v-182l21 -7q-7 -32 21 -42
q-3 -20 -21 -21q48 -69 21 -126q30 -12 21 -42q49 -1 70 -42q54 30 112 21q19 21 49 21v-21q31 24 49 0q23 27 42 0q24 19 56 21v21h21q4 37 21 63q-25 46 0 70q-38 55 21 77v21q-47 17 -42 63q-99 8 -63 84q-30 12 -21 42q-63 3 -63 63h-63q-50 69 -126 63v21
q-73 8 -105 63h-42q-13 -29 -42 -21zM599 1116q-4 58 7 105q50 -65 -7 -105zM914 591v21q28 -10 0 -21zM494 423q-11 -33 -21 0h21zM641 -123q52 -137 -21 -126q7 18 21 28q-28 50 -21 98h21zM116 -165v21q28 -10 0 -21zM956 -228v21q28 -10 0 -21zM242 -291v21
q28 -10 0 -21zM641 -291v21q28 -10 0 -21z" />
    <glyph glyph-name="D" unicode="D" horiz-adv-x="1115" 
d="M41 1423q36 -45 -21 -42q28 -32 0 -42l21 -28q-7 -11 -21 -14q22 -94 0 -147q32 7 42 -21h-21q7 -32 -21 -42q28 -52 0 -84q29 -11 0 -21q20 -32 0 -63h42q-13 -29 -42 -21v-21h21q-3 -20 -21 -21q40 -102 0 -105q20 -32 0 -63l42 -7l-7 -14q-28 2 -35 -21q29 -10 0 -21
q20 -32 0 -63h21q15 -76 -21 -112v-35q69 -52 0 -105q8 -27 42 0v-42h-21v-84h-21q-10 -81 21 -140l-21 -21l21 -21l-21 -28h21q19 -99 119 -84q7 -10 7 -21q58 28 98 0l14 21q11 -7 14 -21h42v21h42q23 39 84 21q6 19 21 28v119q35 -17 21 -147q47 8 70 -21q52 44 161 0
q17 47 63 42v42q64 9 105 21v21q63 5 63 63q113 23 84 168q75 49 42 147h42q-14 29 -42 21v28v21v28v126v28v28v21v28v119v21v84q7 11 21 14l-21 42q49 -1 42 42q-36 18 -21 63q-53 18 -21 63q-52 26 -42 84l-84 21q-71 101 -182 126q-7 10 -7 21l-42 -21q11 59 -84 21
q-29 69 -147 21q32 -66 0 -119l21 -28q-3 -20 -21 -21l21 -28v-161q-49 2 -42 -42q58 27 63 84q159 -35 147 -189q33 -19 28 -84h14h-14h14q-21 -51 -42 -84q21 -2 21 -21v-35q-11 -7 -21 -7q21 -47 0 -91q35 -52 0 -98q50 -33 0 -70q35 -51 0 -98q21 -2 21 -21h-21
q-33 -129 -168 -126q-2 -21 -21 -21q-7 -34 21 -42q-3 -20 -21 -21q19 -31 21 -63q-60 32 -42 105l-21 7v56q-16 92 21 133v35l-21 7q3 32 21 49q-21 16 -21 42q1 22 21 28l-21 42l21 14v28q-23 95 0 168q-16 4 -21 14l21 14q-28 52 0 91l-21 7v217q-17 97 21 119v77v21v21
v91q-71 -10 -119 21q-24 -26 -49 0v-42q-33 16 -49 42q-48 -35 -84 0q-40 -35 -56 0h-42q-15 -34 -42 -42zM209 1402v21q28 -11 0 -21zM356 1423q-10 -32 -21 0h21zM398 1402v21q28 -11 0 -21zM608 1402v21q28 -11 0 -21zM713 604v21q28 -11 0 -21zM41 562l7 21
q21 -15 -7 -21zM713 520l7 21q21 -15 -7 -21zM440 121v21q28 -10 0 -21z" />
    <glyph glyph-name="E" unicode="E" horiz-adv-x="1039" 
d="M128 1357q33 -63 -42 -63q19 -36 42 -56q-10 -7 -21 -7l21 -35q-10 -7 -21 -7q13 -47 -21 -63q2 -51 21 -84h-21q28 -32 0 -42q22 -39 21 -84q-43 -19 -42 -63h-21q21 -48 0 -84q32 7 42 -21h-21v-154q25 -33 21 -70q-20 -48 -21 -91l42 -21q-12 -31 -42 -21
q23 -43 0 -77l21 -7q-3 -20 -21 -21q-15 -83 21 -105v-35l-21 -14q0 -55 21 -98h-21q-6 -45 21 -70q-23 -79 0 -140q34 -16 49 -42q45 9 56 -21q32 20 63 0q50 70 112 21q38 36 56 0q47 13 63 -21h21q9 75 42 0h42q22 54 84 21v21q29 -13 21 -42q32 7 42 -21q61 -10 91 21
l21 -21q11 9 14 21q55 -23 105 0v42l42 -21q12 46 42 63q-3 19 -21 21l21 35q-21 40 0 70q-26 56 -21 105q32 -6 42 21q-39 -5 -63 -21v42q-103 -19 -63 42l-63 -42q-28 45 -77 0q-43 39 -84 0q-7 10 -7 21q-126 6 -210 -21q-15 88 42 126q-7 32 21 42q-19 31 -21 63
q20 -3 21 -21q109 56 147 0h56q50 42 105 42q43 38 91 42v63h21q0 51 42 63v42q-36 18 -21 63q-18 7 -28 21l-28 21q-114 -14 -196 21h-49l-35 -21v21q-51 -1 -84 21q-23 -46 -63 -63q-34 83 0 84l-21 42q32 -7 42 21q-32 -7 -42 21q61 47 105 21l-21 42q61 -11 105 -42
q-8 56 63 21q3 66 168 21v-21q32 20 63 0q-2 50 42 42q15 34 42 42q-27 59 0 105l-42 21q15 32 42 42q-3 19 -21 21q41 106 -63 126v42q-19 -3 -21 -21q-79 38 -147 0v42q-30 -25 -49 0q-26 -65 -49 0q-62 -59 -70 21q-51 -20 -84 0q-25 -56 -21 -105h-21v84q-47 -13 -63 21
q-62 -47 -63 21q-98 -47 -189 -21v21h-42q-13 -29 -42 -21zM177 1357q16 -29 -7 0h7h-7h7zM506 1315q-22 -41 -42 0h42zM821 1273q-20 3 -21 21q19 -4 21 -21zM527 1252q-11 -33 -21 0h21zM534 1231q20 -32 -7 0h7h-7h7zM527 1210q50 -261 -21 -189q18 32 0 56l21 21
q-38 47 -21 112h21zM527 937q63 -47 -21 -84v21v126q53 -18 21 -63zM632 916q-20 3 -21 21q20 -3 21 -21zM639 916q20 -32 -7 0h7h-7h7zM65 832l7 21q21 -15 -7 -21zM527 664q-11 -33 -21 0h21zM506 622l28 21q33 -99 -28 -21zM527 454q21 -2 21 -21h-42v21v126
q70 -51 21 -126zM527 391v21q28 -10 0 -21zM527 391q-11 -28 -21 0h21zM107 223q-20 3 -21 21q20 -3 21 -21zM968 139q71 7 0 42v-42zM506 34v63q49 -33 0 -63zM548 13q14 -81 -42 -42l21 42h21zM527 -113q13 -47 -21 -63v126q73 -28 21 -63zM758 -239v21q28 -10 0 -21z" />
    <glyph glyph-name="F" unicode="F" horiz-adv-x="1040" 
d="M122 1352q-63 -5 -63 -63h-21v-105q22 -5 21 -28l-21 -42l21 -28q-19 -18 -21 -35q-8 -43 21 -56q-3 -20 -21 -21q-13 -91 21 -161q-11 -7 -21 -7q19 -53 0 -105q26 -1 42 -14q-10 -7 -21 -7q15 -64 -21 -84q3 -19 21 -21q-4 -19 -21 -21q-7 -34 21 -42q-25 -41 0 -77
q-34 -42 -21 -84q16 -35 21 -63l-21 -21l21 -7v-63q-9 -60 21 -91q4 -31 -21 -35q14 -22 14 -42q-13 -6 -14 -14q35 -31 -21 -28q22 -39 21 -84h21q-13 47 21 63q-22 -109 42 -147v-42q51 1 84 -21v21q81 -42 126 21q59 4 84 42h21q-2 50 42 42q-7 32 21 42v42h-42
q-4 55 42 21q-52 95 42 105q-19 31 -21 63l42 -21q-19 76 -84 84q-19 104 42 63q-25 45 -63 63q-9 71 21 119q-54 68 0 154q-39 25 -21 105q52 -19 21 -63q60 -45 0 -84v-84q47 -28 0 -84q70 -7 119 21q7 -10 7 -21q31 19 63 21l21 -42v-210h21q-13 47 21 63v28v21v140
q20 -3 21 -21h21v21q56 -4 105 21q84 47 42 189h-21q5 37 21 63q-47 17 -42 63q-24 -9 -21 -28q-32 -19 -21 49q-192 -89 -84 63q-59 -1 -42 63q66 15 63 -42h21q-4 57 42 21q14 74 84 63q2 21 21 21q17 54 0 77q10 7 21 7v21v84q52 27 42 84q18 4 21 21h-21q0 74 -63 42v42
q-127 -37 -231 0q-13 -30 -42 0q-22 -38 -42 0q-37 -21 -70 0q-48 -37 -98 -42q-25 54 -77 63q-28 -41 -133 0q-45 -60 -84 0q-32 -20 -63 0v-21zM248 1310q-20 3 -21 21q20 -3 21 -21zM521 1289q-5 -37 -21 -63h21v-189q-18 -4 -21 -21v-63q37 -4 63 -21q66 41 126 42
q-7 -32 21 -42v-210q-45 -7 -70 21q-67 -44 -98 21h-21q7 -32 -21 -42l-21 28v140h-21q-17 135 42 217v77q-51 35 0 105h21zM815 974q-11 -71 -21 0h21zM773 953q-11 -32 -21 0h21zM752 869q32 11 0 21v-21zM752 743q-10 -28 -21 0h21zM66 281q20 -32 -7 0h7h-7h7zM542 197
q-10 -28 -21 0h21zM521 155q-11 -32 -21 0h21z" />
    <glyph glyph-name="G" unicode="G" horiz-adv-x="1125" 
d="M508 1235q36 -48 0 -84q26 -39 21 -77q-77 48 -21 119q-29 31 -21 70q-80 -55 -140 -21q-21 -28 -42 0q-40 -21 -70 0v-21h-42q-33 -60 -84 -84v-42h-42q-21 -76 -21 -126l-42 -21q9 -64 21 -105l-21 -42q29 -69 0 -126h21v-231l21 -7q-7 -11 -21 -14l21 -42l-21 -7
q1 -56 -21 -98h21v-21q20 -32 21 -70q-10 -55 21 -84q-35 -74 -21 -161l42 -21v-42l42 -21q83 -111 210 -105v-42q32 7 42 -21l28 21q52 -28 98 -21v77v35v21v28v21v140q-17 21 -21 49q21 65 0 112h-21q-15 27 -42 28l7 14q28 -2 35 21q-26 1 -42 14q5 41 42 7q-7 32 21 42
q-8 64 -21 105h21q4 37 21 63q-20 32 0 63h-21q-15 90 21 161l-21 7v21v28v21v140h21q-22 47 0 84h21q15 -75 -21 -112v-35q21 -47 0 -84q79 44 63 126h21q15 34 42 42q-27 -99 0 -168q39 6 63 21q7 -39 21 -63q89 46 161 0l28 42q86 -31 147 -42v21q63 5 63 63h21
q-44 51 -42 105q-36 18 -21 63q-39 23 -21 84q-59 26 -63 84q-64 9 -84 63q-51 0 -63 42q-19 -3 -21 -21l-21 7l-7 14q-31 -4 -35 21q-51 -1 -84 21q-45 -60 -84 0q-32 -20 -63 0q-1 -34 -21 -49zM487 990v84q79 -47 0 -84zM550 864q-10 -32 -21 0h21zM1012 759v21
q28 -10 0 -21zM46 654v21q28 -11 0 -21zM571 633q-3 -20 -21 -21q-2 -35 -21 -56q35 -42 21 -91h-21q-16 -151 84 -168v-21q31 19 63 21v-147q4 -51 -42 -42q-18 -54 -105 21q50 -71 0 -105q22 -34 0 -56q42 -75 0 -119q46 -49 0 -77v-84q29 14 21 42q66 15 63 -42
q94 31 105 105h21q5 -63 63 -63v-21h56q52 48 175 0v21q64 5 84 84q-21 2 -21 21q35 17 21 63q-21 2 -21 21q18 4 21 21l-42 21q5 37 21 63h-42q15 32 42 42q-6 39 -21 63h21q-22 47 0 84q-30 12 -21 42q-21 2 -21 21l42 21q4 71 -21 126q28 8 0 84l21 14q-57 8 -21 49
q-21 2 -21 21q-47 -8 -70 21q-33 -36 -119 0q-15 -34 -42 -42q-40 56 -126 21q-31 48 -84 63q5 -56 -42 -21zM592 570l7 21q61 -14 -7 -21zM445 423v21q28 -10 0 -21zM466 339q-31 -7 -42 21q32 8 42 -21zM592 108q32 10 0 21v-21zM697 -228q-20 3 -21 21q20 -3 21 -21z
M760 -228v21q28 -11 0 -21z" />
    <glyph glyph-name="H" unicode="H" horiz-adv-x="1175" 
d="M118 1247q-74 0 -42 -63h-42q3 -19 21 -21q-40 -60 0 -84q-33 -55 0 -91q4 -31 -21 -35q29 -66 -21 -112l21 -35q-25 -10 -21 -35l21 -42q-10 -7 -21 -7q20 -32 0 -63q50 -32 0 -63q-7 -34 21 -42q-28 -57 0 -105q-34 -17 -21 -56q-15 -68 21 -91q8 -34 -21 -42
q22 -47 0 -84l21 -7q-7 -11 -21 -14l21 -35q-10 -7 -21 -7q3 -19 21 -21q-3 -20 -21 -21q28 -52 0 -84q23 -81 0 -133q9 -11 21 -14q-7 -18 -21 -28q18 -16 42 -21l-21 -35q64 -9 84 -63h21h98q77 33 147 21l7 21q32 -15 42 -42h42q12 30 42 21q2 21 21 21v21q-32 -7 -42 21
h63v28v21v140l-42 21l21 42q-50 -2 -42 42q54 -35 21 21h42q-14 29 -42 21v84q-22 5 -21 28q7 11 21 14v21v28v21v140q36 -17 21 -147h21q15 81 21 -21q86 21 84 -42h21q-56 -194 21 -252q-13 -29 -42 -21v-84q47 -28 0 -84q19 -31 21 -63q51 0 63 -42q19 3 21 21h56
q50 -38 98 -21q44 30 77 0q1 34 84 0q-1 59 63 42v28q22 37 21 70q-20 50 0 91q-38 22 0 42q-43 58 0 84v42q-30 12 -21 42q-21 2 -21 21h42q-3 19 -21 21l21 42q-4 19 -21 21q-8 34 21 42q-20 32 0 63q-42 21 0 56l-21 28q22 10 21 28q-40 42 0 140l-42 7l21 21
q-38 38 21 35q-22 34 0 56q-29 31 -21 70q-64 53 21 21q-31 59 0 105q-30 13 0 42q-47 28 0 84q-47 -13 -63 21q72 -1 42 126h-42v42h-77q-42 34 -84 21q-19 -21 -49 -21l-21 42q-59 -31 -105 0q-12 -30 -42 -21q-2 -21 -21 -21q23 -43 0 -77l21 -21l-21 -42q26 -24 0 -49
q21 -2 21 -21q-45 -79 0 -133q-33 -52 0 -98q-45 -35 -42 -84q-53 0 -84 21q-2 -21 -21 -21q-1 26 -14 42l-28 -21q14 -29 42 -21q-13 -29 -42 -21q3 -57 42 -84q-28 -57 0 -105q-31 -19 -63 -21q3 57 -21 98q10 7 21 7q2 99 -21 168q26 1 42 14q0 24 -21 28q-8 34 21 42
q-3 19 -21 21q-8 34 21 42q-3 19 -21 21q4 38 21 70l-21 21q7 11 21 14v21v21v140v28q-21 2 -21 21q-45 -36 -42 21h-21q-32 -20 -63 0v-42q-55 -4 -21 42q-91 -84 -119 0q-7 -44 -42 -42q-7 10 -7 21q-45 -36 -42 21h-42v-21zM1126 1016q-10 -32 -21 0h21zM1126 890
q-10 -32 -21 0h21zM643 722q32 10 0 21v-21zM559 638v21q28 -11 0 -21zM1126 554v21q28 -10 0 -21zM1126 533q-10 -32 -21 0h21zM34 491v21q28 -10 0 -21zM559 365v63q49 -33 0 -63zM559 281h-21q10 -68 21 0zM517 113q-11 -33 -21 0h21zM34 -160v21q28 -11 0 -21z" />
    <glyph glyph-name="I" unicode="I" horiz-adv-x="585" 
d="M338 1206q-38 -36 -56 0q-66 -33 -84 21q-43 -23 -77 0q-36 -33 -70 -42l21 -42h-42q15 -64 -21 -84q20 -32 0 -63q51 0 63 -42q-38 -6 -63 -21q26 -60 0 -119q50 -63 0 -133q51 -35 0 -105q55 -39 0 -126q40 -20 0 -63q61 1 21 -21q8 -47 -21 -70q20 -43 0 -77
q60 -45 0 -84q53 -77 21 -147q30 -12 21 -42q21 -2 21 -21h-21v-77q-37 -49 -21 -105q41 -28 42 -70q119 -45 168 21h42v-21q50 0 63 -42h21q-18 32 -21 63l105 -42q0 114 28 21l35 21v21q-34 -7 -42 21q-12 49 21 63q-29 45 21 70q-21 18 -42 14q13 29 42 21q-43 58 0 84
q-19 53 0 105q-41 16 -42 56q10 49 42 77q-1 43 -42 35q3 20 21 21q-17 81 21 105q-21 37 0 77q-25 19 0 35q-23 25 0 49q-35 42 -21 91h-42q24 52 0 84q60 -7 84 42q-32 -18 -63 -21q11 46 -21 63q-2 45 21 77q-14 53 21 70q-22 47 0 84q-16 4 -21 14q34 45 21 91h-21
q3 86 -84 105q3 -53 -49 -42zM37 933q61 -14 -7 -21v21h7h-7h7zM30 807q4 37 21 63q53 -37 -21 -63zM597 723q-3 19 -21 21q-36 -55 21 -21zM51 660v21q28 -11 0 -21zM555 681q-34 -21 -63 0q32 -66 63 0zM72 597q-10 -32 -21 0h21zM72 492q-10 -32 -21 0h21zM450 408
q-10 -32 -21 0h21zM387 387q-11 -32 -21 0h21zM366 324q13 29 42 21v21q85 -48 -42 -42zM366 282v21q28 -11 0 -21zM492 -264q32 10 0 21v-21zM282 -306v21q28 -11 0 -21zM408 -285q-10 -32 -21 0h21z" />
    <glyph glyph-name="J" unicode="J" horiz-adv-x="1735" 
d="M1013 1635q9 -68 -21 -112v-49l-21 -7l21 -28l-21 -14l21 -35q-51 10 -84 42q32 -38 -21 -56q101 -19 21 -28v-21q59 1 42 -63h-42q27 75 -21 0h-42l21 42q-32 -18 -63 -21l21 42q-32 -18 -63 -21v21q-219 22 -231 -84h-21q14 -29 42 -21q-13 -29 -42 -21
q36 -110 -21 -133q29 -129 -21 -161q50 -72 21 -119l21 -7q-7 -32 21 -42q10 -59 -21 -91q-2 -28 21 -35q-25 -58 -21 -112q42 -57 42 -119h-21q-8 -51 -42 -77q150 -131 42 -91q16 -31 42 -42q-21 -51 -42 -84q-28 14 -28 42q-20 -29 -14 -63h-14q-29 28 -28 63l-42 -21v28
v35q-39 23 -21 84h-42q-5 64 -84 84q-2 -21 -21 -21q-24 37 -84 21v-42q-122 76 -147 -42h-21q14 -44 42 -63v-168l21 -7l7 -35l14 -7q19 -60 42 -98h21q7 -39 21 -63q45 3 77 -21q17 22 91 0q-36 -57 42 -42q10 -28 28 0q39 -33 35 21q45 -12 63 -42h21q18 36 63 21
q2 21 21 21q1 -26 14 -42h28q11 73 21 0h21q35 99 42 21q76 36 84 -42h42q12 46 42 63q-7 62 42 84q-7 32 21 42v-336q19 3 21 21q2 58 42 84v84q3 20 21 21v21v28v28v28v28v119v21v84q65 1 42 -84q35 19 21 63h21v-252q24 9 21 28v35v21v28v21v140q29 13 42 35q-20 45 0 91
q23 -14 42 -7l-21 7q22 42 21 84h84q-35 45 -84 42q3 20 21 21q-12 47 21 63v-14q6 -53 63 14q-52 0 -84 21q22 42 21 84h-42q22 42 21 84h-42q1 34 21 49q-70 108 21 119q-20 32 0 63q-54 33 -21 84h21q-41 82 84 21q-3 19 -21 21q20 40 21 84q-35 -4 -56 -21q-20 21 -49 0
v84q31 -12 21 -42q77 70 63 0h21q-7 31 21 42v-28q23 -34 0 -56h84v21q-106 17 -21 126l-42 7q7 12 21 14q-26 59 -84 21q-4 19 -21 21q35 -46 -21 -42q-7 -28 -35 -21q-8 37 14 63h21q-14 29 -42 21v35v21v28v21v140q-10 246 -21 7q-40 25 -21 91v119h-21q-5 -172 -21 -42
l-21 -7v-112q-10 -7 -21 -7v-168h-42v28v217v21q8 39 -21 49q4 76 -7 126h-14h14h-14v-238zM1160 1642v-203q-10 -7 -21 -7v21v28v21v140h21zM1202 1390q-10 -71 -21 0h21zM971 1327v21q28 -10 0 -21zM1076 1306v21q28 -11 0 -21zM992 1222q-20 3 -21 21q20 -3 21 -21z
M1349 1159v63q48 -32 0 -63zM1307 1201q-11 -32 -21 0h21zM1244 1159v21q28 -10 0 -21zM1433 1159h-21q10 -32 21 0zM1055 1096v21q28 -11 0 -21zM1118 1117q-10 -32 -21 0h21zM1055 1054v21q28 -11 0 -21zM1286 1033q-20 3 -21 21l28 21q28 -25 -7 -42zM1034 1054
q-10 -71 -21 0h21zM1223 1033v21q28 -10 0 -21zM1391 1012q75 5 21 42zM551 1033q-11 -32 -21 0h21zM1097 970v63q49 -33 0 -63zM1433 991h-21q10 -32 21 0zM992 928l21 42q54 -37 -21 -42zM1370 928v21q-51 -20 -84 0q-10 -60 84 -21zM1034 886q-20 3 -21 21q20 -3 21 -21z
M1286 886h-21q11 -32 21 0zM1328 865q32 11 0 21v-21zM992 844v21q28 -11 0 -21zM1517 844q68 10 0 21v-21zM1307 844h-42q36 -71 42 0zM1559 823h-21q10 -32 21 0zM1223 781q32 11 0 21v-21zM1265 697q34 21 63 0q-21 39 -21 84h-21q0 -52 -21 -84zM1328 739q68 11 0 21
v-21zM1517 739q32 11 0 21v-21zM1391 697h-42q36 -71 42 0zM1496 676q32 10 0 21v-21zM1265 655q68 11 0 21v-21zM1202 613v21q28 -10 0 -21zM1328 592q-12 -31 -42 -21q34 -54 105 63q-72 -66 -63 0q-32 -20 -63 0q0 -57 63 -42zM1727 571q32 11 0 21v-21zM1055 550v21
q28 -11 0 -21zM1202 508v63q48 -34 0 -63zM1370 529q-3 19 -21 21q3 -19 21 -21zM1580 550h-21q11 -68 21 0zM1307 508q75 -27 0 21v-21zM1097 466v21q28 -11 0 -21zM1244 487q-10 -32 -21 0h21zM1223 466q-11 -28 -21 0h21zM1412 424q32 10 0 21v-21zM1664 424q68 10 0 21
v-21zM1013 424q-11 -32 -21 0h21zM1118 424q-10 -32 -21 0h21zM1202 403q-10 -32 -21 0h21zM1055 382q-11 -32 -21 0h21zM1391 340q60 21 21 42zM1202 340v21q28 -10 0 -21zM1601 361h-21q10 -32 21 0zM1013 319q-20 3 -21 21q20 -3 21 -21zM1118 340q-10 -32 -21 0h21z
M1202 340q-9 -71 -21 0h21zM40 277q-11 7 -14 21q35 0 49 21q29 -48 -35 -42zM509 298l7 21q21 -15 -7 -21zM1244 256l42 -21q-21 39 -21 84h-21v-63zM1034 256l21 42q54 -37 -21 -42zM1181 298q-12 -71 -21 0h21zM1118 277q-10 -32 -21 0h21zM5 235l7 21q21 -15 -7 -21z
M1062 193q-38 -40 -28 42q41 -10 28 -42zM1118 193q-10 -71 -21 0h21zM467 172q-3 19 -21 21q3 -19 21 -21zM1139 151v21q28 -10 0 -21z" />
    <glyph glyph-name="K" unicode="K" horiz-adv-x="1747" 
d="M1368 1813q24 8 0 16v-16zM1420 1798q24 8 0 15v-15zM1353 1777q25 12 0 21v-21zM1399 1798h-15q8 -33 15 0zM1472 1798h-20q10 -35 20 0zM1488 1761q62 8 0 16v-16zM1556 1777h-16q8 -24 16 0zM1368 1746q-2 14 -15 15q2 -14 15 -15zM1301 1725q25 12 0 21v-21z
M1280 1725h-16q8 -51 16 0zM1608 1709l-6 16q-27 -18 -46 0q15 -39 52 -16zM1795 1709q32 8 0 16v-16zM546 1709h-21q13 -25 21 0zM562 1673q31 18 0 36v-36zM666 1709h-21q11 -65 21 0zM1436 1709h-16q8 -23 16 0zM1488 1673q-11 32 -36 36q-5 -42 36 -36zM1644 1709h-21
q12 -25 21 0zM1727 1673q-8 28 -31 36q10 -27 31 -36zM1779 1673q32 18 -15 36zM1228 1673q35 11 0 21v-21zM1301 1657q47 19 15 37zM1675 1673q1 18 -15 21q-1 -18 15 -21zM546 1657q-30 3 -52 16q24 -56 52 -16zM1384 1642h-16v-52q-62 -13 -93 15q-57 -27 -115 -15v-37
l-31 -21q-10 -10 -21 -10q-19 -52 -67 -52q-2 -16 -16 -16q-14 -43 -52 -52q-8 -33 -37 -36v-36h-31q-10 -29 -36 -32q-24 -49 -68 -67v-21h-36q-17 -36 -47 -52v-31q-32 -9 -36 -37h-37v21v21v16v20v94l21 5v26q-17 7 -21 21h37q-10 23 -37 16q1 22 21 20q-7 18 -21 16v16
v20v16v104q18 0 21 16q-21 23 -21 52h-15h-105v-260q28 -3 21 -32l16 -5q-8 -34 15 -47v-88h16v-193q10 -9 21 -10q-11 -51 16 -68v-161q19 -30 15 -62q35 -8 21 -52q76 1 31 -16v-21q30 6 37 -15q-9 -21 -37 0v-37q41 0 52 37q19 32 16 -32q-8 -5 -16 -5q4 -42 -31 -15
q46 -52 0 -84q24 -42 -21 -52v-20h21q23 -41 68 -32q-10 -32 -37 -36q15 -29 0 -52q55 0 52 -52q40 38 37 -16q88 34 52 -15q37 28 31 -21q15 -2 15 -16q-63 27 -31 -15q25 -5 31 15q73 -39 105 16l36 -16v16q-29 13 -36 36q43 2 52 -36q35 17 36 52q70 -52 31 0q22 2 21 21
q70 5 83 -73h31h162h73h15h26h16h21h15h104v36q-9 23 -31 16v36q-52 19 -52 68q-41 10 -36 52q-24 13 -52 16q-3 28 -16 46q-34 24 -36 58q-37 15 -32 52q-43 14 -52 52q-52 18 -52 67q-31 11 -36 37h88q13 -51 32 -21q-51 26 -53 73q34 -2 53 -21q23 41 20 78q6 8 16 10
q2 -102 16 -36h15q23 -36 5 36q45 -4 68 32q-27 -13 -52 -16q11 27 31 36l-15 32q30 -7 36 20q-51 -11 -68 16q14 3 16 16q55 -25 52 36q-18 0 -21 -16q-22 10 -15 32h-16q10 -39 -16 -52q-10 67 -20 0q16 -1 20 -16q-18 0 -20 -16q49 -18 36 -72q-25 19 -52 20
q11 51 -16 68q17 25 0 47l16 21h-104q5 -24 -16 -32q0 20 -10 32l-5 -32q-19 -1 -21 16q-88 -34 -52 16q-25 -15 -52 -16q6 17 21 16q-15 27 -37 36q24 -38 -15 -52q28 -38 -16 -36q29 -37 -21 -32q-10 -35 -15 6l15 26q-84 -30 -31 52h-5h5h-5q-34 -27 -31 15
q-37 -28 -32 21q-16 0 -20 16l20 10l32 5q14 43 52 52q18 52 67 52q17 40 52 52q21 49 68 52q26 42 67 52q3 -32 21 -52q-17 0 -21 -15h37q-3 38 36 31q0 17 16 21q0 -41 -16 -73q18 7 16 21q27 -26 47 0q13 -25 36 -21v-52q48 -8 21 42q-23 29 -52 31v15q39 11 52 -15
q44 1 16 -37q38 14 36 52h-36q21 60 36 16h21q10 -17 -5 -31q24 -20 52 -21q0 43 -37 52v36q29 6 37 -15q38 23 52 -21h15v36q-75 10 16 32v20h-31q-21 -51 -37 32l37 -16q-5 29 15 36q4 -14 16 -20v104q34 -10 21 -52h15q1 29 16 46q-42 7 -16 42q-29 -5 -36 16
q30 -6 36 15h-52v-31q23 -9 16 -36l-31 15q15 -23 10 -47h-10h10h-10q-8 17 -21 16q15 103 -68 68v52h16q19 -18 36 -16q-14 24 -15 52q-21 -18 -42 -21q-14 18 -10 37q-39 -30 -37 15q-39 -10 -52 16h-47q-15 -28 -52 -16q-17 -32 -41 16h-11q-33 -113 -36 -31zM593 1642
q45 -63 21 0q14 3 16 15h-16q-6 -18 -21 -15zM1779 1657h-15q7 -23 15 0zM1452 1626q-40 -77 -26 16zM1504 1626v16q33 -7 0 -16zM1608 1642q-9 -23 -16 0h16zM718 1605q-12 31 -36 37q-5 -43 36 -37zM1264 1642q-27 -17 -52 0q27 -60 52 0zM1316 1642h-15q7 -62 15 0z
M1847 1626q29 -6 36 16h-36v-16zM1504 1626q-8 -34 -16 0h16zM1524 1605l6 21q50 -13 -6 -21zM375 1605q56 11 0 21v-21zM510 1574q10 38 -16 52q-9 -37 16 -52zM546 1605q26 12 0 21v-21zM1743 1585q19 -9 36 5q62 8 0 15q0 18 -15 21q4 -31 -21 -41zM1660 1605
q-23 -39 -32 0h32zM286 1605h-15q7 -23 15 0zM458 1590q-3 14 -16 15q3 -14 16 -15zM271 1553v-15h-21q-8 61 -16 0q33 -10 37 -37q-57 -21 -105 21q-19 -144 -36 -52h-16q-24 -139 52 -140q-9 -24 -36 -16v-16q29 6 36 -15q-35 -5 -57 15q-21 -53 -31 -15h-16q27 -39 0 -52
q23 -35 -15 -57q5 -29 15 -47q-19 -1 -31 -11l16 -57q-34 2 -47 -26l5 -10q19 20 42 15q0 17 15 21q12 -54 -31 -52v-16l31 -5q38 -152 -15 -99q18 -29 0 -41q24 -35 -16 -47v-16q60 -29 31 -104q40 -12 37 -52q27 -15 15 -52h-15q-18 -84 -52 -15h-37q10 -23 37 -16
q7 -48 -37 -21q10 -18 21 -26q-1 -32 -31 -26q8 -46 0 -83q34 -18 31 -52q16 -2 16 -16h-47v-20q56 2 10 -47q32 -9 37 -37q48 20 83 0q-18 -49 0 -78q-8 -37 21 -41q-8 -49 31 -68l-16 -36q33 9 37 41q-18 14 -37 11q1 56 16 15h21q-41 63 16 89q-1 -39 15 -63
q-25 -25 0 -52q-14 -12 -15 -26q53 44 98 21q14 16 37 16q-38 -63 21 -37q-13 -53 31 -52q-3 30 -16 52q39 5 52 37h16h21h88h42h36q-14 76 21 83v21q-28 3 -21 31l37 -16v16q-29 13 -37 36q18 1 21 16h-21v21v21v20v21v89v15v63q-17 25 0 41q-32 -25 -31 11v15v162l-21 5
v15v68q-12 3 -16 10v16v16v20v94q-15 2 -15 16v36q-23 9 -37 21q-12 77 21 83q18 -35 16 -73h15v31q-17 35 -15 73q-29 17 -16 63q-27 14 -21 41h-15v68q0 39 -16 62v16v62l-21 11q20 10 21 26q-14 13 -21 26q17 10 21 21h-21q-19 -56 -31 -16h-10h10h-10q-23 -38 -47 16
q-39 8 -10 -37q-62 -10 -104 21v16q114 9 31 52q-10 -29 -31 -37zM375 1574q23 8 0 16v-16zM421 1590h-15q8 -62 15 0zM734 1574q-3 14 -16 16q2 -15 16 -16zM1868 1553q-1 -55 47 0q-52 -10 -47 37h-21q-7 -31 21 -37zM203 1553q25 12 0 21v-21zM458 1553q25 12 0 21v-21z
M765 1553q35 11 0 21v-21zM1644 1538q-11 -25 -21 0h21zM765 1486h21q2 29 15 52h-15q-21 -25 -21 -52zM1712 1522q-9 -33 -16 0h16zM1915 1486q6 29 -16 36q-6 -29 16 -36zM682 1486q23 7 0 15v-15zM234 1486q-27 -40 -52 0h52zM1696 1486q-12 -25 -21 0h21zM697 1454
q51 13 21 32zM666 1454q24 8 0 16v-16zM801 1470h-15q7 -24 15 0zM1899 1454q24 8 0 16v-16zM166 1434v20q26 -11 0 -20zM219 1402q-22 10 -16 32q22 -10 16 -32zM250 1434q-8 -24 -16 0h16zM1540 1418q-15 2 -16 16q16 -2 16 -16zM1764 1418v16q21 -8 0 -16zM718 1434h-21
q12 -26 21 0zM1868 1418q-7 18 -21 16q7 -18 21 -16zM114 1402l6 16q15 -11 -6 -16zM151 1402v16q21 -8 0 -16zM1623 1418q-8 -24 -15 0h15zM1675 1418q-8 -24 -15 0h15zM1712 1402v16q21 -8 0 -16zM1764 1418q-13 -25 -21 0h21zM786 1418h-21q12 -25 21 0zM151 1382
q123 -9 0 -16q-4 -17 -21 -16q-1 30 5 52q18 -6 16 -20zM219 1382l5 20q15 -13 -5 -20zM1868 1382q25 12 0 20v-20zM1472 1366v16q21 -8 0 -16zM749 1366q-2 14 -15 16q2 -15 15 -16zM234 1350v16q21 -8 0 -16zM1472 1366q-11 -26 -20 0h20zM1540 1350v16q21 -7 0 -16z
M1571 1350v16q34 -8 0 -16zM1696 1350v16q21 -7 0 -16zM99 1366h-21q12 -25 21 0zM697 1350q-2 15 -15 16q2 -14 15 -16zM1847 1283q-16 53 0 78l-16 5q-23 -55 16 -83zM1951 1366h-16q8 -62 16 0zM1488 1330v20q26 -11 0 -20zM1540 1350q-8 -34 -16 0h16zM1696 1350
q-11 -36 -21 0h21zM203 1330q-11 -55 -21 0h21zM1623 1330q-8 -24 -15 0h15zM114 1330h-15q8 -24 15 0zM1987 1330h-20q12 -26 20 0zM219 1298v16q53 -8 0 -16zM1644 1283v31q55 -6 0 -31zM1868 1298q23 8 0 16v-16zM1915 1314h-16q8 -24 16 0zM1935 1298q24 8 0 16v-16z
M1524 1298q-11 -25 -20 0h20zM1608 1283q-39 -10 -52 15q39 11 52 -15zM697 1298h-15q7 -23 15 0zM1987 1283q24 8 0 15v-15zM1436 1267q-17 -6 -16 16q15 -3 16 -16zM546 1283h-21q11 -35 21 0zM1868 1246q25 16 47 0q-11 27 -32 37zM1951 1262q25 12 0 21v-21zM151 1246
v16q21 -8 0 -16zM1504 1246v16q62 -7 0 -16zM682 1246q23 8 0 16v-16zM1831 1262h-15q7 -24 15 0zM114 1246q-7 -24 -15 0h15zM1675 1231l5 15q25 -11 -5 -15zM1779 1231q24 8 0 15v-15zM510 1231v-37q29 -18 15 -67q-1 -16 -15 -11q1 21 -16 26v89h16zM1831 1231h-15
q7 -33 15 0zM151 1210q-12 -25 -21 0h21zM1399 1158q70 24 -15 52q14 -24 15 -52zM1795 1179q-38 6 -68 31q55 -85 68 -31zM1935 1210h-20q12 -25 20 0zM78 1179l5 15q26 -11 -5 -15zM166 1158v36q33 -18 0 -36zM1524 1194h-20q12 -25 20 0zM1660 1142q21 -9 15 -31
q-46 38 -67 16q-3 -59 41 -68q23 -29 26 0q-51 20 -52 68q33 -9 37 -37q66 2 15 68q29 8 31 36h-31q-2 -29 -15 -52zM1472 1179h-20q10 -35 20 0zM1644 1179h-21q11 -35 21 0zM151 1158q-12 -25 -21 0h21zM1524 1142q51 8 0 16v-16zM1795 1111v16q-52 -1 -83 31
q8 -64 83 -47zM1883 1142q24 8 0 16v-16zM1384 1127q24 8 0 15v-15zM1399 1096q62 -33 37 -89q39 13 36 52l26 16q7 -31 -10 -52q44 -2 52 36h16q-29 -83 15 -73q7 -17 21 -15v15q-47 17 -21 73q-20 11 -21 31q-44 -28 -10 37l-68 -37v26q26 43 -36 11q-3 13 -16 15
q-3 -28 -21 -46zM1556 1111q71 6 15 31zM99 1127q-12 -25 -21 0h21zM219 1111q-15 3 -16 16q15 -2 16 -16zM1353 1127h-21q12 -26 21 0zM47 1090v21q26 -12 0 -21zM114 1090v21q26 -12 0 -21zM1472 1059q-40 11 -36 52q36 -16 36 -52zM1280 1111h-16q8 -32 16 0zM1727 1075
q24 7 0 15v-15zM1779 1075q-2 14 -15 15q2 -14 15 -15zM1384 1059q-29 4 -52 16q35 -64 52 -16zM78 1038v21q36 -11 0 -21zM151 1038v21q26 -12 0 -21zM1212 1038q25 12 0 21v-21zM1608 1059h-16q8 -62 16 0zM1384 1007q52 -36 15 16q19 0 21 15h-21zM1301 971q25 -5 31 15
l36 5q-24 35 -36 -5h-16q-8 33 -36 37q20 -25 21 -52zM1488 1007h-16q8 -32 16 0zM1524 1007h-20q10 -66 20 0zM203 986q-12 -25 -21 0h21zM99 955v16q21 -8 0 -16zM151 955v16q21 -8 0 -16zM234 939v16q21 -8 0 -16zM1420 939v16q53 -7 0 -16zM114 919v20q26 -11 0 -20z
M234 939q-8 -34 -15 0h15zM1228 919v20q36 -10 0 -20zM1332 919q-18 6 -16 20q18 -6 16 -20zM1384 903q-26 -12 -31 -36q-50 16 5 72q20 -17 26 -36zM1420 939q-11 -36 -21 0h21zM1472 939q-15 -36 -15 0h15zM1301 887q-8 18 -21 16q-10 -28 -31 -36q-1 29 5 52q94 4 47 -32
zM203 887v16q21 -8 0 -16zM1389 903q142 0 63 -36v10q-45 25 -16 -16q19 -30 16 -62h-6h6h-11h5h-10h5h-5q1 44 -37 52q-3 31 -15 52h5h-5h5zM99 867v20q26 -11 0 -20zM166 887q-6 -68 -36 0h36zM1212 867v20q26 -11 0 -20zM1301 887q-15 -36 -16 0h16zM1212 867
q-26 -54 -31 0h31zM1384 851q-14 3 -16 16q16 -2 16 -16zM114 851q-29 -63 -46 0h46zM151 851q-12 -26 -21 0h21zM219 835v16q20 -8 0 -16zM1212 835l5 16q55 -9 -5 -16zM1368 851q-7 -62 -15 0h15zM1316 835q-26 -57 -52 0h52zM203 799v16q21 -8 0 -16zM234 799v16
q21 -8 0 -16zM1212 799l5 16q55 -10 -5 -16zM1353 815q-12 -26 -21 0h21zM1399 757q35 -30 -15 -41q3 -51 -52 -37q-14 25 -16 52q40 -19 68 0q-23 41 0 84q29 -18 15 -58zM47 783l5 16q44 -9 -5 -16zM130 783v16q34 -7 0 -16zM166 783v16q21 -8 0 -16zM1332 799
q-9 -53 -16 0h16zM1436 799q-8 -21 -16 0h16zM1452 783l5 16q25 -10 -5 -16zM1488 783v16q21 -8 0 -16zM78 768l5 15q25 -10 -5 -15zM151 768v-21q-79 -30 -37 36zM786 783q-13 -24 -21 0h21zM1301 783q-12 -25 -21 0h21zM786 747l5 21q15 -14 -5 -21zM1264 768
q-8 -34 -15 0h15zM1332 731l5 37q36 -24 -5 -37zM1452 721q-20 -10 -32 47q44 1 32 -47zM1316 747q-28 -59 -36 0h36zM31 731q24 8 0 16v-16zM151 731q-12 -25 -21 0h21zM219 716q-15 2 -16 15q15 -2 16 -15zM718 716v15q21 -7 0 -15zM78 695v21q36 -11 0 -21zM156 716
q52 -11 -5 -37v37h5h-5h5zM114 679v16q21 -7 0 -16zM234 695q-33 -49 -47 0h47zM1316 695q-8 -21 -15 0h15zM114 679q-7 -20 -15 0h15zM130 643l5 36q61 -31 -5 -36zM682 664v15q20 -7 0 -15zM749 664v15q21 -7 0 -15zM1488 679h-16q8 -23 16 0zM182 643v21q36 -11 0 -21z
M770 664q26 -14 -5 -21v21h5h-5h5zM1524 643v21h-20q-30 -47 20 -21zM114 627v16q25 -8 0 -16zM682 627v16q20 -8 0 -16zM219 627q-8 -24 -16 0h16zM853 612v15q21 -7 0 -15zM645 560q11 51 -15 67q-12 -51 15 -67zM1420 612h-21q13 -26 21 0zM1472 612h-20q12 -26 20 0z
M78 596h-16q8 -62 16 0zM151 544v16q21 -8 0 -16zM99 508l5 36q21 -21 -5 -36zM853 523v21q26 -12 0 -21zM936 508v15q22 3 21 21q47 -34 -21 -36zM827 492q-8 5 -10 16q18 0 21 15q37 -26 -11 -31zM905 508q-14 2 -15 15q15 -2 15 -15zM114 492l6 16q54 -10 -6 -16z
M786 471q24 -36 -21 -47q1 -40 -16 -72h-31q7 29 31 36l-15 36q46 30 31 84q67 -2 21 -37zM890 508q-12 -26 -21 0h21zM801 456l5 15q15 -11 -5 -15zM838 456v15q21 -8 0 -15zM718 471h-21q12 -25 21 0zM47 404v52q39 -28 0 -52zM838 456q-15 -31 -16 0h16zM166 440
q-7 -24 -15 0h15zM1009 404v20q26 -11 0 -20zM1061 404q-22 0 -20 20q22 0 20 -20zM666 372q56 24 16 52q-3 -29 -16 -52zM99 404q-12 -25 -21 0h21zM905 404q-8 -24 -15 0h15zM31 372v16q21 -8 0 -16zM801 372q-15 3 -15 16q15 -2 15 -16zM1041 388q-8 -24 -16 0h16z
M754 352h32q-20 -33 -37 0h5h-5h5zM973 352q-8 -53 -16 0h16zM151 336q-12 -25 -21 0h21zM219 336q-8 -24 -16 0h16zM838 320q-19 -1 -21 16q16 -1 21 -16zM869 320q-15 2 -16 16q15 -2 16 -16zM936 336q-7 -24 -15 0h15zM1108 336q-8 -24 -15 0h15zM697 320q-10 22 -31 16
q10 -22 31 -16zM869 300l5 20q26 -14 -5 -20zM1061 300v20q26 -11 0 -20zM853 300q-8 -53 -15 0h15zM682 300h-16q8 -24 16 0zM734 300h-16q8 -24 16 0zM62 253l-15 31q89 -21 15 -31zM99 268v16q21 -8 0 -16zM770 284q25 -10 -5 -16v16h5h-5h5zM905 268v16q21 -8 0 -16z
M957 284q-10 -55 -21 0h21zM203 232q-30 6 -21 36q31 -5 21 -36zM905 268q-7 -20 -15 0h15zM1041 268q-9 -63 -16 0h16zM1061 232v36q32 -17 0 -36zM718 232q33 22 -21 36q16 -19 21 -36zM47 232v21q25 -12 0 -21zM219 232v21q25 -12 0 -21zM817 232v21q36 -10 0 -21z
M890 253q-12 -36 -21 0h21zM817 232q-8 -21 -16 0h16zM838 201l5 31q21 -20 -5 -31zM1061 232q-15 -30 -15 0h15zM1061 216l21 16q19 -63 -21 -16zM1181 216v16q21 -8 0 -16zM151 201v15q21 -7 0 -15zM219 201q-1 -17 -16 -21q-10 22 -21 36q104 -1 37 -15zM1160 216
q-4 -63 -31 0h31zM734 216h-16q8 -23 16 0zM1061 201q-18 -46 -36 0h36zM749 180q25 12 0 21v-21zM203 180q-18 -73 -37 0h37zM219 149l5 31q48 -8 -5 -31zM988 164v16q34 -7 0 -16zM718 164q24 8 0 16v-16zM130 149v15q34 -7 0 -15zM999 112q-15 18 -11 37q17 3 26 15
q35 -41 -15 -52zM765 149q-3 14 -16 15q3 -14 16 -15zM234 97q-1 29 5 52q29 -33 -5 -52zM936 128v21q36 -11 0 -21zM962 128q15 -24 -5 0h5h-5h5zM78 81q30 -7 21 -36h15q15 65 -36 83q24 -25 0 -47zM151 97v15q21 -8 0 -15zM234 45v15q21 -8 0 -15zM734 45q-3 14 -16 15
q2 -14 16 -15zM390 29q0 -16 -15 -21v37q75 -4 15 -16zM130 8q35 11 0 21v-21zM458 8q25 12 0 21v-21zM114 -23q24 8 0 16v-16zM250 -23q1 -39 -16 -62q21 -20 0 -42q48 24 89 0q-21 24 -21 52q30 -1 52 -16q31 -6 36 21q-18 7 -36 -5q12 53 -31 52q30 -48 -37 -36
q2 29 16 52q-35 -16 -68 0q-29 -49 16 -16zM421 -59q57 26 0 52v-52zM151 -44q50 8 0 -47q29 -3 31 21q20 11 37 -5q-23 46 -68 52v-21zM250 -91l5 16q55 -9 -5 -16zM203 -111q25 12 0 20v-20z" />
    <glyph glyph-name="L" unicode="L" horiz-adv-x="1110" 
d="M129 1264q48 -78 -21 -42q20 -61 42 -91l-21 -28q-1 -52 21 -84q-19 -18 -21 -35q24 -34 0 -56q62 -47 0 -112q23 -33 0 -63q6 -12 14 -14q23 31 28 -7q-21 -20 -42 -14q25 -30 0 -49q29 -29 42 -56h-21q7 -32 -21 -42q3 -19 21 -21q0 -44 21 -77q-11 -7 -21 -7
q3 -19 21 -21q-8 -86 21 -147l-42 -28q22 -10 42 7q-3 -49 -42 -70q35 -56 0 -105q23 -52 7 -98h-7h7h-7q1 -86 42 -147h-42q-30 72 -63 21q-64 -5 -84 -84h21q5 -63 63 -63v-21q57 25 105 0l-21 42q47 -8 77 -21q25 25 70 0q34 47 84 42l21 -42q56 36 91 0q55 24 98 0
q-13 47 21 63v-42h42v-21q100 -43 126 21h84v-21q64 20 105 0q2 21 21 21q4 -18 21 -21q17 47 63 42q-7 32 21 42q4 57 -21 98q11 7 21 7q-3 19 -21 21q17 64 21 105l21 14q-57 12 -42 70l-84 21q-13 -30 -42 0q-12 -32 -49 -21h-35q-20 3 -21 21q-46 11 -63 -21
q-69 29 -119 0l-21 21q-19 -21 -49 -21q20 -32 0 -63q64 -53 -21 -21v21q-16 106 21 126l-21 28q7 11 21 14q-8 89 21 154q-17 24 -42 35q3 20 21 21q-5 34 -21 56q47 58 0 133h21q-7 32 21 42q-28 52 0 84h-42q3 20 21 21q7 34 -21 42q3 20 21 21q4 57 -21 98q24 25 21 49
q-60 45 0 84q-10 71 21 119q-17 36 -21 70q-46 12 -63 42h-63q-53 -70 -112 0q-92 -74 -77 0q-59 -27 -105 0q-17 -47 -63 -42zM255 1243v21q28 -10 0 -21zM171 886v21q28 -11 0 -21zM192 844q-20 3 -21 21q20 -3 21 -21zM171 193l7 21q21 -15 -7 -21zM780 130
q-10 -28 -21 0h21zM990 88q-20 3 -21 21q20 -3 21 -21zM1095 46q-11 -32 -21 0h21zM633 4l-21 -42q34 -74 21 -147h-42q0 53 21 84q-37 20 -21 126zM423 -248v21q28 -10 0 -21zM885 -248v21q28 -11 0 -21z" />
    <glyph glyph-name="M" unicode="M" horiz-adv-x="1660" 
d="M878 1745q88 52 21 105q-25 -56 -21 -105zM794 1703q32 11 0 21v-21zM836 1703q111 -24 21 -42v-21h42q-30 -47 -84 0v-42q39 -23 21 -84h21q-21 86 42 84q-3 -20 -21 -21q1 -51 21 -84l-21 -7q7 -68 -21 -119q-43 -22 -77 0l-7 -21q-20 3 -21 21q-37 -21 -77 0
q-39 -70 -70 -21q-32 -20 -63 0q-15 -34 -42 -42q-5 63 -63 63v42q20 -3 21 -21q52 37 -21 42l21 42h-63q45 60 -63 21q31 66 -42 63v21h-21q-18 -53 -63 -21q-2 -21 -21 -21q-2 -21 -21 -21q2 -50 -42 -42q-15 -32 -42 -42v-21h21q17 -30 42 -42q9 -60 63 -84
q-13 -29 -42 -21v-42q36 -17 21 -126h42q5 -93 84 -105q-16 -35 -56 -21l-7 -21q30 -10 0 -42q34 21 63 0q8 -34 -21 -42q22 -34 0 -56q25 -19 0 -35q24 -34 0 -56q26 -1 42 -14q-92 -29 0 -126l-42 -7q-13 -89 42 -140q-31 -7 -42 -28q26 -1 42 -14l-21 -14
q16 -67 -21 -105q20 -57 0 -98h63q-13 -29 -42 -21q7 -32 -21 -42q20 -32 0 -63q26 -7 0 -63q21 -47 0 -84h21q15 -82 105 -84v-21q56 26 105 21q22 38 42 0q47 22 84 0q2 21 21 21q16 -30 42 -42q-29 39 0 77q-37 67 42 70q-13 47 21 63v35v42q-33 36 -42 70q18 4 21 21
l-21 7v21v21v35v21v28v21v140q86 -12 63 -105h21v28v21v140q28 14 42 35v21v21v21v56v21v91v35v21q-9 45 21 56v84q20 -3 21 -21q7 -74 -21 -84q28 -32 0 -42q3 -19 21 -21q-20 -72 -21 -119l21 -7q3 -71 21 -119l-42 -28q1 -51 -21 -84q16 -3 21 -14q-24 -25 -21 -49
q21 -2 21 -21l-21 -7v-182q-22 -10 -21 -28q1 -35 7 -56q11 -7 14 -21v-126l21 -7q-32 -54 0 -119q34 -15 42 -42q32 7 42 -21q59 27 105 0l28 21q52 -28 98 -21q2 21 21 21q-7 62 42 84q-47 78 0 133v70q-2 64 42 91q4 -59 42 -84q-8 -47 -21 -77q26 -21 0 -126l21 -7
q-16 -29 -21 -63q60 -33 84 -84q90 28 112 0q35 29 105 0q25 55 77 42l21 42q100 4 147 84q-32 15 -42 42q40 22 0 42q4 -51 -42 -42q3 20 21 21q-2 50 42 42q-13 47 21 63q-49 68 -21 126q-30 58 21 84q-21 39 -7 84q-11 34 7 63q-109 79 0 42q-14 44 -42 63q3 20 21 21
q-12 47 21 63q-21 39 -21 84q-32 -7 -42 21h42q-11 59 21 91q-46 77 0 140h-21q0 55 21 91q-9 11 -21 14q19 33 21 77q-21 19 -21 49l-21 7l21 119q-34 15 -42 42q-50 -2 -42 42h-21q-35 -45 -84 -49q-34 -14 -49 28q-28 2 -35 -21q-103 41 -154 0l-21 21q-11 -9 -14 -21
q-70 7 -119 -21q-7 10 -7 21q-39 -22 -84 -21v-42q-33 17 -63 0q7 -32 -21 -42q28 -32 0 -42q38 -42 0 -63q31 -82 -21 -147q34 -15 42 -42h-21q-2 -58 -42 -84q17 -35 63 0q-12 -80 -84 -84v63q-54 33 -21 84l-42 28l21 28l-21 14q7 11 21 14q0 35 -21 49v119v21v84
q-29 13 -21 42h-21v119q-4 40 -21 70h21v28v21v140h-84v-21zM962 1682q32 10 0 21v-21zM815 1661q32 11 0 21v-21zM962 1598q32 10 0 21v-21zM941 1535q68 11 0 21v-21zM290 1535q-10 -32 -21 0h21zM332 1535q-11 -33 -21 0h21zM227 1493q-20 3 -21 21q20 -3 21 -21z
M290 1493q-10 -32 -21 0h21zM332 1472q-20 3 -21 21q19 -4 21 -21zM185 1451v21q28 -10 0 -21zM353 1430v42q38 -22 0 -42zM122 1430l7 21q61 -14 -7 -21zM290 1451q-11 -31 -21 0h21zM311 1430v21q28 -11 0 -21zM395 1409v21q28 -10 0 -21zM311 1388l7 21q21 -15 -7 -21z
M311 1388q-11 -28 -21 0h21zM185 1346q-20 3 -21 21q20 -3 21 -21zM899 1325q-11 -71 -21 0h21zM941 1304q-11 -28 -21 0h21zM248 1262v21q28 -11 0 -21zM185 1220v21q28 -11 0 -21zM878 1178q47 -62 -21 -63q-7 75 21 126q49 -33 0 -63zM857 1010l21 84q62 -47 -21 -84z
M17 1031q40 -67 0 -112q26 -39 21 -77q60 25 42 -175q57 -13 42 77q34 77 105 98v56v21v91h-42l21 42q-32 -7 -42 21q-38 -32 -56 21q-24 -26 -49 0q19 -103 -42 -63zM1109 1031v21q72 -10 0 -21zM143 1010v21q28 -11 0 -21zM1151 1010q-11 -71 -21 0h21zM185 968v21
q28 -11 0 -21zM332 947v21q28 -10 0 -21zM290 926v21q71 -12 0 -21zM983 821v21q28 -10 0 -21zM1067 779q-18 -146 -63 21q31 -18 63 -21zM1109 800q-11 -71 -21 0h21zM1781 758q-11 -32 -21 0h21zM1046 674v21q28 -10 0 -21zM1067 632l7 42q28 -26 -7 -42zM1844 653
q-11 -33 -21 0h21zM1802 506v21q28 -10 0 -21zM1361 338v21q28 -11 0 -21zM1844 359q-11 -33 -21 0h21zM1361 296q-20 3 -21 21q20 -3 21 -21zM1844 317q-11 -33 -21 0h21zM1277 212v21q28 -11 0 -21zM1781 86v63q49 -33 0 -63zM1781 86q-11 -28 -21 0h21zM1823 -61
q-11 -28 -21 0h21zM1781 -82q-11 -32 -21 0h21z" />
    <glyph glyph-name="N" unicode="N" horiz-adv-x="1235" 
d="M947 1425q38 -57 -42 -42q-2 -21 -21 -21q38 -65 -21 -105q11 -59 -21 -91q2 -27 21 -42q-7 -11 -21 -14q-15 -83 21 -105v-42q32 7 42 -21q-46 11 -63 -21q30 -12 21 -42q21 -2 21 -21q-4 -37 -21 -63q22 -5 21 -28l-21 -35q39 -23 21 -84q22 -5 21 -28q4 -31 -21 -35
q23 -43 0 -77l21 -21v-574q81 1 105 -63q32 7 42 -21h21v21q74 11 105 63h21v63q54 40 0 119q11 7 21 7q-15 64 21 84q-3 72 -21 119q-3 52 21 84q-46 147 0 182q-36 38 0 56v42q-21 2 -21 21l21 7q-9 11 -21 14q17 64 21 105q-16 4 -21 14q-1 39 21 56q-9 11 -21 14
q-7 31 21 42q-3 19 -21 21q23 95 0 112q7 11 21 14q14 64 -21 84q19 33 21 77q-29 31 -21 70q-30 12 -21 42h-21h-84v21h-21v21q-61 10 -105 42q-2 -21 -21 -21zM212 1404q-18 -36 -63 -21q-25 -39 -105 -21q-9 -97 -63 -161q29 -31 21 -70q50 -35 21 -147h21v-378
q-40 -30 -42 -77q32 -21 0 -28q4 -14 14 -21q3 -50 28 -63q-3 -20 -21 -21q31 -59 -21 -84q-11 -46 21 -63q-45 -79 0 -133q-23 -40 -21 -77q30 -12 21 -42h21q-22 -114 147 -147q12 30 42 21q28 57 91 42q11 9 14 21v28v28v28v28v119v21v84h21q-2 50 42 42q-1 51 21 84
q-17 30 -42 42v56l-21 7v140q-21 16 -21 42q10 7 21 7q-19 31 -21 63h28q41 -29 56 -63h42v-42q54 -33 21 -84q53 -18 21 -63q76 -58 21 -147q52 -32 63 -84q116 -79 126 -210q64 -17 105 -21q-32 -48 21 -42q-7 -32 21 -42q-16 117 21 182v42q-20 40 0 77q-32 38 0 63
q-22 85 0 161q-47 17 -42 63h-21l-14 21q-7 10 -7 21v21h-21v28q-19 24 -21 56q-47 34 -42 84l-42 21l21 42q-47 34 -42 84q-50 -2 -42 42q-30 12 -21 42q-86 59 -42 147q-47 34 -42 84q-50 -2 -42 42q-102 18 -63 105h-21v21q-37 4 -63 21q-43 -63 -105 -21zM989 1383v21
q28 -10 0 -21zM863 1131v21q28 -10 0 -21zM1220 879q-20 3 -21 21q20 -3 21 -21zM1220 648q-11 -31 -21 0h21zM23 249v21q28 -10 0 -21z" />
    <glyph glyph-name="O" unicode="O" horiz-adv-x="1154" 
d="M592 1235l-7 -21q-35 3 -56 21q-51 -17 -84 -42l-14 21q-72 -41 -140 -42q2 -50 -42 -42q-32 -52 -84 -63q-2 -58 -42 -84q13 -47 -21 -63q16 -106 -21 -126q1 -86 -42 -140q40 -31 0 -49q21 -37 0 -70q46 -49 0 -77q15 -64 -21 -84q20 -32 0 -63q45 -16 0 -91v-77
q49 -33 0 -70q19 -24 21 -56l-21 -7q19 -24 21 -56q34 -15 42 -42q53 -18 21 -63q64 -9 84 -63q119 0 105 -63q51 0 63 -42q59 25 105 0q-15 130 21 147l21 -28q-31 -64 -21 -119q45 -6 70 21q11 -7 14 -21q19 3 21 21q40 -20 84 -21q31 19 63 21v21q57 -3 98 21
q25 -24 49 -21q15 128 126 84q12 30 42 21q-7 32 21 42q-7 62 42 84q1 34 21 49q-44 67 21 98q-39 55 0 147q-53 18 -21 63q-29 11 0 21q-35 41 21 49q-61 70 0 133q0 24 -21 28l21 35q-27 60 0 105l-21 7v126q-21 2 -21 21h21q4 37 21 63q-30 12 -21 42q-21 2 -21 21
q-50 -2 -42 42h-42q15 32 42 42v42q-39 23 -21 84q-50 -2 -42 42q-58 2 -84 42q-105 -41 -133 0q-77 -46 -140 0q-15 -35 -56 -21zM543 1214q-2 -35 -21 -56q26 -24 0 -49q16 -3 21 -14q7 -39 -21 -49q26 -56 21 -105q21 -2 21 -21q52 28 84 0v-21q-52 -27 -42 -84
q-19 -4 -21 -21q31 -17 63 -21l-21 -42q34 -15 42 -42q-32 7 -42 -21h63q-13 -29 -42 -21v-21h42q-14 -28 -42 -28q19 -24 21 -56h21q8 -34 -21 -42q31 -67 0 -119q58 -76 0 -140q53 -60 0 -98v-84h-42q-32 -52 -84 -63v42q-64 -35 -63 42l-42 21q24 52 0 84q32 14 42 42
q-31 12 0 35q-25 19 0 35q-27 23 0 42q-36 38 0 56q-4 62 42 91l-7 14q-24 -29 -35 0q-7 31 21 42q-25 30 0 49q-9 11 -21 14q7 18 21 28q6 68 -21 119q18 4 21 21v28v21v140l21 14q-29 65 0 112q-47 31 -14 126h35zM753 1214q-11 -32 -21 0h21zM606 794l7 21q21 -15 -7 -21
zM1131 668q-20 3 -21 21q20 -3 21 -21zM522 374q-3 19 -21 21q3 -19 21 -21zM39 185v21q28 -10 0 -21zM1089 185v21q28 -10 0 -21zM501 -25q-46 18 -42 63q45 -19 42 -63zM480 -88q-28 -46 -21 63q53 -18 21 -63zM459 -130l28 21q33 -99 -28 -21z" />
    <glyph glyph-name="P" unicode="P" horiz-adv-x="1070" 
d="M152 1191l-42 21v-35l-42 -7q7 -32 -21 -42q13 -47 -21 -63l21 -28q-7 -11 -21 -14q0 -35 21 -49q-23 -40 -21 -77q38 -43 0 -63q33 -42 0 -70q23 -25 0 -49q26 -24 0 -49l42 -21q-13 -29 -42 -21q20 -32 0 -63q40 -20 0 -63q21 -2 21 -21q-34 -68 0 -119q-11 -7 -21 -7
q14 -29 42 -21l-21 -49q-11 -81 21 -133l-21 -28q16 -4 21 -14l-21 -21l21 -21l-21 -14l21 -21q-7 -11 -21 -14q51 -72 0 -105q21 -77 0 -140v-42q33 -36 42 -70q35 -2 56 -21q24 26 49 0q35 51 105 0q12 30 42 21q11 -28 42 -21q32 52 84 63v63l21 56q0 24 -21 28
q1 34 21 49l-21 70q32 32 0 56q22 24 0 42l21 28l-21 7l21 35l-21 7v28v21v91q11 7 21 7v126h21v-189q-18 -4 -21 -21q61 10 91 -21q28 -2 35 21q54 -26 105 -21q26 52 84 42q12 30 42 21q26 52 84 42q17 47 63 42l-21 42q39 7 63 21q2 35 21 56l-21 28h21v21v84h21v119v21
v84l-21 7v77l-21 28q18 4 21 21q-30 12 -21 42h-21q16 29 21 63h-21v42q-47 17 -42 63q-34 15 -42 42q-39 -6 -63 -21v42q-109 -56 -147 0h-63q-18 -36 -63 -21q-3 -16 -14 -21q-25 29 -49 42v-21l-21 -42q-17 -64 -21 -105h-21q-7 75 21 126q-45 12 -63 42q-51 -19 -84 0
q-11 -30 -35 -42q-67 54 -133 21q7 32 -21 42v-42zM425 1191q-11 -28 -21 0h21zM509 939h-21q28 -52 0 -84q21 -2 21 -21q98 19 105 -63q63 10 42 -126q-77 -12 -84 -84h-21l21 -42q-64 -4 -105 -42v28v35v28v35v91v28v119v21v84q7 11 21 14q-19 31 -21 63q64 -1 42 -84z
M488 729q58 44 0 84v-84zM47 666l7 21q21 -15 -7 -21zM467 456l28 21q5 -133 -28 -21zM68 414q-10 -32 -21 0h21zM572 204v21q28 -11 0 -21z" />
    <glyph glyph-name="Q" unicode="Q" horiz-adv-x="1296" 
d="M306 1572q-45 -101 -126 -147q7 -32 -21 -42v-42h-42v-21q-48 -31 -63 -84q21 -2 21 -21q-59 -24 -21 -84h-42q18 -44 42 -70l-21 -21q19 -57 0 -105q53 -60 0 -98v-63q21 -39 21 -84h21q-33 -70 21 -105q-11 -46 21 -63q-3 -20 -21 -21q3 -19 21 -21q-25 -52 0 -84
q-28 -11 -21 -42h21l21 -84q47 -17 42 -63q34 -15 42 -42l42 21q24 -145 189 -147q-13 47 21 63q3 -49 42 -63l-21 35l21 14v119v21v84q18 4 21 21h-21q3 20 21 21q-34 72 -21 147q-39 5 0 105h21q-20 32 0 63q-28 12 0 42l-42 -21q-7 87 42 154q-23 25 0 49q-41 28 -42 70
l21 14q-30 13 21 98l-7 14q-31 -4 -35 21h42q2 71 21 119v28v77v49q-39 25 -21 105l21 7q-26 39 -21 77h-21q-83 -34 -84 0l-42 -21q7 32 -21 42q-18 -36 -63 -21zM579 1572q-2 -21 -21 -21q39 -55 0 -147h21v-245l21 -28h21q37 69 105 21q-3 -20 -21 -21q27 -59 0 -105
q66 -53 0 -105q56 -109 0 -147q9 -71 -42 -105v-63q36 -18 21 -63q43 6 42 -35q-29 -33 -21 -70q-43 -19 -42 -63q-58 -25 -105 0q17 -81 -21 -105q28 -52 0 -84q47 -28 0 -84q36 -18 21 -63q21 -2 21 -21q59 31 84 -21q29 14 21 42q91 -58 21 -210q62 7 84 -42q29 14 21 42
q56 3 21 -28v-35q33 -15 42 -42q-82 18 -126 -35v-7v7v-7q32 20 63 0v21q60 -7 84 42q19 -4 21 -21q55 4 21 -42q48 21 84 0q27 66 105 0l-21 42q-85 12 42 28v14v-14v14q-53 -3 -42 49q-31 54 14 77l7 -42h21q-13 47 21 63q4 -57 -21 -105q45 20 42 63q31 -15 42 -42h21
q-36 47 21 42v21q-78 59 0 112q-50 62 -21 119q-48 -3 -49 42l-14 7q2 28 -21 35v-42q-61 18 -21 42q-20 32 0 63q-37 5 -63 21q16 34 42 49q-9 45 21 56v28v21v140q18 4 21 21l-21 49q4 79 42 126q-23 25 0 49q-26 24 0 49q-31 59 0 105q-30 13 0 42q-40 7 0 70
q-26 39 -21 77h-42q3 20 21 21v21v42q-36 18 -21 63q-30 12 -21 42h-42q20 40 21 84q-59 -1 -42 63q-32 -7 -42 21q-73 -35 -63 21q-99 -44 -147 42q-72 -3 -119 -21q-25 24 -49 21q-12 -30 -42 -21zM348 1551q-10 -32 -21 0h21zM54 753v21q28 -10 0 -21zM1314 753
q-3 19 -21 21q3 -19 21 -21zM705 669l7 42q28 -26 -7 -42zM516 669q-11 -33 -21 0h21zM1272 669h-21q11 -32 21 0zM1041 228q-35 16 -7 42q32 -32 28 21q94 -60 -21 -63zM1188 102q-20 3 -21 21q20 -3 21 -21zM1230 60q-20 3 -21 21q19 -4 21 -21zM1167 39v21q28 -10 0 -21z
M1251 18q-11 -33 -21 0h21zM1209 -45q-20 3 -21 21q20 -3 21 -21zM663 -45q68 11 0 21v-21zM747 -108v63q67 -31 0 -63zM600 -87q32 11 0 21v-21zM684 -66h-21q11 -32 21 0zM1104 -87q-11 -31 -21 0h21zM1230 -122q-30 -3 -21 35q26 -6 21 -35zM1062 -108q-10 -32 -21 0h21z
M810 -150v21q28 -11 0 -21zM894 -192v42q37 -20 0 -42zM999 -192v42q37 -20 0 -42zM1069 -234q-22 24 -49 21q17 31 21 63q62 -27 28 -84zM579 -171q68 11 0 21v-21zM908 -213q17 24 49 21q-4 -19 -21 -21q6 -57 -35 -21q-61 -7 -42 42q31 -4 49 -21zM978 -213v21
q33 -11 0 -21zM999 -297q-57 26 -35 84q31 -38 35 -84zM726 -234q68 10 0 21v-21zM1062 -234q-32 -48 -63 0h63zM684 -255q75 -27 0 21v-21zM1188 -276q32 10 0 21v-21zM852 -339v-21q102 18 42 63q4 -51 -42 -42zM789 -381q41 22 0 42v-42zM915 -360q33 -50 63 21h-42
q-2 -21 -21 -21zM1020 -402q72 29 21 63q-5 -37 -21 -63zM663 -381q32 11 0 21v-21zM768 -381h-21q11 -32 21 0zM873 -381h-21q10 -32 21 0z" />
    <glyph glyph-name="R" unicode="R" horiz-adv-x="1134" 
d="M538 1481q54 12 0 23v-23zM64 1451q-7 -75 -74 -69v-38q48 7 34 -45h-54q24 -38 0 -69q21 -5 20 -30q54 -11 0 -23v-45q51 3 41 -54l-41 16v-54q35 2 41 -30v-69v-30q1 -83 -7 -122l7 -22q1 -62 -7 -107q7 -59 7 -99q-25 -1 -41 -15q9 -28 34 -23q-25 -11 -34 -30
q20 -19 41 -15v-312l-7 -15l7 -137l-61 -15q11 -48 61 -31v-364q47 -11 54 30h27q3 -58 34 -76q20 41 61 30q-73 56 40 69v-23q-34 1 -34 -30q56 4 95 -16q35 52 88 46v53l20 38q-25 8 -27 31l7 121l20 46q-3 20 -20 23l-7 22l7 31v30l-7 38l7 38l-7 31v61q1 49 7 83
q-8 46 -7 76l27 15q-28 34 -20 76q48 -32 34 -91q27 -7 20 -38h34h20l21 -7q105 13 176 0v-38q47 -3 54 -54q49 -11 40 -68h27v-388q35 -19 21 -68q53 -7 40 -91h75h27h20h34h20h27h21h135v53h-34q-17 159 34 152v53q-61 12 -54 -53h-27q-19 77 27 91q-70 59 54 68v31
l-81 15v23v30v99l-14 8v137q-36 4 -27 45q-20 3 -20 23q40 -10 47 30q-69 -1 -81 46h-41q6 28 34 23q8 64 88 45q19 94 95 107q4 40 41 30v23q-30 -4 -34 23q25 20 54 15q-26 62 0 68l-20 46v23v30v137h-34q27 21 34 46q-54 7 -41 106q-54 16 -81 69q28 4 27 30
q-57 -2 -41 68q-49 -10 -47 38q-52 -4 -34 -83l-7 45q-54 -7 -94 0q-7 50 -48 61q10 -60 -34 -61q-4 54 0 92l-6 -31q-49 -12 -55 31h-33q-30 -66 -88 -31q-20 -40 -122 -23v54l27 15h-34h-34q57 -40 0 -46v-23q-20 3 -20 23q-35 -18 -68 -23v23v-7v7q-125 10 27 46l-27 15
q-8 12 -20 15q-13 -50 -75 -30q-7 -80 -61 -31q21 22 41 16q-17 17 -41 22q-3 21 -20 23q-40 -6 -7 -45l-115 15q0 -66 -67 -46v31q45 4 27 45q-8 -44 -48 -30zM491 1451q45 16 0 30v-30zM24 1436h-34q17 -58 34 0zM173 1344v61q83 -30 0 -61zM213 1382v23q57 -11 0 -23z
M173 1276v23q69 -12 0 -23zM267 1299q-10 -35 -20 0h20zM173 1276q-10 -50 -21 0h21zM335 1230q-52 -117 -68 0l27 16zM152 1230q-14 -52 -27 0h27zM267 1177q-9 -77 -20 0h20zM-30 1139q2 39 -27 38q-3 -39 27 -38zM247 1132q-17 -74 -34 0h34zM613 1071q-17 -59 -34 0h34z
M450 1040q77 -16 129 -15v-30h34q13 58 128 45q27 -14 54 -15q14 -51 82 -30q-3 -59 40 -61q-35 -13 -34 -46q90 -5 34 -167h-34l-6 -61q-50 11 -55 -30q-19 23 -40 30q-115 -29 -203 23q-4 -16 -14 -23q-41 27 -74 -7l-14 30q-14 -34 -47 -30q-10 -77 0 -130h-34
q-17 82 20 107q-21 38 -27 76q1 61 27 91q-18 46 0 99l-20 30h34q-53 25 -41 99q25 1 41 15h20zM538 972q-3 21 -20 23q3 -21 20 -23zM613 972h-34q17 -90 34 0zM267 789v31q44 -11 0 -31zM267 789q-9 -30 -20 0h20zM247 767q-17 -74 -34 0h34zM538 523v23q57 -11 0 -23z
M782 67h-27q16 -37 27 0zM-71 14q73 16 0 30v-30zM755 -32v-22q32 -5 27 -38q37 93 -27 106q43 -35 0 -46zM1066 -298v61q84 -30 0 -61zM173 -298q-49 -9 -48 38q49 10 48 -38zM1147 -260q-15 -69 -27 0h27z" />
    <glyph glyph-name="S" unicode="S" horiz-adv-x="1204" 
d="M327 1147q-28 -55 -104 -14l3 -21q-62 -14 -54 -71q-199 -80 -172 -279q-18 -7 -18 -24q21 1 24 -18q-27 -15 -15 -45l21 3q2 -34 -13 -58q29 -20 6 -48l22 -4l5 -35q49 -29 60 -76q55 -23 68 -76q82 -37 121 -110l42 6l26 -39l42 6l3 -21l83 12q8 -57 68 -33
q19 -72 92 -50q7 -17 24 -18q18 -46 -12 -65q26 -87 -24 -131l27 -39l-39 -26q-2 109 -38 122q-5 74 -39 121l-34 -5l-28 -3l-35 -5l-90 -13l-27 -4l-118 -17l-21 -3l-83 -11q0 -22 -18 -24q23 -64 -33 -68q23 -28 30 -60q57 -27 32 -80q78 24 48 -36q56 12 26 -38
q32 -8 27 -39q64 23 68 -33q35 -10 48 -36q38 12 59 30l6 -41q137 -42 253 14l-6 42l44 -15l-6 41q50 -21 12 -83q62 40 114 -5q126 89 100 -7q34 40 77 53q-7 50 33 68q0 82 71 95l15 45l20 10q4 59 52 85q-8 50 33 68q-36 57 -16 111q-59 70 -41 136q-31 8 -26 38
q-20 4 -31 17q-22 18 -20 40l-20 -3q-23 28 -30 59q-77 24 -98 93q-36 10 -47 35q-31 -11 -45 15q-28 -32 -42 -6l-80 -32l-10 20l-20 -3l-15 5l-9 12q-30 -7 -38 16q-62 2 -110 27q-2 93 -80 116q11 34 36 48q-32 28 -6 41l-26 39l41 6q18 -62 36 -101l41 6q13 38 60 29
q4 -57 34 -94l-17 -30l39 26q1 -37 -12 -65q33 9 52 28l13 -40q57 63 115 37q11 35 90 13q13 38 60 30q-1 21 18 23l-27 39l42 6q-20 45 11 65l-12 90q-32 36 -32 74l-21 -3l-6 41l-20 -3l-6 42q-94 -10 -116 68q-48 16 -71 54q-116 -63 -146 -21q-61 -24 -86 9l-62 -8
q-10 -36 -36 -48q23 -28 30 -59q-73 23 -35 94l-22 4q-11 -38 -59 -30zM431 1013q39 -14 38 -121l-41 -6q-3 35 13 58q-29 20 -7 49q-42 17 -33 80q55 -11 30 -60zM478 681q-6 -34 -21 -3zM956 748q-6 -33 -21 -3zM519 93q-1 -72 -21 -3zM126 -133l-3 21q30 -6 3 -21z
M643 -187l-2 64q40 -34 2 -64zM1080 -125q-7 -32 -21 -3zM649 -228q-21 0 -24 18q21 0 24 -18zM658 -291l-2 64q40 -33 2 -64zM325 -338l-3 21q29 -6 3 -21zM827 -288q-6 -34 -21 -3z" />
    <glyph glyph-name="T" unicode="T" horiz-adv-x="885" 
d="M161 1437q-63 -5 -63 -63h-21q-7 -70 21 -119q-10 -7 -21 -7q33 -86 42 -147q119 0 105 -63q32 7 42 -21h21q15 34 42 42q21 -39 21 -84h21q-7 -18 -21 -28q24 -53 0 -98h21q16 -106 -21 -126q19 -53 0 -105q34 -15 42 -42h-42q-3 -20 -21 -21q5 -108 -84 -63
q27 -53 84 -42q17 -30 42 -42v-42q-75 37 -21 -63q-84 10 -42 84q-59 -26 -21 -84q-36 -25 -63 7l21 35q-34 1 -49 21h-7h7h-14h7h-7q37 -62 -21 -84v-21q39 21 84 21q-12 -31 -42 -21q-18 -52 -63 -21q31 -44 -21 -63q-4 -37 -21 -63h42v-21q-48 -4 -63 -42q39 6 63 21
q-11 -79 -84 -42q18 -32 21 -63h14q45 -37 7 42q80 10 84 -63q29 14 21 42q31 -13 21 -49q36 -56 -42 -14q-15 -32 -42 -42q3 -19 21 -21q40 70 84 0q-49 -3 -63 -42q123 76 84 -21q29 -13 21 -42q62 -4 49 42q-56 -11 -35 42h-7h7h-7q5 53 56 21q-25 40 -14 84h14
q12 -30 42 -21q-16 -29 -21 -63q68 -41 42 -161q2 -35 42 -7v-252h21v98q10 7 21 7v21v28v21v140h42q-39 80 0 147q50 0 63 -42q49 3 63 42q127 -43 147 63l42 21q7 34 -21 42l21 42q-26 57 0 63q-25 30 0 49q-28 48 0 56q-25 30 0 49q-30 46 0 84q-23 35 0 77q-45 16 0 91
q-47 42 -42 98q26 1 42 14q-49 80 -21 112q-38 22 0 42q-28 56 21 98q-5 40 -21 70h42q-1 51 21 84q91 10 147 -42v21q73 -1 42 63q130 93 63 231q18 4 21 21q-47 34 -42 84q-47 -13 -63 21h-21q-18 -36 -63 -21l-7 -21q-11 7 -14 21q-44 -32 -63 21q-49 -3 -63 -42h-28h-49
l-28 21v-21q-20 3 -21 21q-19 -3 -21 -21q-88 25 -147 21q-55 36 -21 -21q-43 0 -56 42l-7 -21q-20 3 -21 21q-104 -22 -147 0q38 -50 -28 -42q-20 21 -14 42h-84v-21zM350 1038v21q28 -11 0 -21zM1043 1045q-18 -7 -21 14q15 -4 21 -14zM308 597q32 11 0 21v-21zM98 555
q32 11 0 21v-21zM245 534q3 -19 21 -21q66 32 0 63q36 -47 -21 -42zM350 513l7 42q61 -37 -7 -42zM812 534q-20 3 -21 21q20 -3 21 -21zM791 492v21q28 -11 0 -21zM329 450l7 42q78 -24 -7 -42zM203 450q41 22 0 42v-42zM56 429q60 21 21 42zM812 408v21q28 -10 0 -21z
M56 408h-21q11 -32 21 0zM119 408h-21q10 -32 21 0zM224 366q60 21 21 42zM371 345l7 21q21 -15 -7 -21zM350 324v21q33 -11 0 -21zM98 324q32 10 0 21v-21zM14 324h-21q11 -32 21 0zM-7 282v-21q88 12 42 42q-13 -29 -42 -21zM329 261q-19 4 -21 21q20 -3 21 -21zM308 261
q-58 -102 21 -105v-21h-21q26 -38 -7 -63q-46 -4 -14 63q-51 -19 -84 0v42q63 -43 63 21q-30 11 0 35q-15 10 -14 28h56zM77 261h-21q10 -32 21 0zM119 261h-21q10 -68 21 0zM245 240q-11 -33 -21 0h21zM371 240q-22 -41 -42 0h42zM161 135q-44 24 7 63q18 -35 -7 -63z
M329 177q-20 3 -21 21q20 -3 21 -21zM350 177v21q28 -10 0 -21zM336 177q16 -29 -7 0h7h-7h7zM378 177q16 -29 -7 0h7h-7h7zM14 177h-21q11 -32 21 0zM35 135q32 11 0 21v-21zM336 135q20 -32 -7 0h7h-7h7zM392 135q-10 -32 -21 0h21zM203 72q78 13 63 -63q29 -13 21 -42
q-52 27 -42 84q-39 -5 -63 -21q-2 51 -21 84q51 4 42 -42zM287 9v42q74 -9 0 -42zM161 9v21q33 -11 0 -21zM210 30q16 -29 -7 0h7h-7h7zM336 30q16 -29 -7 0h7h-7h7zM329 -33v21q28 -10 0 -21zM266 -33q-10 -28 -21 0h21zM329 -33q-28 -46 -35 0h35zM350 -54l7 21
q21 -15 -7 -21zM98 -75q34 -51 63 21h-21q-13 -29 -42 -21zM287 -117v42q37 -20 0 -42zM245 -117l7 21q20 -15 -7 -21zM602 -117v21q28 -10 0 -21zM392 -138v21q28 -11 0 -21zM371 -159h-21q10 -32 21 0zM560 -180q32 10 0 21v-21zM560 -201q-6 -53 42 -21q4 -19 21 -21
q-24 30 0 49q-9 11 -21 14q-13 -29 -42 -21zM245 -201h-21q10 -32 21 0zM392 -201h-21q11 -68 21 0zM665 -222h-21q10 -32 21 0zM266 -285q7 34 -21 42q-7 -34 21 -42zM518 -285q32 11 0 21v-21zM287 -306q32 10 0 21v-21zM329 -327q52 -66 63 21h-21q-12 -30 -42 -21z
M539 -327h-21q10 -32 21 0zM308 -432q71 36 0 42v-42zM392 -453q32 11 0 21v-21z" />
    <glyph glyph-name="U" unicode="U" horiz-adv-x="1186" 
d="M1014 1175q-18 -44 -91 3q-11 -8 -15 -20l-42 1q-20 38 -69 24q-25 -18 -57 -19q12 -76 -25 -111q16 -21 19 -50q-28 -74 -4 -98q-7 -11 -21 -13q-4 -63 17 -106l-22 -13q27 -28 19 -64q-1 -22 -22 -27q-8 -33 19 -43q-4 -19 -21 -20l19 -35q-1 -23 -22 -28
q-16 -76 17 -112l-22 -28q-1 -24 20 -28q-5 -38 -24 -70q26 -84 -4 -104q34 -53 -3 -98q15 -4 20 -15q-11 -7 -21 -6l20 -29l-43 -27q35 -7 41 -29l-42 1q45 -63 -24 -62q-14 -28 -43 -26q8 -45 -23 -55q-28 36 2 42l-20 28l5 140q-61 45 -17 113q-34 40 3 56q-26 53 3 84
l3 84q-58 47 3 84q-26 99 6 147q-16 4 -21 15q11 7 21 6q-25 59 4 98q-65 54 -35 176q59 22 24 83h21q-6 31 22 41l1 21q-57 -2 -19 42q-68 28 -110 68q-85 -26 -105 4q-40 -35 -56 2q-33 -20 -63 2q-19 -35 -63 -19q-18 -52 -57 -18l-29 -20q24 -32 -2 -49q36 -40 -22 -35
q69 -92 -5 -125l-1 -28q28 -45 -3 -77q30 -13 41 -37l-21 -6q-5 -71 -26 -118q25 -25 -2 -49q54 -40 -3 -98q18 -46 -4 -91q32 6 41 -23l-42 2l20 -43l-22 -13q-1 -24 20 -29q-4 -20 -22 -20q19 -95 -5 -147q33 -16 40 -43l21 -1l-22 -41q19 -34 -3 -63l21 -1l-2 -63
q54 -43 38 -107q58 -39 59 -107q45 -24 61 -65l63 -3l-2 -42q51 0 85 18l-1 -21l63 -2q25 -44 84 -3q-3 34 -19 56q11 7 21 7l5 126l21 -1q17 -51 -3 -84q46 -29 -3 -84q29 -14 19 -43q45 1 76 -24q20 21 50 19l1 21q36 -6 62 -23q36 28 42 -2q32 18 64 19l1 42q49 -3 44 40
l84 -3q35 59 87 81l-20 36q49 33 45 82q11 7 21 6q-47 74 4 105q-20 36 3 56q1 25 -20 29q30 43 -19 64q20 35 44 54q-24 26 3 70q-36 22 -17 127l21 -1q-27 40 3 77q-47 9 -40 51q31 15 44 40q-46 32 3 84q-26 2 -42 15l43 13q-8 11 -21 15q-7 59 25 90l1 35l-21 8
q-2 30 23 34q-26 53 3 84q-29 11 1 21q-24 31 2 49q-35 39 2 56l1 42h-21q-3 65 -60 66l-7 21h-14q-19 -35 -63 -18zM1138 1128q-20 4 -20 22q19 -5 20 -22zM235 1141l1 21q27 -12 -1 -21zM76 832l8 21q20 -16 -8 -21zM1147 813q-11 -28 -21 0h21zM559 814q-3 19 -20 21
q2 -19 20 -21zM96 810l8 21q20 -16 -8 -21zM93 726l10 63q33 -40 -10 -63zM533 689q-20 3 -20 21q19 -4 20 -21zM111 641q-12 -32 -21 1zM1138 561q-13 -32 -21 1zM1132 414q-12 -32 -21 1zM517 248q-21 3 -21 22q20 -4 21 -22zM543 -173l1 42q102 -82 -1 -42zM326 -354
l1 21q27 -12 -1 -21zM555 -405l-21 1q9 -32 21 -1z" />
    <glyph glyph-name="V" unicode="V" horiz-adv-x="1145" 
d="M58 1146q-1 -34 -21 -49q36 -38 0 -56v-42q27 -7 21 -35q-1 -88 63 -91v-21h-42l7 -21l14 -7q-2 -28 21 -35q5 -102 42 -126q2 -51 21 -84q-39 -21 0 -126q-57 -44 0 -112l-21 -35q41 -16 42 -56l-21 -56q-2 -28 21 -35v-126h21q0 -74 63 -42v-84q36 -18 21 -63h21
q30 -112 -21 -147q20 -32 0 -63q46 -12 63 -42q55 27 105 0q-17 67 126 0q-27 52 0 84q-64 47 21 84q32 -55 0 -98l21 -49q57 26 63 0q61 32 98 -21q36 17 70 21q15 45 42 70q-32 48 21 77l-21 42h21q15 34 42 42l-21 28q7 11 21 14q-1 105 42 182q-32 77 -21 140
q16 25 42 35q-7 62 42 84q3 74 42 119l-21 7q7 32 -21 42q15 32 42 42q-28 32 0 42l-21 42l42 7q-23 25 0 49q-25 38 0 56q-33 57 21 105v70v77v35q37 23 21 77l21 28h-42q-19 43 -63 42q-39 56 -91 -21l-35 21l21 -42q-50 -4 -42 42q-91 -17 -133 21h-35q-12 -30 -42 -21
q-15 -34 -42 -42v-189q-19 -4 -21 -21q42 -30 42 -77q-26 -2 -42 14q3 -19 21 -21q-36 -62 21 -84q-3 -20 -21 -21q-24 -106 0 -105q8 -34 -21 -42v-161q-10 -7 -21 -7v-140q-22 -37 -42 -49q3 -19 21 -21v-224l-21 -21q38 -43 21 -133l-42 21q-2 45 21 77q-46 44 0 119v21
v91q-32 34 -21 77l21 21q-21 75 0 140q-4 19 -21 21q7 18 21 28q-31 33 0 140q-28 7 -21 35l21 28h-21q-17 70 -63 105q7 70 -21 119v21v28v126q-16 3 -21 14l21 21q-21 19 -21 49q-32 -7 -42 21q-47 -13 -63 21q-34 7 -42 -21q-20 3 -21 21q-19 -3 -21 -21q-69 32 -126 0
q-4 18 -21 21l-7 -21l-14 7q2 28 -21 35q-17 -46 -63 -42zM107 1146q16 -29 -7 0h7h-7h7zM730 1020v21q28 -11 0 -21zM58 999v21q28 -10 0 -21zM751 978q-20 3 -21 21q20 -3 21 -21zM79 915v42q38 -22 0 -42zM709 915l7 21q21 -15 -7 -21zM730 873v21q28 -10 0 -21z
M1087 474q-11 -32 -21 0h21zM604 -219v42q105 -78 0 -42zM688 -345q-11 -31 -21 0h21z" />
    <glyph glyph-name="W" unicode="W" horiz-adv-x="1705" 
d="M205 1294q-3 -20 -21 -21q40 -61 -63 -42v-63l-42 21q17 -81 -21 -105v-42h42v-56q26 -56 21 -112q40 -24 21 -77l21 -7l-21 -42h21q4 -59 42 -84q0 -44 21 -77q-10 -7 -21 -7v-168h21v-42q53 -37 21 -126h21q-3 -20 -21 -21q22 -47 0 -84q19 -31 21 -63h-21l21 -28v-161
l42 -21l-21 -42q45 -23 63 -63l84 21v-21q30 -12 21 -42q34 -15 42 -42q32 20 63 0v21q40 17 42 56v28v119v21v84l21 28h-21v28v119v21v84h21q25 -46 0 -70q30 -44 0 -77q30 -12 21 -42h21q-3 -20 -21 -21v-42q12 -49 -21 -63l21 -35q-23 -48 0 -91l-21 -14v-70h21
q12 -86 42 -42q64 6 63 63h21q-4 63 21 105q-21 2 -21 21h42q-32 89 21 126q-4 96 84 105q-6 39 -21 63l84 21l-21 -42q27 -9 0 -63q61 -44 42 -168l-21 -7q46 -49 0 -77v-56q22 -47 21 -91q67 14 63 -42q19 3 21 21q92 -11 126 63q50 4 42 -42h21q-7 32 21 42
q-6 -53 42 -21q10 -53 126 -21q0 51 42 63l-21 28q31 64 21 119h21q-23 43 0 77q-28 21 0 42q-38 42 21 70q1 34 21 49q-36 38 0 56q2 58 42 84l-21 42h42q-1 51 21 84q-29 100 0 168q-40 -7 -42 28q21 20 42 14q-47 62 21 63q-14 67 42 63q-7 32 21 42q7 70 -21 119
q11 7 21 7v21v126q55 39 21 168q-37 4 -63 21v-21q-57 -6 -98 21l-7 -21q-50 24 -91 21q-29 -20 -63 -21q-20 21 -14 42h-63q-13 -29 -42 -21q-15 -34 -42 -42q-35 -80 0 -140l-42 -7q-7 -34 21 -42l-21 -49v-98q40 -24 21 -77q-11 -7 -21 -7q22 -39 21 -84l-21 -7
q30 -36 -21 -98l-42 21q-12 48 21 63q-33 42 0 70q-47 62 -42 133l-21 28q18 4 21 21h-21q-12 96 21 168v42q-36 39 -42 84q-62 -7 -84 42h-42l21 -42q-31 -7 -42 21q-60 -36 -126 21v-21h-21q-54 -35 -105 -42q8 -47 -21 -70q36 -75 0 -77q13 -47 -21 -63q29 -46 -21 -105
q29 -10 0 -21q20 -32 0 -63q39 -23 21 -84l-42 21q8 -18 21 -28q9 -45 -21 -56q21 -37 0 -77l21 -98q15 -56 -21 -77v-35q38 -47 21 -112h-21v63h-21q-12 82 21 140l-21 7q7 32 -21 42q3 20 21 21q-18 44 -42 70v70v28v21v140l-21 7v77l21 21q-33 36 -42 70q30 16 42 42
q-53 -37 -42 35l42 7q-28 32 0 42q-22 39 -21 84q-21 2 -21 21q-47 -13 -63 21q-52 -28 -84 0q-12 -30 -42 -21q-2 -21 -21 -21q-19 43 -63 42q-12 -30 -42 -21zM212 1273q20 -32 -7 0h7h-7h7zM268 1273q-10 -32 -21 0h21zM352 1252v21q28 -11 0 -21zM1507 1231v21
q28 -10 0 -21zM1570 1252q-10 -28 -21 0h21zM1255 1042v21q28 -11 0 -21zM1675 1042v21q28 -11 0 -21zM1234 622q-12 -177 -63 0q33 -18 63 0zM1213 433v63q49 -33 0 -63zM1591 454q-20 3 -21 21q20 -3 21 -21zM1570 370v21q28 -11 0 -21zM1507 -71q-20 3 -21 21
q20 -3 21 -21zM352 -218v42q74 -33 0 -42zM730 -197q-10 -32 -21 0h21z" />
    <glyph glyph-name="X" unicode="X" horiz-adv-x="1175" 
d="M1070 1389q-59 -4 -84 -42q-20 3 -21 21q-45 -36 -42 21q-91 -43 -175 0q-24 -19 -56 -21q-12 -46 -42 -63q20 -93 -42 -126q0 -51 -42 -63l21 -42h-42q11 46 -21 63v70q-27 46 -21 91q-21 19 -21 49h-21h-21h-70h-28h-28h-21h-28h-126q-11 7 -14 21q-51 -19 -84 0v-21
l-21 -42q-17 -64 -21 -105q36 -18 21 -63q21 -2 21 -21q34 -15 42 -42q93 -15 84 -105q47 -17 42 -63l42 -21l-21 -35v-175l42 -21q-3 -20 -21 -21q3 -19 21 -21q-20 -40 -21 -84q-17 -64 -21 -105h-21q7 -32 -21 -42v-28q-7 -11 -21 -14q7 -32 -21 -42q15 -80 -42 -105v-42
q-39 -7 -63 -21q3 -45 -21 -77q26 -59 -21 -112q47 -17 42 -63q67 14 63 -42q32 20 63 0v21q180 51 252 -42h21q12 30 42 21q2 21 21 21q26 100 0 189l42 -21q-47 79 21 42l-21 49q-4 31 21 35v49v56v28v28v28v28v119v21v84l21 7q-9 11 -21 14v35v28v35v91v28v119v21v84
q32 -15 42 -42q-25 -10 -21 -35v-273q38 -112 0 -147q25 -25 0 -70q30 -13 0 -42q45 -16 0 -91q57 -78 0 -119v-84h21v-42h21q7 -63 21 -98q-24 -25 -21 -49q47 -17 42 -63q51 0 63 -42q61 -8 84 -63h21v-210h42q-1 209 21 105h21v21l21 126l42 -21q15 34 42 42v-147
q35 18 21 126q38 -23 21 -112q9 -11 21 -14q-29 137 63 147q12 46 42 63q-22 39 -21 84h-21q-31 48 -84 63v56q-89 111 -84 231q-42 50 -42 105l-21 7l21 42q-53 19 -21 63l-42 21q18 62 63 84l-42 98q10 7 21 7q-5 56 42 21q-27 55 -21 105l42 21v35q10 7 21 7v63l42 21v21
l7 21l14 7q4 55 21 91l42 7q0 51 42 63q-7 32 21 42q-19 31 -21 63h-42q-19 43 -63 42v-21zM251 675v21q28 -10 0 -21zM881 675v21q28 -10 0 -21zM881 633q-29 13 -21 42q31 -12 21 -42zM923 507q-11 -33 -21 0h21zM146 -144v21q28 -10 0 -21zM818 -158q-30 -3 -21 35
q26 -6 21 -35zM902 -123q-10 -71 -21 0h21zM818 -186l7 21q21 -15 -7 -21zM881 -270q-20 3 -21 21q20 -3 21 -21z" />
    <glyph glyph-name="Y" unicode="Y" horiz-adv-x="1495" 
d="M1448 1480h-18q9 -27 18 0zM188 1444v18h-36q-38 -46 36 -18zM1520 1444q27 9 0 18v-18zM242 1444h-18q9 -27 18 0zM1556 1354q-17 3 -18 18q-48 -4 -18 36l-36 -18l-18 36q-38 -19 -66 0l-6 -18q-35 17 -72 18q-15 -39 -54 -36q27 -37 -18 -54v-18q-25 14 -54 18v-36
q75 -10 18 -54q5 27 -18 36q-1 -30 18 -42q-20 -35 -18 -66q43 2 36 -36h18v-72q-28 14 -54 0l18 -24q-6 -10 -18 -12l18 -24q-24 -44 -18 -84q18 -2 18 -18q-31 4 -54 18l18 30l-18 18q9 6 18 6q-16 43 0 72q-18 41 0 72q-18 2 -18 18h18v18v24v18v120h-18h-72v-66
q-9 -6 -18 -6v-48q-37 -53 -36 -114h-36q9 -51 -18 -78v-18q-6 -10 -18 -12v-54h-18v-18l-18 -108h-36v-60q-6 -10 -18 -12v-66q-32 -42 -18 -90q-9 -6 -18 -6q-5 66 -30 108q-33 68 30 72q4 32 18 54q-34 -30 -72 -36v36q54 -1 36 72q52 1 54 72h-18q-7 -68 -90 -90v72
q43 2 72 18v18q-53 -8 -72 36h72v18q-27 -6 -36 18q-37 -27 -54 18q-28 13 -36 36q-27 -16 -54 -18q15 27 18 54h-18q6 -29 -18 -36v24q-35 62 -36 120q-31 16 -18 54q-43 -2 -36 36q-189 -20 -144 54q-38 -27 -54 18h-18l-18 -72q-34 20 -18 72h-18q5 -49 -42 -18
q-26 -25 -48 -36q-17 28 0 54q-18 2 -18 18h-18q-14 -84 -72 18h-36q-5 -45 36 -18q10 -42 -18 -54q11 -41 -18 -54q-9 55 -54 72q31 -37 36 -72h18q-19 -39 -18 -78q-7 -10 -18 -12q-19 30 0 -18q-26 -11 -18 -36h18q5 67 24 0q10 -6 12 -18q49 3 18 -36q54 -3 54 -54h18
q-7 47 54 18q-11 -25 -36 -18q-21 -63 -72 -36q17 -39 54 -36q-11 -110 -36 -18h-18v-36q33 -20 18 -72q33 5 54 18q3 -43 -36 -36l18 -30l-18 -24q3 -16 18 -18v-18q-18 -65 -18 -108q-44 16 -18 54q-63 -40 -36 -108q-25 14 -54 18q-11 -66 -36 -108q18 -2 18 -18
q-16 -4 -18 -18q68 28 90 -36l-72 18q10 -43 36 -72h18q-35 84 90 0q-18 73 36 72q-22 -47 -18 -90h-36q-45 -58 -72 0q-28 -24 -36 0q-25 -12 -18 -36q64 -12 54 -72q45 -29 18 -72q26 14 36 36q-46 33 -36 90q50 -28 90 -36q-11 -25 -36 -18q17 -31 36 -48q-30 -29 18 -6
v-36q28 17 54 0q-17 39 -54 36v18q38 26 54 -18h18q4 32 18 54q-33 -29 -60 0l-30 -18q-2 44 -18 72h18h72q-6 27 18 36q17 -44 0 -72q30 -2 48 -18q19 23 36 0q19 23 36 0q4 26 24 36q9 -24 36 -18q-31 -47 18 -18q-32 53 18 72v18q-98 -68 -54 18q-29 -6 -36 18
q54 31 60 -18q14 55 48 72q37 -93 -18 -54v-18q69 -27 36 -90q28 -16 54 0v-54h36q19 -93 -36 -90q-22 -99 -120 -90q-50 -43 -24 18h-18q-16 -45 -54 -18q-2 -18 -18 -18q6 27 -18 36q1 -51 -54 -36q27 42 -18 36q2 -43 -36 -36q31 -39 -18 -36q0 49 -54 36q10 27 36 18
q-12 25 -36 18l-18 -36q40 -15 36 -54q-78 48 -60 -18h-48q-3 -54 -54 -54q14 -26 36 -36q12 -68 -36 -36v-18q44 -15 18 -54l36 18q-4 -32 -18 -54q44 -28 54 -72l36 18q13 -38 36 -54q-13 54 18 72v-54h54v-18q55 -15 90 -18q-11 41 18 54q48 4 18 -36q49 25 72 -18
q65 32 72 -36h18q-16 52 -18 90q27 -15 54 -18q-14 -25 -18 -54q97 -34 54 72q56 -11 54 36q40 -24 0 -72q28 17 54 0q-8 47 54 18q16 28 0 54q-44 -23 -72 0v18q110 1 72 90q45 0 72 -18q-1 66 90 72q8 44 36 72q-18 2 -18 18h24q36 51 30 108h18q3 53 54 54q-10 40 18 54
v36q-34 20 -18 72q-18 2 -18 18q55 -1 36 -72h18v54q45 1 54 60q6 10 18 12q-11 41 18 54v18v18v48q-2 55 6 96q22 -34 12 -72h36v36q22 8 18 30q17 41 18 78h18l18 102l36 6v54h18v24q6 10 18 12q-7 62 36 90v36q27 -13 36 -36q16 7 24 18q41 -24 84 -18v18q-30 2 -48 18
q-16 -21 -30 0q-33 -31 -30 18q-41 23 54 18q4 54 54 54q-19 34 -18 72q27 -10 18 -36q14 -3 18 -12q1 -71 54 -6q-43 -2 -36 36l36 -18q28 17 54 0q13 28 36 36l-18 42q-5 10 -12 12q-49 -37 12 54h-54q20 34 72 18v18q-91 24 18 36v18q-45 0 -72 18q31 -41 -18 -36
q-11 -25 -36 -18q7 64 -48 72h-6h6h-6v18q64 5 36 90h-18q4 -54 -18 -90zM260 1408q27 9 0 18v-18zM296 1408q27 9 0 18v-18zM1328 1408q17 -28 -6 0h6h-6h6zM1484 1390q-11 -25 -36 -18q39 -49 -12 -54l-6 36q-38 22 6 54q22 -15 48 -18zM1376 1372v18q24 -9 0 -18z
M1628 1372q58 9 0 18v-18zM116 1372q-9 -24 -18 0h18zM1322 1354l6 18q89 -11 -6 -18zM422 1354q27 9 0 18v-18zM1250 1372h-18q9 -27 18 0zM224 1318l6 36q24 -23 -6 -36zM1538 1354q-9 -24 -18 0h18zM1628 1354h-18q9 -27 18 0zM278 1336q-9 -28 -18 0h18zM332 1318v18
q24 -9 0 -18zM386 1336q-9 -24 -18 0h18zM-28 1300q27 9 0 18v-18zM-28 1264q27 9 0 18v-18zM1574 1228q-17 3 -18 18q18 -2 18 -18zM1628 1192q48 4 18 -36q-63 21 -36 72q25 -11 18 -36zM1736 1210q27 9 0 18v-18zM26 1192l6 18q17 -12 -6 -18zM44 1174l6 18
q52 -12 -6 -18zM1718 1174q27 9 0 18v-18zM1754 1174q27 9 0 18v-18zM98 1156v18q24 -9 0 -18zM1556 1174q-19 -35 -36 0h36zM1610 1174q-9 -24 -18 0h18zM1214 1156h-18q9 -27 18 0zM1754 1156h-36q31 -61 36 0zM134 1138q-9 -28 -18 0h18zM1556 1138q-10 -26 -18 0h18z
M1628 1096q-19 -12 -36 6l18 36q47 -12 18 -42zM746 1102q35 19 0 36v-36zM1556 1102l6 18q18 -13 -6 -18zM1700 1120q-10 -28 -18 0h18zM710 1102q27 9 0 18v-18zM152 1084v18q24 -9 0 -18zM62 1084h-18q9 -27 18 0zM782 1084h-36q31 -61 36 0zM1502 1048v18q24 -9 0 -18z
M692 1048q-9 -24 -18 0h18zM1502 1012q-25 11 -18 36q27 -10 18 -36zM854 1030q-3 16 -18 18q3 -16 18 -18zM1664 976q-18 29 0 54q-3 16 -18 18q-25 -59 18 -72zM206 1030q-48 -104 -48 0h48zM692 994v18q62 -9 0 -18zM764 1012q-10 -28 -18 0h18zM1448 994v18q24 -9 0 -18
zM872 1012h-18q9 -27 18 0zM1574 976q27 -5 36 18q-44 -1 -72 18q-31 -82 36 -36zM710 958v18q24 -9 0 -18zM764 976q-10 -28 -18 0h18zM1214 958v18q24 -9 0 -18zM854 958q27 9 0 18v-18zM152 922v18q24 -9 0 -18zM206 904v18q24 -9 0 -18zM890 904q27 9 0 18v-18zM134 904
q-9 -24 -18 0h18zM800 904h-18q9 -27 18 0zM746 886q-9 -28 -18 0h18zM1196 832h18q-6 27 18 36q-4 -65 -36 -102q18 -14 18 -36l-18 -24h36q-11 -25 -36 -18q2 -43 -36 -36l18 30v18v24v108l-18 6q15 22 18 48q31 -14 18 -54zM1484 886h-18q9 -27 18 0zM242 850
q-9 -28 -18 0h18zM782 814l6 36q24 -23 -6 -36zM836 832q58 9 0 18v-18zM98 832h-18q9 -27 18 0zM782 814q-10 -28 -18 0h18zM188 778q-38 -64 -30 0h30zM242 760q-9 -28 -18 0h18zM782 760q-9 -24 -18 0h18zM260 724v18q24 -9 0 -18zM80 742h-18q41 -64 18 0zM44 670h-18
q9 -27 18 0zM242 634v18q62 -9 0 -18zM98 634q-10 -28 -18 0h18zM134 598v-18q29 -13 36 -36q-69 11 -72 72q27 -5 36 18q63 -29 0 -36zM242 616q-18 2 -18 18q16 -3 18 -18zM350 634q-9 -28 -18 0h18zM8 616q27 9 0 18v-18zM422 562q-25 11 -18 36q25 -11 18 -36zM1196 598
q-9 -61 -18 0h18zM80 544v18q24 -9 0 -18zM80 544q-9 -24 -18 0h18zM242 544q-9 -28 -18 0h18zM26 508v18q24 -9 0 -18zM98 508v18q24 -9 0 -18zM422 508q-17 3 -18 18q18 -2 18 -18zM26 508q-10 -28 -18 0h18zM98 508q-9 -24 -18 0h18zM170 508q-9 -28 -18 0h18zM296 508
q-10 -26 -18 0h18zM26 472l6 18q17 -12 -6 -18zM62 472v18q28 -10 0 -18zM68 454q16 -27 -6 0h6h-6h6zM116 436v18q24 -9 0 -18zM170 436v18q24 -9 0 -18zM278 454q-9 -28 -18 0h18zM368 400v54q42 -28 0 -54zM476 436v18q24 -9 0 -18zM-40 400q14 19 0 36v-36zM26 418
q-9 -28 -18 0h18zM170 400l6 18q52 -12 -6 -18zM440 400q-17 3 -18 18q18 -2 18 -18zM224 352q-10 -45 -54 -42l18 72q37 5 36 -30zM260 364v18q24 -9 0 -18zM386 382q-3 -16 -18 -18q16 -27 18 -54q-63 22 -36 72h36zM-10 364q-3 16 -18 18q3 -16 18 -18zM80 346
q-3 16 -18 18q3 -16 18 -18zM296 328v18q24 -9 0 -18zM782 328v18q24 -9 0 -18zM998 328v18q24 -9 0 -18zM122 328q17 -28 -6 0h6h-6h6zM296 328q-9 -60 -18 0h18zM116 310q-10 -28 -18 0h18zM350 274q-11 19 -12 36q85 -23 12 -36zM674 310q-9 -28 -18 0h18zM782 310
q-9 -28 -18 0h18zM962 292v18q24 -9 0 -18zM116 274l6 18q18 -13 -6 -18zM332 292q-39 -63 -30 0h30zM818 292q-9 -28 -18 0h18zM962 238q34 -20 -18 -36v18v72q31 -15 18 -54zM494 292h-18q9 -58 18 0zM530 256l6 18q17 -12 -6 -18zM728 256v18q24 -9 0 -18zM926 274
q-10 -75 -54 -18q27 -6 36 18h18zM998 256l6 18q51 -11 -6 -18zM1106 256q-28 -7 -36 18q26 6 36 -18zM-10 256q58 9 0 18v-18zM242 274h-54q28 -41 54 0zM818 238v18q24 -9 0 -18zM980 238v18q28 -9 0 -18zM674 220v18q24 -9 0 -18zM746 220v18q24 -9 0 -18zM818 238
q-9 -24 -18 0h18zM998 220l6 18q17 -12 -6 -18zM-10 220q58 9 0 18v-18zM170 220q-9 -28 -18 0h18zM944 184q26 13 42 36q16 -113 -42 -36zM386 202q-3 16 -18 18q3 -16 18 -18zM782 202q-10 -26 -18 0h18zM800 184v18q24 -9 0 -18zM908 166q-25 11 -18 36q25 -11 18 -36z
M-10 184q27 9 0 18v-18zM296 184q-3 16 -18 18q3 -16 18 -18zM998 130l6 54q30 -33 -6 -54zM44 184h-18q9 -27 18 0zM836 130h-36q0 -45 -18 -72q-32 19 0 36q-5 33 -18 54q30 0 42 18q38 -2 30 -36zM872 166q-9 -28 -18 0h18zM944 166q-10 -28 -18 0h18zM674 130v18
q24 -9 0 -18zM980 130q-19 -34 -18 -72q-42 -3 -36 36q-27 -6 -36 18q53 -10 60 36zM1034 130v18q24 -9 0 -18zM836 112l6 18q17 -12 -6 -18zM836 112q-8 -61 -18 0h18zM872 58q-17 3 -18 18q18 -2 18 -18zM944 4q41 -31 -36 0v54q39 -15 36 -54zM836 -2q-26 -10 -54 6
l24 36q71 -28 30 -42zM80 4q27 9 0 18v-18zM998 -14q27 9 0 18v-18zM872 -32v18q24 -9 0 -18zM908 -50v36q63 -29 0 -36zM890 -50q-25 -96 -54 18q25 -14 54 -18zM134 -50q-10 -28 -18 0h18zM134 -86l6 18q18 -13 -6 -18zM44 -140q14 25 18 54q58 -45 -18 -54zM134 -86
q-9 -24 -18 0h18zM170 -104v18q24 -9 0 -18zM-10 -104q27 9 0 18v-18zM116 -140q-25 11 -18 36q27 -10 18 -36zM152 -140v18q24 -9 0 -18zM206 -158l6 36q24 -23 -6 -36zM152 -140q-9 -24 -18 0h18zM62 -194v36q63 -29 0 -36zM134 -158q-9 -24 -18 0h18zM-10 -176
q-3 16 -18 18q3 -16 18 -18zM188 -194v18q62 -9 0 -18zM134 -194q-10 -26 -18 0h18zM152 -212v18q24 -9 0 -18zM98 -212q-10 -27 -36 -18q-4 -21 -18 -6q-13 9 -12 24h66zM62 -302l6 54q30 -33 -6 -54zM188 -266q10 -42 -18 -54q1 42 -36 36q-9 -56 -54 -72q-12 55 36 54
q-21 33 6 54q35 -20 66 -18zM206 -266q-16 3 -18 18q18 -2 18 -18zM242 -284v18q24 -9 0 -18zM530 -266q-10 -26 -18 0h18zM746 -266q-20 -35 -36 0h36zM800 -266h-18q9 -58 18 0zM242 -284q-9 -24 -18 0h18zM512 -320q-43 -3 -36 36q28 -13 36 -36zM530 -320l6 36
q24 -23 -6 -36zM584 -302v18q24 -9 0 -18zM638 -320v36q94 0 0 -36zM350 -302q-10 -26 -18 0h18zM440 -320v18q24 -9 0 -18zM584 -302q-9 -24 -18 0h18zM242 -338v18q24 -9 0 -18zM356 -320q17 -28 -6 0h6h-6h6zM404 -338q-18 2 -18 18q18 -2 18 -18zM638 -320
q-10 -28 -18 0h18zM242 -338q-19 -32 -36 0h36zM350 -338q-9 -24 -18 0h18zM440 -356v18q24 -9 0 -18zM476 -356v18q24 -9 0 -18zM584 -356v18q24 -9 0 -18zM368 -374v18q24 -9 0 -18zM512 -374v18q24 -9 0 -18zM584 -356q-30 -64 -36 0h36zM692 -356q-10 -28 -18 0h18z
M224 -392v18q24 -9 0 -18zM392 -374h66q-37 -50 -72 0h6h-6h6zM584 -410q-9 -24 -18 0h18zM368 -464q27 9 0 18v-18zM440 -464q27 9 0 18v-18z" />
    <glyph glyph-name="Z" unicode="Z" horiz-adv-x="1524" 
d="M941 1820q-46 1 -63 -63h-21h-126v-21q-45 -25 -63 -63h63q-40 102 84 42q12 30 42 21q20 -82 -35 -84q-54 31 -63 -21q48 31 77 -21q-32 -20 -28 -63q-49 1 -14 42q-74 -3 -21 -84q-78 -13 -63 63q-74 -34 -42 42q-20 3 -21 21q-19 -3 -21 -21q28 -12 0 -42
q39 -5 0 -105q-50 1 -63 42q-45 -36 -42 21q-72 -34 -147 -21q-37 -53 -42 21q-29 -14 -21 -42q-15 4 -21 14l-28 7h-35q-35 46 -84 42q-12 -30 -42 -21q14 -67 -42 -63v-63q16 -4 21 -14q-17 -42 0 -70q-51 -36 0 -98q-10 -7 -21 -7v-21q30 -12 21 -42q21 -2 21 -21
q35 -2 56 -21q13 20 35 21h35h21h28h21h140q9 -71 -21 -119l21 -28h-42q-8 -73 -63 -105q0 -51 -42 -63q7 -32 -21 -42q1 -81 -63 -105q-7 -34 21 -42q-30 -65 -21 -126h-21l-21 -126h-21q2 -50 -42 -42q-9 -64 -63 -84q33 -154 -42 -273h21q-10 -79 63 -84q27 -43 84 0
l7 -21q71 66 119 0q64 15 84 -21q35 19 21 63q29 -13 21 -42h84q37 -148 -63 -105l21 -42q46 24 63 63q31 -18 63 -21v21q-51 -4 -42 42q86 -35 42 21q81 -11 42 -84h42q18 51 63 21q-47 61 -21 105q36 -17 21 -63h42q0 68 63 21q13 29 42 21q-61 65 105 21q-4 57 42 21
q2 21 21 21q2 58 42 84q4 57 -21 98q19 18 21 35q-17 21 -21 49l21 28q-19 30 -28 63h-7h7h-7q-21 21 -49 0q7 32 -21 42v35v21v28v28v28v28v119v21v84q11 7 21 7l-21 42q26 1 42 14q-50 26 -21 70q-16 4 -21 14l42 7v21q-50 -2 -42 42q107 -28 63 -84h21q25 49 0 84
q72 37 84 105l42 -21l-42 63q39 7 63 21q17 -30 42 -42q17 64 21 105q20 -3 21 -21q50 -64 21 21q54 -18 84 0q-68 92 0 84v21h21q-7 -60 42 -84q-30 58 21 84v42q-34 -7 -42 21q-19 -3 -21 -21q-54 37 21 42v21q-111 57 -21 63v56q-12 44 -63 28q26 37 63 42
q-35 55 -42 105h-21q-18 -97 -105 -21q-3 -49 42 -42v-21q-114 0 -42 91q3 22 63 -28q-21 34 0 63q-47 -27 -105 21q35 -46 -21 -42q39 -79 -42 -84q30 45 -21 63q21 -34 0 -63q-25 8 -21 35q-31 21 0 28q-3 49 -42 63q41 -102 -63 -63q-15 -34 -42 -42v21v84q20 -3 21 -21
q31 19 63 21v42h-84q1 52 -7 84h-14v-42zM1151 1757h-21q10 -32 21 0zM1277 1757h-21q10 -32 21 0zM899 1673q-29 13 -21 42q29 -13 21 -42zM647 1715h-21q10 -32 21 0zM773 1715h-21q10 -32 21 0zM1130 1694q68 10 0 21v-21zM605 1673q-3 19 -21 21q3 -19 21 -21zM521 1631
q3 -49 42 -63q-37 43 0 63q22 -40 42 0q-34 -7 -42 21l-42 -21q2 49 -42 42q17 -30 42 -42zM899 1610v42q38 -22 0 -42zM1046 1652q-10 -28 -21 0h21zM416 1631q21 -48 0 -84q59 26 21 84q19 4 21 21h-21q-3 -20 -21 -21zM668 1631q32 11 0 21v-21zM1067 1610v21
q28 -10 0 -21zM1067 1589q-31 -7 -42 21q32 8 42 -21zM710 1589q32 11 0 21v-21zM857 1568q-20 3 -21 21q20 -3 21 -21zM920 1568q-20 3 -21 21q20 -3 21 -21zM1193 1589q-11 -32 -21 0h21zM1235 1589q-11 -33 -21 0h21zM1403 1568q-46 -12 -63 21q46 12 63 -21zM479 1547
q71 7 0 42v-42zM584 1505q68 39 0 84v-84zM983 1547v21q72 -10 0 -21zM1088 1568q-10 -32 -21 0h21zM1130 1568q-10 -71 -21 0h21zM1340 1568q-33 -73 -42 0h42zM920 1547q-10 -32 -21 0h21zM1235 1484v21q25 16 28 42q44 -58 -28 -63zM542 1526q32 10 0 21v-21zM1445 1484
q87 12 21 63q-4 -37 -21 -63zM185 1526q-11 -28 -21 0h21zM668 1505v21q28 -10 0 -21zM1088 1526q-10 -32 -21 0h21zM1172 1526q-10 -32 -21 0h21zM1361 1463v42q73 -33 0 -42zM248 1442v42q109 -41 0 -42zM836 1463q-20 3 -21 21q20 -3 21 -21zM1088 1484q-10 -32 -21 0h21
zM1235 1484q-22 -38 -42 0h42zM1298 1463v21q28 -10 0 -21zM1256 1442v21q28 -11 0 -21zM1466 1421q32 11 0 21v-21zM1529 1442h-21q10 -32 21 0zM1277 1379v21q28 -10 0 -21zM1340 1400q-10 -32 -21 0h21zM1403 1400q-22 -38 -42 0h42zM1508 1379l-42 21q73 -149 42 -21z
M1277 1379q-11 -72 -21 0h21zM1550 1379h-21q11 -32 21 0zM1214 1316v21q28 -10 0 -21zM1319 1316v21q71 -9 0 -21zM1235 1274l7 42q80 -74 -7 -42zM1340 1274q-10 -32 -21 0h21zM101 1211v21q28 -10 0 -21zM1151 1232q-11 -31 -21 0h21zM1235 1211q-34 -8 -42 21
q31 7 42 -21zM1340 1232q37 -68 -42 -21q-2 -21 -21 -21v42h63zM1067 1190v21q28 -11 0 -21zM1151 1169l7 42q28 -26 -7 -42zM1256 1127q-19 4 -21 21q20 -3 21 -21zM1214 1106v21q33 -11 0 -21zM1067 1085v21q72 -10 0 -21zM1319 1106h-21q10 -32 21 0zM1109 1043v21
q28 -10 0 -21zM1025 1022v21q28 -11 0 -21zM1109 1001v21q28 -10 0 -21zM1067 1001q-11 -32 -21 0h21zM1109 1001q-11 -33 -21 0h21zM1193 980q32 10 0 21v-21zM1109 896q47 -77 -21 -42q48 -78 63 21l21 7q12 59 -42 56q7 -34 -21 -42zM1130 875l7 21q20 -15 -7 -21z
M878 833l21 42q54 -37 -21 -42zM815 770v21q28 -10 0 -21zM815 770q-11 -33 -21 0h21zM843 770h56v-168q-18 -4 -21 -21q16 -3 21 -14l-21 -21l21 -14q4 -31 -21 -35q3 -19 21 -21v-273q-53 38 -21 126q-35 -28 -42 0l-42 -21q-27 43 -84 0q-6 38 -21 63q-19 -4 -21 -21
q-21 2 -21 21q-81 -13 -42 42v21q80 14 42 -42h42v28q36 45 -21 14q-12 30 -42 21q15 32 42 42q-17 66 63 84v42l42 -21q-38 44 0 63q-2 50 42 42q4 40 21 63h7h-7h7zM836 707q32 11 0 21v-21zM962 686q16 -106 -21 -126v126h21zM794 581l42 -21q3 49 -42 42v-21zM815 434
q32 10 0 21v-21zM773 413h-21q10 -32 21 0zM1025 413h-21q10 -32 21 0zM962 308q-39 23 -21 84q39 -23 21 -84zM773 350q32 10 0 21v-21zM668 308l7 42q28 -27 -7 -42zM815 -133v21q28 -10 0 -21zM542 -154v21q28 -11 0 -21zM542 -154q-11 -33 -21 0h21zM689 -154
q-21 -89 -42 0h42zM395 -217v-21q61 53 84 21v42q-50 -11 -84 -42q-3 52 -63 63q15 -64 63 -63zM878 -175q32 11 0 21v-21zM815 -196h-21q-27 -75 21 0zM878 -196h-21q11 -32 21 0zM689 -280q75 5 21 42zM584 -280q32 10 0 21v-21zM647 -343q14 64 -21 84q-14 -64 21 -84z
M815 -259h-42q22 -41 42 0zM479 -322q68 10 0 21v-21zM563 -301h-21q10 -32 21 0zM689 -301h-21q10 -32 21 0zM563 -364q68 10 0 21v-21z" />
    <glyph glyph-name="bracketleft" unicode="[" horiz-adv-x="282" 
 />
    <glyph glyph-name="backslash" unicode="\" horiz-adv-x="318" 
 />
    <glyph glyph-name="bracketright" unicode="]" horiz-adv-x="312" 
 />
    <glyph glyph-name="asciicircum" unicode="^" horiz-adv-x="330" 
 />
    <glyph glyph-name="underscore" unicode="_" horiz-adv-x="490" 
 />
    <glyph glyph-name="grave" unicode="`" horiz-adv-x="357" 
 />
    <glyph glyph-name="a" unicode="a" horiz-adv-x="1185" 
d="M379 1133q33 -12 46 -37q-62 -17 -88 32l-21 -3l-11 -86q31 -8 26 -39q21 1 23 -18q-51 -8 -81 -31q18 -45 -14 -65q11 -56 -39 -25q50 -156 -7 -128q23 -61 -11 -86q33 -31 5 -42q32 -28 5 -41q5 -19 23 -19q-1 -20 -18 -23q22 -92 -48 -132q49 -83 -28 -130l5 -42
q-28 -20 -37 -47q-83 15 -46 37q21 43 -21 61q-34 -14 -19 40l-14 -1l14 1l-14 -1q-1 -21 -19 -24q25 -42 68 -34q-11 -34 -37 -47q36 -55 91 -53l2 -20q31 13 -2 20q11 34 37 47q6 -17 23 -19q-1 -20 -19 -23q23 -78 -37 -46q34 -42 -12 -72q23 -16 43 -9q-1 -21 -19 -24
q6 -18 24 -18q-5 -19 -18 -30q10 -82 -5 -142l-21 -2q14 -61 -32 -88q41 -94 17 -146l98 11l76 9l35 4l21 2l28 3l20 3l139 16q-10 31 16 44q-21 80 5 141l-8 70l-3 28l-3 27l-3 21l-3 28l-14 125l21 3l-7 55q49 89 22 179l42 5q-37 34 14 58l-45 23q5 19 18 30l-16 139
q32 -13 65 -13q-1 -21 -19 -24q5 -18 23 -18q-5 -84 33 -102l5 -42l-21 -2q21 -28 47 -37q2 -86 38 -144q-35 -2 -58 15q-74 -58 -109 -34q5 -19 23 -18q-10 -31 -39 -26l26 -230q-17 -6 -18 -23q31 -8 25 -39q21 0 24 -19l21 3q-16 66 83 9q12 55 60 28q45 70 23 -18l40 26
l14 -125q42 -21 33 -102q89 30 130 -28q30 24 63 8l-5 41q34 -12 53 -36q103 54 165 -23l21 2q-30 63 -14 119q-31 45 -10 90q-58 27 -31 81l-44 16l-2 21l-15 125q-28 4 -25 32q29 49 11 93q-89 28 -55 114q-40 16 -13 111q-32 8 -26 39q-55 -14 -28 60q-59 -7 -49 58
l-42 -5q1 21 19 24q-8 44 12 79q-49 2 -48 43q-16 3 -22 12l18 23q-68 59 -13 111q-23 30 -7 63q-31 8 -25 39q-49 12 -49 58q-64 30 -75 97q-61 -14 -88 32l-21 -2q8 -61 -19 -23q-47 -9 -53 36q-43 -25 -84 -10q-27 -75 -55 -6q-43 -42 -44 16l-21 -3q-21 -37 5 -41z
M608 1159q31 14 -2 21zM530 1108l-3 21q29 -8 3 -21zM377 963q-6 -33 -21 -2zM433 843q56 -26 72 -76q-62 -3 -69 55q-64 30 -75 97q78 1 72 -76zM250 779l-2 21q29 -7 2 -21zM575 711q23 -132 -11 -86q-49 12 -49 58l-21 -2q-9 52 18 86q33 -42 63 -56zM225 629l5 21
q23 -12 -5 -21zM579 500q30 15 -3 21zM31 120q3 34 -26 39q-3 -34 26 -39zM638 169l-2 21q29 -7 2 -21zM35 78q78 -18 -2 21zM739 -158q31 15 -2 21zM993 -340l-3 21q29 -7 3 -21zM1097 -328l-2 21q29 -7 2 -21zM977 -384q-20 29 -47 37q20 -29 47 -37zM1146 -385
q31 13 -2 20z" />
    <glyph glyph-name="b" unicode="b" horiz-adv-x="1250" 
d="M199 1550q99 -2 21 42zM178 1550h-21q-41 -117 21 0zM241 1529h-21q10 -32 21 0zM304 1508q-3 19 -21 21q3 -19 21 -21zM311 1445q-39 -20 -70 0q-59 -89 -147 -42q24 55 0 105h-35h-7h7h-7q20 -32 0 -63l42 21q6 -30 -21 -42q9 -66 -63 0v-21q73 -25 42 -84
q40 -22 -21 -21q2 57 -63 42q19 -44 63 -42q23 -77 0 -126q46 -17 42 -63q-48 32 -42 -21q127 44 105 -126q39 5 63 21q14 -80 -42 -42q16 -31 42 -42v-35q-22 -89 -21 -147l42 -14q-28 -52 -21 -98q-47 -31 0 -70q-7 -11 -21 -14v-77q29 -31 21 -70h42q-34 -93 -21 -189h21
q-3 -20 -21 -21q26 -56 0 -91q26 -39 21 -77h21q-3 -20 -21 -21q19 -31 21 -63q81 -12 84 -84h21q-7 32 21 42v-168h42q-19 164 42 147q-2 50 42 42v42q55 4 21 -42q19 3 21 21q64 -17 105 -21q-12 47 21 63v-42q35 0 49 21q37 -22 70 -21q84 34 154 0v21h28q39 26 77 21
q12 30 42 21q25 -46 63 -63v-168q70 -38 84 28v77q-68 40 -42 168q53 32 77 84q35 82 7 161q3 40 21 70q-47 28 0 84q-30 12 -21 42l-21 7v56h-21v42q-74 44 -105 105h-42v63h42v42h42v42h21v28q40 62 42 119q28 11 21 42q-16 4 -21 14q11 7 21 7v56v21v91q-36 18 -21 63
q-34 15 -42 42q-73 8 -105 63h-63v21q-64 -15 -84 21h-28h-119h-21h-84q10 -64 -42 -84v84q18 4 21 21q-90 -32 -126 21q-55 -27 -105 -21q-3 49 -42 63q35 -46 -21 -42q-2 -21 -21 -21q38 81 -21 105q34 -125 -35 -84zM262 1487h-21q11 -32 21 0zM283 1466q32 10 0 21v-21z
M136 1424q60 21 21 42zM248 1424q13 -27 -7 0h7h-7h7zM451 1424q-11 -28 -21 0h21zM73 1361l7 21q20 -15 -7 -21zM94 1340l7 21q21 -15 -7 -21zM241 1361q-11 -32 -21 0h21zM136 1319v21q28 -10 0 -21zM136 1319q-10 -28 -21 0h21zM192 1277l-56 -49q-42 -32 -42 28
q60 5 70 63q47 0 28 -42zM661 1256v21q25 16 28 42q44 -58 -28 -63zM52 1256v21q28 -11 0 -21zM1207 1256q-11 -32 -21 0h21zM703 1235q14 -81 -42 -42l21 42h21zM178 1193q-7 -32 21 -42q-33 -74 -42 0q-50 1 -63 42h84zM10 1172q-3 19 -21 21q3 -19 21 -21zM94 1172
q-10 -32 -21 0h21zM703 1130q127 1 126 -84h21q35 -201 -126 -231q-10 -29 -21 0q-41 17 -42 56q26 2 42 -14q-20 32 0 63q-73 55 -21 161q-35 42 -21 91q32 -15 42 -42zM-11 1130q32 10 0 21v-21zM122 1130q49 -55 98 -21q-1 -50 -42 -63q-22 -40 -21 21q-44 22 -42 63h7
h-7h7zM94 1046h-21q11 -32 21 0zM185 1025h35q-9 -78 -42 0h7h-7h7zM178 1004q-11 -33 -21 0h21zM241 983v21q28 -10 0 -21zM227 983q35 -39 -7 -63v63h7h-7h7zM682 815q-10 -28 -21 0h21zM682 668h-21q7 64 21 105q39 -5 0 -105zM682 605q55 -20 21 -84q29 14 21 42
q49 12 63 -21q49 10 70 -84q11 -31 -7 -63q38 -22 0 -42q-1 -49 -42 -70q-63 -31 -63 -77h-42q7 -32 -21 -42q3 -19 21 -21q-7 -18 -21 -28v-35q36 -18 21 -63h-21q-4 -62 -63 -63q5 37 21 63h-21q15 32 42 42v28v21v140l42 28l-21 21q36 61 0 112l21 28q-62 44 -42 210
q29 -13 21 -42zM325 -109v21q28 -10 0 -21z" />
    <glyph glyph-name="c" unicode="c" horiz-adv-x="1179" 
d="M557 1221v-21q-53 0 -84 21v-21h-98q-42 -35 -91 -21q-17 -47 -63 -42q2 -50 -42 -42q-17 -47 -63 -42q0 -51 -42 -63q0 -51 -42 -63q3 -19 21 -21q-3 -20 -21 -21q9 -102 -21 -175q24 -34 0 -56q40 -7 0 -70l21 -35q-35 -19 0 -63q-54 -40 0 -119q-52 -53 0 -91
q-3 -20 -21 -21v-21q30 -12 21 -42q16 -4 21 -14q-2 -25 -21 -35v-161h21q5 -63 63 -63v-42h-42q1 -51 -21 -84l84 21q11 -28 42 -21q2 -51 21 -84q35 -2 56 -21q16 35 112 -7q24 -36 63 -35v-21q52 28 84 0q11 29 21 0q32 20 63 0v21h21q-1 40 14 63l28 -63q35 0 49 21
q40 -23 77 -21v42q146 7 210 105q39 7 63 21q4 38 21 70q-12 79 21 133q-6 59 21 105q31 39 42 70h-21q-21 77 -84 84v21q-156 -66 -294 0q-12 -30 -42 -21q-27 -83 -63 -105q3 -19 21 -21l-21 -35q22 -36 0 -63q34 -33 0 -70q21 -2 21 -21l-42 -28q19 -24 21 -56
q-50 32 -63 84h-35q-85 109 -49 231l-21 35l21 28q-30 12 -21 42q3 20 21 21q-29 59 0 91l-21 28q3 49 21 77l-21 21l21 56q0 44 -21 77q-7 48 21 77q-24 34 0 56q-30 12 -21 42q55 27 105 21v98q-31 84 -21 154h21q0 -44 21 -77l-21 -28h21v-182l21 -7q-7 -32 21 -42
q-3 -20 -21 -21q48 -69 21 -126q30 -12 21 -42q49 -1 70 -42q54 30 112 21q19 21 49 21v-21q31 24 49 0q23 27 42 0q24 19 56 21v21h21q4 37 21 63q-25 46 0 70q-38 55 21 77v21q-47 17 -42 63q-99 8 -63 84q-30 12 -21 42q-63 3 -63 63h-63q-50 69 -126 63v21
q-73 8 -105 63h-42q-13 -29 -42 -21zM599 1116q-4 58 7 105q50 -65 -7 -105zM914 591v21q28 -10 0 -21zM494 423q-11 -33 -21 0h21zM641 -123q52 -137 -21 -126q7 18 21 28q-28 50 -21 98h21zM116 -165v21q28 -10 0 -21zM956 -228v21q28 -10 0 -21zM242 -291v21
q28 -10 0 -21zM641 -291v21q28 -10 0 -21z" />
    <glyph glyph-name="d" unicode="d" horiz-adv-x="1115" 
d="M41 1423q36 -45 -21 -42q28 -32 0 -42l21 -28q-7 -11 -21 -14q22 -94 0 -147q32 7 42 -21h-21q7 -32 -21 -42q28 -52 0 -84q29 -11 0 -21q20 -32 0 -63h42q-13 -29 -42 -21v-21h21q-3 -20 -21 -21q40 -102 0 -105q20 -32 0 -63l42 -7l-7 -14q-28 2 -35 -21q29 -10 0 -21
q20 -32 0 -63h21q15 -76 -21 -112v-35q69 -52 0 -105q8 -27 42 0v-42h-21v-84h-21q-10 -81 21 -140l-21 -21l21 -21l-21 -28h21q19 -99 119 -84q7 -10 7 -21q58 28 98 0l14 21q11 -7 14 -21h42v21h42q23 39 84 21q6 19 21 28v119q35 -17 21 -147q47 8 70 -21q52 44 161 0
q17 47 63 42v42q64 9 105 21v21q63 5 63 63q113 23 84 168q75 49 42 147h42q-14 29 -42 21v28v21v28v126v28v28v21v28v119v21v84q7 11 21 14l-21 42q49 -1 42 42q-36 18 -21 63q-53 18 -21 63q-52 26 -42 84l-84 21q-71 101 -182 126q-7 10 -7 21l-42 -21q11 59 -84 21
q-29 69 -147 21q32 -66 0 -119l21 -28q-3 -20 -21 -21l21 -28v-161q-49 2 -42 -42q58 27 63 84q159 -35 147 -189q33 -19 28 -84h14h-14h14q-21 -51 -42 -84q21 -2 21 -21v-35q-11 -7 -21 -7q21 -47 0 -91q35 -52 0 -98q50 -33 0 -70q35 -51 0 -98q21 -2 21 -21h-21
q-33 -129 -168 -126q-2 -21 -21 -21q-7 -34 21 -42q-3 -20 -21 -21q19 -31 21 -63q-60 32 -42 105l-21 7v56q-16 92 21 133v35l-21 7q3 32 21 49q-21 16 -21 42q1 22 21 28l-21 42l21 14v28q-23 95 0 168q-16 4 -21 14l21 14q-28 52 0 91l-21 7v217q-17 97 21 119v77v21v21
v91q-71 -10 -119 21q-24 -26 -49 0v-42q-33 16 -49 42q-48 -35 -84 0q-40 -35 -56 0h-42q-15 -34 -42 -42zM209 1402v21q28 -11 0 -21zM356 1423q-10 -32 -21 0h21zM398 1402v21q28 -11 0 -21zM608 1402v21q28 -11 0 -21zM713 604v21q28 -11 0 -21zM41 562l7 21
q21 -15 -7 -21zM713 520l7 21q21 -15 -7 -21zM440 121v21q28 -10 0 -21z" />
    <glyph glyph-name="e" unicode="e" horiz-adv-x="1039" 
d="M128 1357q33 -63 -42 -63q19 -36 42 -56q-10 -7 -21 -7l21 -35q-10 -7 -21 -7q13 -47 -21 -63q2 -51 21 -84h-21q28 -32 0 -42q22 -39 21 -84q-43 -19 -42 -63h-21q21 -48 0 -84q32 7 42 -21h-21v-154q25 -33 21 -70q-20 -48 -21 -91l42 -21q-12 -31 -42 -21
q23 -43 0 -77l21 -7q-3 -20 -21 -21q-15 -83 21 -105v-35l-21 -14q0 -55 21 -98h-21q-6 -45 21 -70q-23 -79 0 -140q34 -16 49 -42q45 9 56 -21q32 20 63 0q50 70 112 21q38 36 56 0q47 13 63 -21h21q9 75 42 0h42q22 54 84 21v21q29 -13 21 -42q32 7 42 -21q61 -10 91 21
l21 -21q11 9 14 21q55 -23 105 0v42l42 -21q12 46 42 63q-3 19 -21 21l21 35q-21 40 0 70q-26 56 -21 105q32 -6 42 21q-39 -5 -63 -21v42q-103 -19 -63 42l-63 -42q-28 45 -77 0q-43 39 -84 0q-7 10 -7 21q-126 6 -210 -21q-15 88 42 126q-7 32 21 42q-19 31 -21 63
q20 -3 21 -21q109 56 147 0h56q50 42 105 42q43 38 91 42v63h21q0 51 42 63v42q-36 18 -21 63q-18 7 -28 21l-28 21q-114 -14 -196 21h-49l-35 -21v21q-51 -1 -84 21q-23 -46 -63 -63q-34 83 0 84l-21 42q32 -7 42 21q-32 -7 -42 21q61 47 105 21l-21 42q61 -11 105 -42
q-8 56 63 21q3 66 168 21v-21q32 20 63 0q-2 50 42 42q15 34 42 42q-27 59 0 105l-42 21q15 32 42 42q-3 19 -21 21q41 106 -63 126v42q-19 -3 -21 -21q-79 38 -147 0v42q-30 -25 -49 0q-26 -65 -49 0q-62 -59 -70 21q-51 -20 -84 0q-25 -56 -21 -105h-21v84q-47 -13 -63 21
q-62 -47 -63 21q-98 -47 -189 -21v21h-42q-13 -29 -42 -21zM177 1357q16 -29 -7 0h7h-7h7zM506 1315q-22 -41 -42 0h42zM821 1273q-20 3 -21 21q19 -4 21 -21zM527 1252q-11 -33 -21 0h21zM534 1231q20 -32 -7 0h7h-7h7zM527 1210q50 -261 -21 -189q18 32 0 56l21 21
q-38 47 -21 112h21zM527 937q63 -47 -21 -84v21v126q53 -18 21 -63zM632 916q-20 3 -21 21q20 -3 21 -21zM639 916q20 -32 -7 0h7h-7h7zM65 832l7 21q21 -15 -7 -21zM527 664q-11 -33 -21 0h21zM506 622l28 21q33 -99 -28 -21zM527 454q21 -2 21 -21h-42v21v126
q70 -51 21 -126zM527 391v21q28 -10 0 -21zM527 391q-11 -28 -21 0h21zM107 223q-20 3 -21 21q20 -3 21 -21zM968 139q71 7 0 42v-42zM506 34v63q49 -33 0 -63zM548 13q14 -81 -42 -42l21 42h21zM527 -113q13 -47 -21 -63v126q73 -28 21 -63zM758 -239v21q28 -10 0 -21z" />
    <glyph glyph-name="f" unicode="f" horiz-adv-x="1040" 
d="M122 1352q-63 -5 -63 -63h-21v-105q22 -5 21 -28l-21 -42l21 -28q-19 -18 -21 -35q-8 -43 21 -56q-3 -20 -21 -21q-13 -91 21 -161q-11 -7 -21 -7q19 -53 0 -105q26 -1 42 -14q-10 -7 -21 -7q15 -64 -21 -84q3 -19 21 -21q-4 -19 -21 -21q-7 -34 21 -42q-25 -41 0 -77
q-34 -42 -21 -84q16 -35 21 -63l-21 -21l21 -7v-63q-9 -60 21 -91q4 -31 -21 -35q14 -22 14 -42q-13 -6 -14 -14q35 -31 -21 -28q22 -39 21 -84h21q-13 47 21 63q-22 -109 42 -147v-42q51 1 84 -21v21q81 -42 126 21q59 4 84 42h21q-2 50 42 42q-7 32 21 42v42h-42
q-4 55 42 21q-52 95 42 105q-19 31 -21 63l42 -21q-19 76 -84 84q-19 104 42 63q-25 45 -63 63q-9 71 21 119q-54 68 0 154q-39 25 -21 105q52 -19 21 -63q60 -45 0 -84v-84q47 -28 0 -84q70 -7 119 21q7 -10 7 -21q31 19 63 21l21 -42v-210h21q-13 47 21 63v28v21v140
q20 -3 21 -21h21v21q56 -4 105 21q84 47 42 189h-21q5 37 21 63q-47 17 -42 63q-24 -9 -21 -28q-32 -19 -21 49q-192 -89 -84 63q-59 -1 -42 63q66 15 63 -42h21q-4 57 42 21q14 74 84 63q2 21 21 21q17 54 0 77q10 7 21 7v21v84q52 27 42 84q18 4 21 21h-21q0 74 -63 42v42
q-127 -37 -231 0q-13 -30 -42 0q-22 -38 -42 0q-37 -21 -70 0q-48 -37 -98 -42q-25 54 -77 63q-28 -41 -133 0q-45 -60 -84 0q-32 -20 -63 0v-21zM248 1310q-20 3 -21 21q20 -3 21 -21zM521 1289q-5 -37 -21 -63h21v-189q-18 -4 -21 -21v-63q37 -4 63 -21q66 41 126 42
q-7 -32 21 -42v-210q-45 -7 -70 21q-67 -44 -98 21h-21q7 -32 -21 -42l-21 28v140h-21q-17 135 42 217v77q-51 35 0 105h21zM815 974q-11 -71 -21 0h21zM773 953q-11 -32 -21 0h21zM752 869q32 11 0 21v-21zM752 743q-10 -28 -21 0h21zM66 281q20 -32 -7 0h7h-7h7zM542 197
q-10 -28 -21 0h21zM521 155q-11 -32 -21 0h21z" />
    <glyph glyph-name="g" unicode="g" horiz-adv-x="1125" 
d="M508 1235q36 -48 0 -84q26 -39 21 -77q-77 48 -21 119q-29 31 -21 70q-80 -55 -140 -21q-21 -28 -42 0q-40 -21 -70 0v-21h-42q-33 -60 -84 -84v-42h-42q-21 -76 -21 -126l-42 -21q9 -64 21 -105l-21 -42q29 -69 0 -126h21v-231l21 -7q-7 -11 -21 -14l21 -42l-21 -7
q1 -56 -21 -98h21v-21q20 -32 21 -70q-10 -55 21 -84q-35 -74 -21 -161l42 -21v-42l42 -21q83 -111 210 -105v-42q32 7 42 -21l28 21q52 -28 98 -21v77v35v21v28v21v140q-17 21 -21 49q21 65 0 112h-21q-15 27 -42 28l7 14q28 -2 35 21q-26 1 -42 14q5 41 42 7q-7 32 21 42
q-8 64 -21 105h21q4 37 21 63q-20 32 0 63h-21q-15 90 21 161l-21 7v21v28v21v140h21q-22 47 0 84h21q15 -75 -21 -112v-35q21 -47 0 -84q79 44 63 126h21q15 34 42 42q-27 -99 0 -168q39 6 63 21q7 -39 21 -63q89 46 161 0l28 42q86 -31 147 -42v21q63 5 63 63h21
q-44 51 -42 105q-36 18 -21 63q-39 23 -21 84q-59 26 -63 84q-64 9 -84 63q-51 0 -63 42q-19 -3 -21 -21l-21 7l-7 14q-31 -4 -35 21q-51 -1 -84 21q-45 -60 -84 0q-32 -20 -63 0q-1 -34 -21 -49zM487 990v84q79 -47 0 -84zM550 864q-10 -32 -21 0h21zM1012 759v21
q28 -10 0 -21zM46 654v21q28 -11 0 -21zM571 633q-3 -20 -21 -21q-2 -35 -21 -56q35 -42 21 -91h-21q-16 -151 84 -168v-21q31 19 63 21v-147q4 -51 -42 -42q-18 -54 -105 21q50 -71 0 -105q22 -34 0 -56q42 -75 0 -119q46 -49 0 -77v-84q29 14 21 42q66 15 63 -42
q94 31 105 105h21q5 -63 63 -63v-21h56q52 48 175 0v21q64 5 84 84q-21 2 -21 21q35 17 21 63q-21 2 -21 21q18 4 21 21l-42 21q5 37 21 63h-42q15 32 42 42q-6 39 -21 63h21q-22 47 0 84q-30 12 -21 42q-21 2 -21 21l42 21q4 71 -21 126q28 8 0 84l21 14q-57 8 -21 49
q-21 2 -21 21q-47 -8 -70 21q-33 -36 -119 0q-15 -34 -42 -42q-40 56 -126 21q-31 48 -84 63q5 -56 -42 -21zM592 570l7 21q61 -14 -7 -21zM445 423v21q28 -10 0 -21zM466 339q-31 -7 -42 21q32 8 42 -21zM592 108q32 10 0 21v-21zM697 -228q-20 3 -21 21q20 -3 21 -21z
M760 -228v21q28 -11 0 -21z" />
    <glyph glyph-name="h" unicode="h" horiz-adv-x="1175" 
d="M118 1247q-74 0 -42 -63h-42q3 -19 21 -21q-40 -60 0 -84q-33 -55 0 -91q4 -31 -21 -35q29 -66 -21 -112l21 -35q-25 -10 -21 -35l21 -42q-10 -7 -21 -7q20 -32 0 -63q50 -32 0 -63q-7 -34 21 -42q-28 -57 0 -105q-34 -17 -21 -56q-15 -68 21 -91q8 -34 -21 -42
q22 -47 0 -84l21 -7q-7 -11 -21 -14l21 -35q-10 -7 -21 -7q3 -19 21 -21q-3 -20 -21 -21q28 -52 0 -84q23 -81 0 -133q9 -11 21 -14q-7 -18 -21 -28q18 -16 42 -21l-21 -35q64 -9 84 -63h21h98q77 33 147 21l7 21q32 -15 42 -42h42q12 30 42 21q2 21 21 21v21q-32 -7 -42 21
h63v28v21v140l-42 21l21 42q-50 -2 -42 42q54 -35 21 21h42q-14 29 -42 21v84q-22 5 -21 28q7 11 21 14v21v28v21v140q36 -17 21 -147h21q15 81 21 -21q86 21 84 -42h21q-56 -194 21 -252q-13 -29 -42 -21v-84q47 -28 0 -84q19 -31 21 -63q51 0 63 -42q19 3 21 21h56
q50 -38 98 -21q44 30 77 0q1 34 84 0q-1 59 63 42v28q22 37 21 70q-20 50 0 91q-38 22 0 42q-43 58 0 84v42q-30 12 -21 42q-21 2 -21 21h42q-3 19 -21 21l21 42q-4 19 -21 21q-8 34 21 42q-20 32 0 63q-42 21 0 56l-21 28q22 10 21 28q-40 42 0 140l-42 7l21 21
q-38 38 21 35q-22 34 0 56q-29 31 -21 70q-64 53 21 21q-31 59 0 105q-30 13 0 42q-47 28 0 84q-47 -13 -63 21q72 -1 42 126h-42v42h-77q-42 34 -84 21q-19 -21 -49 -21l-21 42q-59 -31 -105 0q-12 -30 -42 -21q-2 -21 -21 -21q23 -43 0 -77l21 -21l-21 -42q26 -24 0 -49
q21 -2 21 -21q-45 -79 0 -133q-33 -52 0 -98q-45 -35 -42 -84q-53 0 -84 21q-2 -21 -21 -21q-1 26 -14 42l-28 -21q14 -29 42 -21q-13 -29 -42 -21q3 -57 42 -84q-28 -57 0 -105q-31 -19 -63 -21q3 57 -21 98q10 7 21 7q2 99 -21 168q26 1 42 14q0 24 -21 28q-8 34 21 42
q-3 19 -21 21q-8 34 21 42q-3 19 -21 21q4 38 21 70l-21 21q7 11 21 14v21v21v140v28q-21 2 -21 21q-45 -36 -42 21h-21q-32 -20 -63 0v-42q-55 -4 -21 42q-91 -84 -119 0q-7 -44 -42 -42q-7 10 -7 21q-45 -36 -42 21h-42v-21zM1126 1016q-10 -32 -21 0h21zM1126 890
q-10 -32 -21 0h21zM643 722q32 10 0 21v-21zM559 638v21q28 -11 0 -21zM1126 554v21q28 -10 0 -21zM1126 533q-10 -32 -21 0h21zM34 491v21q28 -10 0 -21zM559 365v63q49 -33 0 -63zM559 281h-21q10 -68 21 0zM517 113q-11 -33 -21 0h21zM34 -160v21q28 -11 0 -21z" />
    <glyph glyph-name="i" unicode="i" horiz-adv-x="585" 
d="M338 1206q-38 -36 -56 0q-66 -33 -84 21q-43 -23 -77 0q-36 -33 -70 -42l21 -42h-42q15 -64 -21 -84q20 -32 0 -63q51 0 63 -42q-38 -6 -63 -21q26 -60 0 -119q50 -63 0 -133q51 -35 0 -105q55 -39 0 -126q40 -20 0 -63q61 1 21 -21q8 -47 -21 -70q20 -43 0 -77
q60 -45 0 -84q53 -77 21 -147q30 -12 21 -42q21 -2 21 -21h-21v-77q-37 -49 -21 -105q41 -28 42 -70q119 -45 168 21h42v-21q50 0 63 -42h21q-18 32 -21 63l105 -42q0 114 28 21l35 21v21q-34 -7 -42 21q-12 49 21 63q-29 45 21 70q-21 18 -42 14q13 29 42 21q-43 58 0 84
q-19 53 0 105q-41 16 -42 56q10 49 42 77q-1 43 -42 35q3 20 21 21q-17 81 21 105q-21 37 0 77q-25 19 0 35q-23 25 0 49q-35 42 -21 91h-42q24 52 0 84q60 -7 84 42q-32 -18 -63 -21q11 46 -21 63q-2 45 21 77q-14 53 21 70q-22 47 0 84q-16 4 -21 14q34 45 21 91h-21
q3 86 -84 105q3 -53 -49 -42zM37 933q61 -14 -7 -21v21h7h-7h7zM30 807q4 37 21 63q53 -37 -21 -63zM597 723q-3 19 -21 21q-36 -55 21 -21zM51 660v21q28 -11 0 -21zM555 681q-34 -21 -63 0q32 -66 63 0zM72 597q-10 -32 -21 0h21zM72 492q-10 -32 -21 0h21zM450 408
q-10 -32 -21 0h21zM387 387q-11 -32 -21 0h21zM366 324q13 29 42 21v21q85 -48 -42 -42zM366 282v21q28 -11 0 -21zM492 -264q32 10 0 21v-21zM282 -306v21q28 -11 0 -21zM408 -285q-10 -32 -21 0h21z" />
    <glyph glyph-name="j" unicode="j" horiz-adv-x="1735" 
d="M1013 1635q9 -68 -21 -112v-49l-21 -7l21 -28l-21 -14l21 -35q-51 10 -84 42q32 -38 -21 -56q101 -19 21 -28v-21q59 1 42 -63h-42q27 75 -21 0h-42l21 42q-32 -18 -63 -21l21 42q-32 -18 -63 -21v21q-219 22 -231 -84h-21q14 -29 42 -21q-13 -29 -42 -21
q36 -110 -21 -133q29 -129 -21 -161q50 -72 21 -119l21 -7q-7 -32 21 -42q10 -59 -21 -91q-2 -28 21 -35q-25 -58 -21 -112q42 -57 42 -119h-21q-8 -51 -42 -77q150 -131 42 -91q16 -31 42 -42q-21 -51 -42 -84q-28 14 -28 42q-20 -29 -14 -63h-14q-29 28 -28 63l-42 -21v28
v35q-39 23 -21 84h-42q-5 64 -84 84q-2 -21 -21 -21q-24 37 -84 21v-42q-122 76 -147 -42h-21q14 -44 42 -63v-168l21 -7l7 -35l14 -7q19 -60 42 -98h21q7 -39 21 -63q45 3 77 -21q17 22 91 0q-36 -57 42 -42q10 -28 28 0q39 -33 35 21q45 -12 63 -42h21q18 36 63 21
q2 21 21 21q1 -26 14 -42h28q11 73 21 0h21q35 99 42 21q76 36 84 -42h42q12 46 42 63q-7 62 42 84q-7 32 21 42v-336q19 3 21 21q2 58 42 84v84q3 20 21 21v21v28v28v28v28v119v21v84q65 1 42 -84q35 19 21 63h21v-252q24 9 21 28v35v21v28v21v140q29 13 42 35q-20 45 0 91
q23 -14 42 -7l-21 7q22 42 21 84h84q-35 45 -84 42q3 20 21 21q-12 47 21 63v-14q6 -53 63 14q-52 0 -84 21q22 42 21 84h-42q22 42 21 84h-42q1 34 21 49q-70 108 21 119q-20 32 0 63q-54 33 -21 84h21q-41 82 84 21q-3 19 -21 21q20 40 21 84q-35 -4 -56 -21q-20 21 -49 0
v84q31 -12 21 -42q77 70 63 0h21q-7 31 21 42v-28q23 -34 0 -56h84v21q-106 17 -21 126l-42 7q7 12 21 14q-26 59 -84 21q-4 19 -21 21q35 -46 -21 -42q-7 -28 -35 -21q-8 37 14 63h21q-14 29 -42 21v35v21v28v21v140q-10 246 -21 7q-40 25 -21 91v119h-21q-5 -172 -21 -42
l-21 -7v-112q-10 -7 -21 -7v-168h-42v28v217v21q8 39 -21 49q4 76 -7 126h-14h14h-14v-238zM1160 1642v-203q-10 -7 -21 -7v21v28v21v140h21zM1202 1390q-10 -71 -21 0h21zM971 1327v21q28 -10 0 -21zM1076 1306v21q28 -11 0 -21zM992 1222q-20 3 -21 21q20 -3 21 -21z
M1349 1159v63q48 -32 0 -63zM1307 1201q-11 -32 -21 0h21zM1244 1159v21q28 -10 0 -21zM1433 1159h-21q10 -32 21 0zM1055 1096v21q28 -11 0 -21zM1118 1117q-10 -32 -21 0h21zM1055 1054v21q28 -11 0 -21zM1286 1033q-20 3 -21 21l28 21q28 -25 -7 -42zM1034 1054
q-10 -71 -21 0h21zM1223 1033v21q28 -10 0 -21zM1391 1012q75 5 21 42zM551 1033q-11 -32 -21 0h21zM1097 970v63q49 -33 0 -63zM1433 991h-21q10 -32 21 0zM992 928l21 42q54 -37 -21 -42zM1370 928v21q-51 -20 -84 0q-10 -60 84 -21zM1034 886q-20 3 -21 21q20 -3 21 -21z
M1286 886h-21q11 -32 21 0zM1328 865q32 11 0 21v-21zM992 844v21q28 -11 0 -21zM1517 844q68 10 0 21v-21zM1307 844h-42q36 -71 42 0zM1559 823h-21q10 -32 21 0zM1223 781q32 11 0 21v-21zM1265 697q34 21 63 0q-21 39 -21 84h-21q0 -52 -21 -84zM1328 739q68 11 0 21
v-21zM1517 739q32 11 0 21v-21zM1391 697h-42q36 -71 42 0zM1496 676q32 10 0 21v-21zM1265 655q68 11 0 21v-21zM1202 613v21q28 -10 0 -21zM1328 592q-12 -31 -42 -21q34 -54 105 63q-72 -66 -63 0q-32 -20 -63 0q0 -57 63 -42zM1727 571q32 11 0 21v-21zM1055 550v21
q28 -11 0 -21zM1202 508v63q48 -34 0 -63zM1370 529q-3 19 -21 21q3 -19 21 -21zM1580 550h-21q11 -68 21 0zM1307 508q75 -27 0 21v-21zM1097 466v21q28 -11 0 -21zM1244 487q-10 -32 -21 0h21zM1223 466q-11 -28 -21 0h21zM1412 424q32 10 0 21v-21zM1664 424q68 10 0 21
v-21zM1013 424q-11 -32 -21 0h21zM1118 424q-10 -32 -21 0h21zM1202 403q-10 -32 -21 0h21zM1055 382q-11 -32 -21 0h21zM1391 340q60 21 21 42zM1202 340v21q28 -10 0 -21zM1601 361h-21q10 -32 21 0zM1013 319q-20 3 -21 21q20 -3 21 -21zM1118 340q-10 -32 -21 0h21z
M1202 340q-9 -71 -21 0h21zM40 277q-11 7 -14 21q35 0 49 21q29 -48 -35 -42zM509 298l7 21q21 -15 -7 -21zM1244 256l42 -21q-21 39 -21 84h-21v-63zM1034 256l21 42q54 -37 -21 -42zM1181 298q-12 -71 -21 0h21zM1118 277q-10 -32 -21 0h21zM5 235l7 21q21 -15 -7 -21z
M1062 193q-38 -40 -28 42q41 -10 28 -42zM1118 193q-10 -71 -21 0h21zM467 172q-3 19 -21 21q3 -19 21 -21zM1139 151v21q28 -10 0 -21z" />
    <glyph glyph-name="k" unicode="k" horiz-adv-x="1747" 
d="M1368 1813q24 8 0 16v-16zM1420 1798q24 8 0 15v-15zM1353 1777q25 12 0 21v-21zM1399 1798h-15q8 -33 15 0zM1472 1798h-20q10 -35 20 0zM1488 1761q62 8 0 16v-16zM1556 1777h-16q8 -24 16 0zM1368 1746q-2 14 -15 15q2 -14 15 -15zM1301 1725q25 12 0 21v-21z
M1280 1725h-16q8 -51 16 0zM1608 1709l-6 16q-27 -18 -46 0q15 -39 52 -16zM1795 1709q32 8 0 16v-16zM546 1709h-21q13 -25 21 0zM562 1673q31 18 0 36v-36zM666 1709h-21q11 -65 21 0zM1436 1709h-16q8 -23 16 0zM1488 1673q-11 32 -36 36q-5 -42 36 -36zM1644 1709h-21
q12 -25 21 0zM1727 1673q-8 28 -31 36q10 -27 31 -36zM1779 1673q32 18 -15 36zM1228 1673q35 11 0 21v-21zM1301 1657q47 19 15 37zM1675 1673q1 18 -15 21q-1 -18 15 -21zM546 1657q-30 3 -52 16q24 -56 52 -16zM1384 1642h-16v-52q-62 -13 -93 15q-57 -27 -115 -15v-37
l-31 -21q-10 -10 -21 -10q-19 -52 -67 -52q-2 -16 -16 -16q-14 -43 -52 -52q-8 -33 -37 -36v-36h-31q-10 -29 -36 -32q-24 -49 -68 -67v-21h-36q-17 -36 -47 -52v-31q-32 -9 -36 -37h-37v21v21v16v20v94l21 5v26q-17 7 -21 21h37q-10 23 -37 16q1 22 21 20q-7 18 -21 16v16
v20v16v104q18 0 21 16q-21 23 -21 52h-15h-105v-260q28 -3 21 -32l16 -5q-8 -34 15 -47v-88h16v-193q10 -9 21 -10q-11 -51 16 -68v-161q19 -30 15 -62q35 -8 21 -52q76 1 31 -16v-21q30 6 37 -15q-9 -21 -37 0v-37q41 0 52 37q19 32 16 -32q-8 -5 -16 -5q4 -42 -31 -15
q46 -52 0 -84q24 -42 -21 -52v-20h21q23 -41 68 -32q-10 -32 -37 -36q15 -29 0 -52q55 0 52 -52q40 38 37 -16q88 34 52 -15q37 28 31 -21q15 -2 15 -16q-63 27 -31 -15q25 -5 31 15q73 -39 105 16l36 -16v16q-29 13 -36 36q43 2 52 -36q35 17 36 52q70 -52 31 0q22 2 21 21
q70 5 83 -73h31h162h73h15h26h16h21h15h104v36q-9 23 -31 16v36q-52 19 -52 68q-41 10 -36 52q-24 13 -52 16q-3 28 -16 46q-34 24 -36 58q-37 15 -32 52q-43 14 -52 52q-52 18 -52 67q-31 11 -36 37h88q13 -51 32 -21q-51 26 -53 73q34 -2 53 -21q23 41 20 78q6 8 16 10
q2 -102 16 -36h15q23 -36 5 36q45 -4 68 32q-27 -13 -52 -16q11 27 31 36l-15 32q30 -7 36 20q-51 -11 -68 16q14 3 16 16q55 -25 52 36q-18 0 -21 -16q-22 10 -15 32h-16q10 -39 -16 -52q-10 67 -20 0q16 -1 20 -16q-18 0 -20 -16q49 -18 36 -72q-25 19 -52 20
q11 51 -16 68q17 25 0 47l16 21h-104q5 -24 -16 -32q0 20 -10 32l-5 -32q-19 -1 -21 16q-88 -34 -52 16q-25 -15 -52 -16q6 17 21 16q-15 27 -37 36q24 -38 -15 -52q28 -38 -16 -36q29 -37 -21 -32q-10 -35 -15 6l15 26q-84 -30 -31 52h-5h5h-5q-34 -27 -31 15
q-37 -28 -32 21q-16 0 -20 16l20 10l32 5q14 43 52 52q18 52 67 52q17 40 52 52q21 49 68 52q26 42 67 52q3 -32 21 -52q-17 0 -21 -15h37q-3 38 36 31q0 17 16 21q0 -41 -16 -73q18 7 16 21q27 -26 47 0q13 -25 36 -21v-52q48 -8 21 42q-23 29 -52 31v15q39 11 52 -15
q44 1 16 -37q38 14 36 52h-36q21 60 36 16h21q10 -17 -5 -31q24 -20 52 -21q0 43 -37 52v36q29 6 37 -15q38 23 52 -21h15v36q-75 10 16 32v20h-31q-21 -51 -37 32l37 -16q-5 29 15 36q4 -14 16 -20v104q34 -10 21 -52h15q1 29 16 46q-42 7 -16 42q-29 -5 -36 16
q30 -6 36 15h-52v-31q23 -9 16 -36l-31 15q15 -23 10 -47h-10h10h-10q-8 17 -21 16q15 103 -68 68v52h16q19 -18 36 -16q-14 24 -15 52q-21 -18 -42 -21q-14 18 -10 37q-39 -30 -37 15q-39 -10 -52 16h-47q-15 -28 -52 -16q-17 -32 -41 16h-11q-33 -113 -36 -31zM593 1642
q45 -63 21 0q14 3 16 15h-16q-6 -18 -21 -15zM1779 1657h-15q7 -23 15 0zM1452 1626q-40 -77 -26 16zM1504 1626v16q33 -7 0 -16zM1608 1642q-9 -23 -16 0h16zM718 1605q-12 31 -36 37q-5 -43 36 -37zM1264 1642q-27 -17 -52 0q27 -60 52 0zM1316 1642h-15q7 -62 15 0z
M1847 1626q29 -6 36 16h-36v-16zM1504 1626q-8 -34 -16 0h16zM1524 1605l6 21q50 -13 -6 -21zM375 1605q56 11 0 21v-21zM510 1574q10 38 -16 52q-9 -37 16 -52zM546 1605q26 12 0 21v-21zM1743 1585q19 -9 36 5q62 8 0 15q0 18 -15 21q4 -31 -21 -41zM1660 1605
q-23 -39 -32 0h32zM286 1605h-15q7 -23 15 0zM458 1590q-3 14 -16 15q3 -14 16 -15zM271 1553v-15h-21q-8 61 -16 0q33 -10 37 -37q-57 -21 -105 21q-19 -144 -36 -52h-16q-24 -139 52 -140q-9 -24 -36 -16v-16q29 6 36 -15q-35 -5 -57 15q-21 -53 -31 -15h-16q27 -39 0 -52
q23 -35 -15 -57q5 -29 15 -47q-19 -1 -31 -11l16 -57q-34 2 -47 -26l5 -10q19 20 42 15q0 17 15 21q12 -54 -31 -52v-16l31 -5q38 -152 -15 -99q18 -29 0 -41q24 -35 -16 -47v-16q60 -29 31 -104q40 -12 37 -52q27 -15 15 -52h-15q-18 -84 -52 -15h-37q10 -23 37 -16
q7 -48 -37 -21q10 -18 21 -26q-1 -32 -31 -26q8 -46 0 -83q34 -18 31 -52q16 -2 16 -16h-47v-20q56 2 10 -47q32 -9 37 -37q48 20 83 0q-18 -49 0 -78q-8 -37 21 -41q-8 -49 31 -68l-16 -36q33 9 37 41q-18 14 -37 11q1 56 16 15h21q-41 63 16 89q-1 -39 15 -63
q-25 -25 0 -52q-14 -12 -15 -26q53 44 98 21q14 16 37 16q-38 -63 21 -37q-13 -53 31 -52q-3 30 -16 52q39 5 52 37h16h21h88h42h36q-14 76 21 83v21q-28 3 -21 31l37 -16v16q-29 13 -37 36q18 1 21 16h-21v21v21v20v21v89v15v63q-17 25 0 41q-32 -25 -31 11v15v162l-21 5
v15v68q-12 3 -16 10v16v16v20v94q-15 2 -15 16v36q-23 9 -37 21q-12 77 21 83q18 -35 16 -73h15v31q-17 35 -15 73q-29 17 -16 63q-27 14 -21 41h-15v68q0 39 -16 62v16v62l-21 11q20 10 21 26q-14 13 -21 26q17 10 21 21h-21q-19 -56 -31 -16h-10h10h-10q-23 -38 -47 16
q-39 8 -10 -37q-62 -10 -104 21v16q114 9 31 52q-10 -29 -31 -37zM375 1574q23 8 0 16v-16zM421 1590h-15q8 -62 15 0zM734 1574q-3 14 -16 16q2 -15 16 -16zM1868 1553q-1 -55 47 0q-52 -10 -47 37h-21q-7 -31 21 -37zM203 1553q25 12 0 21v-21zM458 1553q25 12 0 21v-21z
M765 1553q35 11 0 21v-21zM1644 1538q-11 -25 -21 0h21zM765 1486h21q2 29 15 52h-15q-21 -25 -21 -52zM1712 1522q-9 -33 -16 0h16zM1915 1486q6 29 -16 36q-6 -29 16 -36zM682 1486q23 7 0 15v-15zM234 1486q-27 -40 -52 0h52zM1696 1486q-12 -25 -21 0h21zM697 1454
q51 13 21 32zM666 1454q24 8 0 16v-16zM801 1470h-15q7 -24 15 0zM1899 1454q24 8 0 16v-16zM166 1434v20q26 -11 0 -20zM219 1402q-22 10 -16 32q22 -10 16 -32zM250 1434q-8 -24 -16 0h16zM1540 1418q-15 2 -16 16q16 -2 16 -16zM1764 1418v16q21 -8 0 -16zM718 1434h-21
q12 -26 21 0zM1868 1418q-7 18 -21 16q7 -18 21 -16zM114 1402l6 16q15 -11 -6 -16zM151 1402v16q21 -8 0 -16zM1623 1418q-8 -24 -15 0h15zM1675 1418q-8 -24 -15 0h15zM1712 1402v16q21 -8 0 -16zM1764 1418q-13 -25 -21 0h21zM786 1418h-21q12 -25 21 0zM151 1382
q123 -9 0 -16q-4 -17 -21 -16q-1 30 5 52q18 -6 16 -20zM219 1382l5 20q15 -13 -5 -20zM1868 1382q25 12 0 20v-20zM1472 1366v16q21 -8 0 -16zM749 1366q-2 14 -15 16q2 -15 15 -16zM234 1350v16q21 -8 0 -16zM1472 1366q-11 -26 -20 0h20zM1540 1350v16q21 -7 0 -16z
M1571 1350v16q34 -8 0 -16zM1696 1350v16q21 -7 0 -16zM99 1366h-21q12 -25 21 0zM697 1350q-2 15 -15 16q2 -14 15 -16zM1847 1283q-16 53 0 78l-16 5q-23 -55 16 -83zM1951 1366h-16q8 -62 16 0zM1488 1330v20q26 -11 0 -20zM1540 1350q-8 -34 -16 0h16zM1696 1350
q-11 -36 -21 0h21zM203 1330q-11 -55 -21 0h21zM1623 1330q-8 -24 -15 0h15zM114 1330h-15q8 -24 15 0zM1987 1330h-20q12 -26 20 0zM219 1298v16q53 -8 0 -16zM1644 1283v31q55 -6 0 -31zM1868 1298q23 8 0 16v-16zM1915 1314h-16q8 -24 16 0zM1935 1298q24 8 0 16v-16z
M1524 1298q-11 -25 -20 0h20zM1608 1283q-39 -10 -52 15q39 11 52 -15zM697 1298h-15q7 -23 15 0zM1987 1283q24 8 0 15v-15zM1436 1267q-17 -6 -16 16q15 -3 16 -16zM546 1283h-21q11 -35 21 0zM1868 1246q25 16 47 0q-11 27 -32 37zM1951 1262q25 12 0 21v-21zM151 1246
v16q21 -8 0 -16zM1504 1246v16q62 -7 0 -16zM682 1246q23 8 0 16v-16zM1831 1262h-15q7 -24 15 0zM114 1246q-7 -24 -15 0h15zM1675 1231l5 15q25 -11 -5 -15zM1779 1231q24 8 0 15v-15zM510 1231v-37q29 -18 15 -67q-1 -16 -15 -11q1 21 -16 26v89h16zM1831 1231h-15
q7 -33 15 0zM151 1210q-12 -25 -21 0h21zM1399 1158q70 24 -15 52q14 -24 15 -52zM1795 1179q-38 6 -68 31q55 -85 68 -31zM1935 1210h-20q12 -25 20 0zM78 1179l5 15q26 -11 -5 -15zM166 1158v36q33 -18 0 -36zM1524 1194h-20q12 -25 20 0zM1660 1142q21 -9 15 -31
q-46 38 -67 16q-3 -59 41 -68q23 -29 26 0q-51 20 -52 68q33 -9 37 -37q66 2 15 68q29 8 31 36h-31q-2 -29 -15 -52zM1472 1179h-20q10 -35 20 0zM1644 1179h-21q11 -35 21 0zM151 1158q-12 -25 -21 0h21zM1524 1142q51 8 0 16v-16zM1795 1111v16q-52 -1 -83 31
q8 -64 83 -47zM1883 1142q24 8 0 16v-16zM1384 1127q24 8 0 15v-15zM1399 1096q62 -33 37 -89q39 13 36 52l26 16q7 -31 -10 -52q44 -2 52 36h16q-29 -83 15 -73q7 -17 21 -15v15q-47 17 -21 73q-20 11 -21 31q-44 -28 -10 37l-68 -37v26q26 43 -36 11q-3 13 -16 15
q-3 -28 -21 -46zM1556 1111q71 6 15 31zM99 1127q-12 -25 -21 0h21zM219 1111q-15 3 -16 16q15 -2 16 -16zM1353 1127h-21q12 -26 21 0zM47 1090v21q26 -12 0 -21zM114 1090v21q26 -12 0 -21zM1472 1059q-40 11 -36 52q36 -16 36 -52zM1280 1111h-16q8 -32 16 0zM1727 1075
q24 7 0 15v-15zM1779 1075q-2 14 -15 15q2 -14 15 -15zM1384 1059q-29 4 -52 16q35 -64 52 -16zM78 1038v21q36 -11 0 -21zM151 1038v21q26 -12 0 -21zM1212 1038q25 12 0 21v-21zM1608 1059h-16q8 -62 16 0zM1384 1007q52 -36 15 16q19 0 21 15h-21zM1301 971q25 -5 31 15
l36 5q-24 35 -36 -5h-16q-8 33 -36 37q20 -25 21 -52zM1488 1007h-16q8 -32 16 0zM1524 1007h-20q10 -66 20 0zM203 986q-12 -25 -21 0h21zM99 955v16q21 -8 0 -16zM151 955v16q21 -8 0 -16zM234 939v16q21 -8 0 -16zM1420 939v16q53 -7 0 -16zM114 919v20q26 -11 0 -20z
M234 939q-8 -34 -15 0h15zM1228 919v20q36 -10 0 -20zM1332 919q-18 6 -16 20q18 -6 16 -20zM1384 903q-26 -12 -31 -36q-50 16 5 72q20 -17 26 -36zM1420 939q-11 -36 -21 0h21zM1472 939q-15 -36 -15 0h15zM1301 887q-8 18 -21 16q-10 -28 -31 -36q-1 29 5 52q94 4 47 -32
zM203 887v16q21 -8 0 -16zM1389 903q142 0 63 -36v10q-45 25 -16 -16q19 -30 16 -62h-6h6h-11h5h-10h5h-5q1 44 -37 52q-3 31 -15 52h5h-5h5zM99 867v20q26 -11 0 -20zM166 887q-6 -68 -36 0h36zM1212 867v20q26 -11 0 -20zM1301 887q-15 -36 -16 0h16zM1212 867
q-26 -54 -31 0h31zM1384 851q-14 3 -16 16q16 -2 16 -16zM114 851q-29 -63 -46 0h46zM151 851q-12 -26 -21 0h21zM219 835v16q20 -8 0 -16zM1212 835l5 16q55 -9 -5 -16zM1368 851q-7 -62 -15 0h15zM1316 835q-26 -57 -52 0h52zM203 799v16q21 -8 0 -16zM234 799v16
q21 -8 0 -16zM1212 799l5 16q55 -10 -5 -16zM1353 815q-12 -26 -21 0h21zM1399 757q35 -30 -15 -41q3 -51 -52 -37q-14 25 -16 52q40 -19 68 0q-23 41 0 84q29 -18 15 -58zM47 783l5 16q44 -9 -5 -16zM130 783v16q34 -7 0 -16zM166 783v16q21 -8 0 -16zM1332 799
q-9 -53 -16 0h16zM1436 799q-8 -21 -16 0h16zM1452 783l5 16q25 -10 -5 -16zM1488 783v16q21 -8 0 -16zM78 768l5 15q25 -10 -5 -15zM151 768v-21q-79 -30 -37 36zM786 783q-13 -24 -21 0h21zM1301 783q-12 -25 -21 0h21zM786 747l5 21q15 -14 -5 -21zM1264 768
q-8 -34 -15 0h15zM1332 731l5 37q36 -24 -5 -37zM1452 721q-20 -10 -32 47q44 1 32 -47zM1316 747q-28 -59 -36 0h36zM31 731q24 8 0 16v-16zM151 731q-12 -25 -21 0h21zM219 716q-15 2 -16 15q15 -2 16 -15zM718 716v15q21 -7 0 -15zM78 695v21q36 -11 0 -21zM156 716
q52 -11 -5 -37v37h5h-5h5zM114 679v16q21 -7 0 -16zM234 695q-33 -49 -47 0h47zM1316 695q-8 -21 -15 0h15zM114 679q-7 -20 -15 0h15zM130 643l5 36q61 -31 -5 -36zM682 664v15q20 -7 0 -15zM749 664v15q21 -7 0 -15zM1488 679h-16q8 -23 16 0zM182 643v21q36 -11 0 -21z
M770 664q26 -14 -5 -21v21h5h-5h5zM1524 643v21h-20q-30 -47 20 -21zM114 627v16q25 -8 0 -16zM682 627v16q20 -8 0 -16zM219 627q-8 -24 -16 0h16zM853 612v15q21 -7 0 -15zM645 560q11 51 -15 67q-12 -51 15 -67zM1420 612h-21q13 -26 21 0zM1472 612h-20q12 -26 20 0z
M78 596h-16q8 -62 16 0zM151 544v16q21 -8 0 -16zM99 508l5 36q21 -21 -5 -36zM853 523v21q26 -12 0 -21zM936 508v15q22 3 21 21q47 -34 -21 -36zM827 492q-8 5 -10 16q18 0 21 15q37 -26 -11 -31zM905 508q-14 2 -15 15q15 -2 15 -15zM114 492l6 16q54 -10 -6 -16z
M786 471q24 -36 -21 -47q1 -40 -16 -72h-31q7 29 31 36l-15 36q46 30 31 84q67 -2 21 -37zM890 508q-12 -26 -21 0h21zM801 456l5 15q15 -11 -5 -15zM838 456v15q21 -8 0 -15zM718 471h-21q12 -25 21 0zM47 404v52q39 -28 0 -52zM838 456q-15 -31 -16 0h16zM166 440
q-7 -24 -15 0h15zM1009 404v20q26 -11 0 -20zM1061 404q-22 0 -20 20q22 0 20 -20zM666 372q56 24 16 52q-3 -29 -16 -52zM99 404q-12 -25 -21 0h21zM905 404q-8 -24 -15 0h15zM31 372v16q21 -8 0 -16zM801 372q-15 3 -15 16q15 -2 15 -16zM1041 388q-8 -24 -16 0h16z
M754 352h32q-20 -33 -37 0h5h-5h5zM973 352q-8 -53 -16 0h16zM151 336q-12 -25 -21 0h21zM219 336q-8 -24 -16 0h16zM838 320q-19 -1 -21 16q16 -1 21 -16zM869 320q-15 2 -16 16q15 -2 16 -16zM936 336q-7 -24 -15 0h15zM1108 336q-8 -24 -15 0h15zM697 320q-10 22 -31 16
q10 -22 31 -16zM869 300l5 20q26 -14 -5 -20zM1061 300v20q26 -11 0 -20zM853 300q-8 -53 -15 0h15zM682 300h-16q8 -24 16 0zM734 300h-16q8 -24 16 0zM62 253l-15 31q89 -21 15 -31zM99 268v16q21 -8 0 -16zM770 284q25 -10 -5 -16v16h5h-5h5zM905 268v16q21 -8 0 -16z
M957 284q-10 -55 -21 0h21zM203 232q-30 6 -21 36q31 -5 21 -36zM905 268q-7 -20 -15 0h15zM1041 268q-9 -63 -16 0h16zM1061 232v36q32 -17 0 -36zM718 232q33 22 -21 36q16 -19 21 -36zM47 232v21q25 -12 0 -21zM219 232v21q25 -12 0 -21zM817 232v21q36 -10 0 -21z
M890 253q-12 -36 -21 0h21zM817 232q-8 -21 -16 0h16zM838 201l5 31q21 -20 -5 -31zM1061 232q-15 -30 -15 0h15zM1061 216l21 16q19 -63 -21 -16zM1181 216v16q21 -8 0 -16zM151 201v15q21 -7 0 -15zM219 201q-1 -17 -16 -21q-10 22 -21 36q104 -1 37 -15zM1160 216
q-4 -63 -31 0h31zM734 216h-16q8 -23 16 0zM1061 201q-18 -46 -36 0h36zM749 180q25 12 0 21v-21zM203 180q-18 -73 -37 0h37zM219 149l5 31q48 -8 -5 -31zM988 164v16q34 -7 0 -16zM718 164q24 8 0 16v-16zM130 149v15q34 -7 0 -15zM999 112q-15 18 -11 37q17 3 26 15
q35 -41 -15 -52zM765 149q-3 14 -16 15q3 -14 16 -15zM234 97q-1 29 5 52q29 -33 -5 -52zM936 128v21q36 -11 0 -21zM962 128q15 -24 -5 0h5h-5h5zM78 81q30 -7 21 -36h15q15 65 -36 83q24 -25 0 -47zM151 97v15q21 -8 0 -15zM234 45v15q21 -8 0 -15zM734 45q-3 14 -16 15
q2 -14 16 -15zM390 29q0 -16 -15 -21v37q75 -4 15 -16zM130 8q35 11 0 21v-21zM458 8q25 12 0 21v-21zM114 -23q24 8 0 16v-16zM250 -23q1 -39 -16 -62q21 -20 0 -42q48 24 89 0q-21 24 -21 52q30 -1 52 -16q31 -6 36 21q-18 7 -36 -5q12 53 -31 52q30 -48 -37 -36
q2 29 16 52q-35 -16 -68 0q-29 -49 16 -16zM421 -59q57 26 0 52v-52zM151 -44q50 8 0 -47q29 -3 31 21q20 11 37 -5q-23 46 -68 52v-21zM250 -91l5 16q55 -9 -5 -16zM203 -111q25 12 0 20v-20z" />
    <glyph glyph-name="l" unicode="l" horiz-adv-x="1110" 
d="M129 1264q48 -78 -21 -42q20 -61 42 -91l-21 -28q-1 -52 21 -84q-19 -18 -21 -35q24 -34 0 -56q62 -47 0 -112q23 -33 0 -63q6 -12 14 -14q23 31 28 -7q-21 -20 -42 -14q25 -30 0 -49q29 -29 42 -56h-21q7 -32 -21 -42q3 -19 21 -21q0 -44 21 -77q-11 -7 -21 -7
q3 -19 21 -21q-8 -86 21 -147l-42 -28q22 -10 42 7q-3 -49 -42 -70q35 -56 0 -105q23 -52 7 -98h-7h7h-7q1 -86 42 -147h-42q-30 72 -63 21q-64 -5 -84 -84h21q5 -63 63 -63v-21q57 25 105 0l-21 42q47 -8 77 -21q25 25 70 0q34 47 84 42l21 -42q56 36 91 0q55 24 98 0
q-13 47 21 63v-42h42v-21q100 -43 126 21h84v-21q64 20 105 0q2 21 21 21q4 -18 21 -21q17 47 63 42q-7 32 21 42q4 57 -21 98q11 7 21 7q-3 19 -21 21q17 64 21 105l21 14q-57 12 -42 70l-84 21q-13 -30 -42 0q-12 -32 -49 -21h-35q-20 3 -21 21q-46 11 -63 -21
q-69 29 -119 0l-21 21q-19 -21 -49 -21q20 -32 0 -63q64 -53 -21 -21v21q-16 106 21 126l-21 28q7 11 21 14q-8 89 21 154q-17 24 -42 35q3 20 21 21q-5 34 -21 56q47 58 0 133h21q-7 32 21 42q-28 52 0 84h-42q3 20 21 21q7 34 -21 42q3 20 21 21q4 57 -21 98q24 25 21 49
q-60 45 0 84q-10 71 21 119q-17 36 -21 70q-46 12 -63 42h-63q-53 -70 -112 0q-92 -74 -77 0q-59 -27 -105 0q-17 -47 -63 -42zM255 1243v21q28 -10 0 -21zM171 886v21q28 -11 0 -21zM192 844q-20 3 -21 21q20 -3 21 -21zM171 193l7 21q21 -15 -7 -21zM780 130
q-10 -28 -21 0h21zM990 88q-20 3 -21 21q20 -3 21 -21zM1095 46q-11 -32 -21 0h21zM633 4l-21 -42q34 -74 21 -147h-42q0 53 21 84q-37 20 -21 126zM423 -248v21q28 -10 0 -21zM885 -248v21q28 -11 0 -21z" />
    <glyph glyph-name="m" unicode="m" horiz-adv-x="1660" 
d="M878 1745q88 52 21 105q-25 -56 -21 -105zM794 1703q32 11 0 21v-21zM836 1703q111 -24 21 -42v-21h42q-30 -47 -84 0v-42q39 -23 21 -84h21q-21 86 42 84q-3 -20 -21 -21q1 -51 21 -84l-21 -7q7 -68 -21 -119q-43 -22 -77 0l-7 -21q-20 3 -21 21q-37 -21 -77 0
q-39 -70 -70 -21q-32 -20 -63 0q-15 -34 -42 -42q-5 63 -63 63v42q20 -3 21 -21q52 37 -21 42l21 42h-63q45 60 -63 21q31 66 -42 63v21h-21q-18 -53 -63 -21q-2 -21 -21 -21q-2 -21 -21 -21q2 -50 -42 -42q-15 -32 -42 -42v-21h21q17 -30 42 -42q9 -60 63 -84
q-13 -29 -42 -21v-42q36 -17 21 -126h42q5 -93 84 -105q-16 -35 -56 -21l-7 -21q30 -10 0 -42q34 21 63 0q8 -34 -21 -42q22 -34 0 -56q25 -19 0 -35q24 -34 0 -56q26 -1 42 -14q-92 -29 0 -126l-42 -7q-13 -89 42 -140q-31 -7 -42 -28q26 -1 42 -14l-21 -14
q16 -67 -21 -105q20 -57 0 -98h63q-13 -29 -42 -21q7 -32 -21 -42q20 -32 0 -63q26 -7 0 -63q21 -47 0 -84h21q15 -82 105 -84v-21q56 26 105 21q22 38 42 0q47 22 84 0q2 21 21 21q16 -30 42 -42q-29 39 0 77q-37 67 42 70q-13 47 21 63v35v42q-33 36 -42 70q18 4 21 21
l-21 7v21v21v35v21v28v21v140q86 -12 63 -105h21v28v21v140q28 14 42 35v21v21v21v56v21v91v35v21q-9 45 21 56v84q20 -3 21 -21q7 -74 -21 -84q28 -32 0 -42q3 -19 21 -21q-20 -72 -21 -119l21 -7q3 -71 21 -119l-42 -28q1 -51 -21 -84q16 -3 21 -14q-24 -25 -21 -49
q21 -2 21 -21l-21 -7v-182q-22 -10 -21 -28q1 -35 7 -56q11 -7 14 -21v-126l21 -7q-32 -54 0 -119q34 -15 42 -42q32 7 42 -21q59 27 105 0l28 21q52 -28 98 -21q2 21 21 21q-7 62 42 84q-47 78 0 133v70q-2 64 42 91q4 -59 42 -84q-8 -47 -21 -77q26 -21 0 -126l21 -7
q-16 -29 -21 -63q60 -33 84 -84q90 28 112 0q35 29 105 0q25 55 77 42l21 42q100 4 147 84q-32 15 -42 42q40 22 0 42q4 -51 -42 -42q3 20 21 21q-2 50 42 42q-13 47 21 63q-49 68 -21 126q-30 58 21 84q-21 39 -7 84q-11 34 7 63q-109 79 0 42q-14 44 -42 63q3 20 21 21
q-12 47 21 63q-21 39 -21 84q-32 -7 -42 21h42q-11 59 21 91q-46 77 0 140h-21q0 55 21 91q-9 11 -21 14q19 33 21 77q-21 19 -21 49l-21 7l21 119q-34 15 -42 42q-50 -2 -42 42h-21q-35 -45 -84 -49q-34 -14 -49 28q-28 2 -35 -21q-103 41 -154 0l-21 21q-11 -9 -14 -21
q-70 7 -119 -21q-7 10 -7 21q-39 -22 -84 -21v-42q-33 17 -63 0q7 -32 -21 -42q28 -32 0 -42q38 -42 0 -63q31 -82 -21 -147q34 -15 42 -42h-21q-2 -58 -42 -84q17 -35 63 0q-12 -80 -84 -84v63q-54 33 -21 84l-42 28l21 28l-21 14q7 11 21 14q0 35 -21 49v119v21v84
q-29 13 -21 42h-21v119q-4 40 -21 70h21v28v21v140h-84v-21zM962 1682q32 10 0 21v-21zM815 1661q32 11 0 21v-21zM962 1598q32 10 0 21v-21zM941 1535q68 11 0 21v-21zM290 1535q-10 -32 -21 0h21zM332 1535q-11 -33 -21 0h21zM227 1493q-20 3 -21 21q20 -3 21 -21z
M290 1493q-10 -32 -21 0h21zM332 1472q-20 3 -21 21q19 -4 21 -21zM185 1451v21q28 -10 0 -21zM353 1430v42q38 -22 0 -42zM122 1430l7 21q61 -14 -7 -21zM290 1451q-11 -31 -21 0h21zM311 1430v21q28 -11 0 -21zM395 1409v21q28 -10 0 -21zM311 1388l7 21q21 -15 -7 -21z
M311 1388q-11 -28 -21 0h21zM185 1346q-20 3 -21 21q20 -3 21 -21zM899 1325q-11 -71 -21 0h21zM941 1304q-11 -28 -21 0h21zM248 1262v21q28 -11 0 -21zM185 1220v21q28 -11 0 -21zM878 1178q47 -62 -21 -63q-7 75 21 126q49 -33 0 -63zM857 1010l21 84q62 -47 -21 -84z
M17 1031q40 -67 0 -112q26 -39 21 -77q60 25 42 -175q57 -13 42 77q34 77 105 98v56v21v91h-42l21 42q-32 -7 -42 21q-38 -32 -56 21q-24 -26 -49 0q19 -103 -42 -63zM1109 1031v21q72 -10 0 -21zM143 1010v21q28 -11 0 -21zM1151 1010q-11 -71 -21 0h21zM185 968v21
q28 -11 0 -21zM332 947v21q28 -10 0 -21zM290 926v21q71 -12 0 -21zM983 821v21q28 -10 0 -21zM1067 779q-18 -146 -63 21q31 -18 63 -21zM1109 800q-11 -71 -21 0h21zM1781 758q-11 -32 -21 0h21zM1046 674v21q28 -10 0 -21zM1067 632l7 42q28 -26 -7 -42zM1844 653
q-11 -33 -21 0h21zM1802 506v21q28 -10 0 -21zM1361 338v21q28 -11 0 -21zM1844 359q-11 -33 -21 0h21zM1361 296q-20 3 -21 21q20 -3 21 -21zM1844 317q-11 -33 -21 0h21zM1277 212v21q28 -11 0 -21zM1781 86v63q49 -33 0 -63zM1781 86q-11 -28 -21 0h21zM1823 -61
q-11 -28 -21 0h21zM1781 -82q-11 -32 -21 0h21z" />
    <glyph glyph-name="n" unicode="n" horiz-adv-x="1235" 
d="M947 1425q38 -57 -42 -42q-2 -21 -21 -21q38 -65 -21 -105q11 -59 -21 -91q2 -27 21 -42q-7 -11 -21 -14q-15 -83 21 -105v-42q32 7 42 -21q-46 11 -63 -21q30 -12 21 -42q21 -2 21 -21q-4 -37 -21 -63q22 -5 21 -28l-21 -35q39 -23 21 -84q22 -5 21 -28q4 -31 -21 -35
q23 -43 0 -77l21 -21v-574q81 1 105 -63q32 7 42 -21h21v21q74 11 105 63h21v63q54 40 0 119q11 7 21 7q-15 64 21 84q-3 72 -21 119q-3 52 21 84q-46 147 0 182q-36 38 0 56v42q-21 2 -21 21l21 7q-9 11 -21 14q17 64 21 105q-16 4 -21 14q-1 39 21 56q-9 11 -21 14
q-7 31 21 42q-3 19 -21 21q23 95 0 112q7 11 21 14q14 64 -21 84q19 33 21 77q-29 31 -21 70q-30 12 -21 42h-21h-84v21h-21v21q-61 10 -105 42q-2 -21 -21 -21zM212 1404q-18 -36 -63 -21q-25 -39 -105 -21q-9 -97 -63 -161q29 -31 21 -70q50 -35 21 -147h21v-378
q-40 -30 -42 -77q32 -21 0 -28q4 -14 14 -21q3 -50 28 -63q-3 -20 -21 -21q31 -59 -21 -84q-11 -46 21 -63q-45 -79 0 -133q-23 -40 -21 -77q30 -12 21 -42h21q-22 -114 147 -147q12 30 42 21q28 57 91 42q11 9 14 21v28v28v28v28v119v21v84h21q-2 50 42 42q-1 51 21 84
q-17 30 -42 42v56l-21 7v140q-21 16 -21 42q10 7 21 7q-19 31 -21 63h28q41 -29 56 -63h42v-42q54 -33 21 -84q53 -18 21 -63q76 -58 21 -147q52 -32 63 -84q116 -79 126 -210q64 -17 105 -21q-32 -48 21 -42q-7 -32 21 -42q-16 117 21 182v42q-20 40 0 77q-32 38 0 63
q-22 85 0 161q-47 17 -42 63h-21l-14 21q-7 10 -7 21v21h-21v28q-19 24 -21 56q-47 34 -42 84l-42 21l21 42q-47 34 -42 84q-50 -2 -42 42q-30 12 -21 42q-86 59 -42 147q-47 34 -42 84q-50 -2 -42 42q-102 18 -63 105h-21v21q-37 4 -63 21q-43 -63 -105 -21zM989 1383v21
q28 -10 0 -21zM863 1131v21q28 -10 0 -21zM1220 879q-20 3 -21 21q20 -3 21 -21zM1220 648q-11 -31 -21 0h21zM23 249v21q28 -10 0 -21z" />
    <glyph glyph-name="o" unicode="o" horiz-adv-x="1154" 
d="M592 1235l-7 -21q-35 3 -56 21q-51 -17 -84 -42l-14 21q-72 -41 -140 -42q2 -50 -42 -42q-32 -52 -84 -63q-2 -58 -42 -84q13 -47 -21 -63q16 -106 -21 -126q1 -86 -42 -140q40 -31 0 -49q21 -37 0 -70q46 -49 0 -77q15 -64 -21 -84q20 -32 0 -63q45 -16 0 -91v-77
q49 -33 0 -70q19 -24 21 -56l-21 -7q19 -24 21 -56q34 -15 42 -42q53 -18 21 -63q64 -9 84 -63q119 0 105 -63q51 0 63 -42q59 25 105 0q-15 130 21 147l21 -28q-31 -64 -21 -119q45 -6 70 21q11 -7 14 -21q19 3 21 21q40 -20 84 -21q31 19 63 21v21q57 -3 98 21
q25 -24 49 -21q15 128 126 84q12 30 42 21q-7 32 21 42q-7 62 42 84q1 34 21 49q-44 67 21 98q-39 55 0 147q-53 18 -21 63q-29 11 0 21q-35 41 21 49q-61 70 0 133q0 24 -21 28l21 35q-27 60 0 105l-21 7v126q-21 2 -21 21h21q4 37 21 63q-30 12 -21 42q-21 2 -21 21
q-50 -2 -42 42h-42q15 32 42 42v42q-39 23 -21 84q-50 -2 -42 42q-58 2 -84 42q-105 -41 -133 0q-77 -46 -140 0q-15 -35 -56 -21zM543 1214q-2 -35 -21 -56q26 -24 0 -49q16 -3 21 -14q7 -39 -21 -49q26 -56 21 -105q21 -2 21 -21q52 28 84 0v-21q-52 -27 -42 -84
q-19 -4 -21 -21q31 -17 63 -21l-21 -42q34 -15 42 -42q-32 7 -42 -21h63q-13 -29 -42 -21v-21h42q-14 -28 -42 -28q19 -24 21 -56h21q8 -34 -21 -42q31 -67 0 -119q58 -76 0 -140q53 -60 0 -98v-84h-42q-32 -52 -84 -63v42q-64 -35 -63 42l-42 21q24 52 0 84q32 14 42 42
q-31 12 0 35q-25 19 0 35q-27 23 0 42q-36 38 0 56q-4 62 42 91l-7 14q-24 -29 -35 0q-7 31 21 42q-25 30 0 49q-9 11 -21 14q7 18 21 28q6 68 -21 119q18 4 21 21v28v21v140l21 14q-29 65 0 112q-47 31 -14 126h35zM753 1214q-11 -32 -21 0h21zM606 794l7 21q21 -15 -7 -21
zM1131 668q-20 3 -21 21q20 -3 21 -21zM522 374q-3 19 -21 21q3 -19 21 -21zM39 185v21q28 -10 0 -21zM1089 185v21q28 -10 0 -21zM501 -25q-46 18 -42 63q45 -19 42 -63zM480 -88q-28 -46 -21 63q53 -18 21 -63zM459 -130l28 21q33 -99 -28 -21z" />
    <glyph glyph-name="p" unicode="p" horiz-adv-x="1070" 
d="M152 1191l-42 21v-35l-42 -7q7 -32 -21 -42q13 -47 -21 -63l21 -28q-7 -11 -21 -14q0 -35 21 -49q-23 -40 -21 -77q38 -43 0 -63q33 -42 0 -70q23 -25 0 -49q26 -24 0 -49l42 -21q-13 -29 -42 -21q20 -32 0 -63q40 -20 0 -63q21 -2 21 -21q-34 -68 0 -119q-11 -7 -21 -7
q14 -29 42 -21l-21 -49q-11 -81 21 -133l-21 -28q16 -4 21 -14l-21 -21l21 -21l-21 -14l21 -21q-7 -11 -21 -14q51 -72 0 -105q21 -77 0 -140v-42q33 -36 42 -70q35 -2 56 -21q24 26 49 0q35 51 105 0q12 30 42 21q11 -28 42 -21q32 52 84 63v63l21 56q0 24 -21 28
q1 34 21 49l-21 70q32 32 0 56q22 24 0 42l21 28l-21 7l21 35l-21 7v28v21v91q11 7 21 7v126h21v-189q-18 -4 -21 -21q61 10 91 -21q28 -2 35 21q54 -26 105 -21q26 52 84 42q12 30 42 21q26 52 84 42q17 47 63 42l-21 42q39 7 63 21q2 35 21 56l-21 28h21v21v84h21v119v21
v84l-21 7v77l-21 28q18 4 21 21q-30 12 -21 42h-21q16 29 21 63h-21v42q-47 17 -42 63q-34 15 -42 42q-39 -6 -63 -21v42q-109 -56 -147 0h-63q-18 -36 -63 -21q-3 -16 -14 -21q-25 29 -49 42v-21l-21 -42q-17 -64 -21 -105h-21q-7 75 21 126q-45 12 -63 42q-51 -19 -84 0
q-11 -30 -35 -42q-67 54 -133 21q7 32 -21 42v-42zM425 1191q-11 -28 -21 0h21zM509 939h-21q28 -52 0 -84q21 -2 21 -21q98 19 105 -63q63 10 42 -126q-77 -12 -84 -84h-21l21 -42q-64 -4 -105 -42v28v35v28v35v91v28v119v21v84q7 11 21 14q-19 31 -21 63q64 -1 42 -84z
M488 729q58 44 0 84v-84zM47 666l7 21q21 -15 -7 -21zM467 456l28 21q5 -133 -28 -21zM68 414q-10 -32 -21 0h21zM572 204v21q28 -11 0 -21z" />
    <glyph glyph-name="q" unicode="q" horiz-adv-x="1296" 
d="M306 1572q-45 -101 -126 -147q7 -32 -21 -42v-42h-42v-21q-48 -31 -63 -84q21 -2 21 -21q-59 -24 -21 -84h-42q18 -44 42 -70l-21 -21q19 -57 0 -105q53 -60 0 -98v-63q21 -39 21 -84h21q-33 -70 21 -105q-11 -46 21 -63q-3 -20 -21 -21q3 -19 21 -21q-25 -52 0 -84
q-28 -11 -21 -42h21l21 -84q47 -17 42 -63q34 -15 42 -42l42 21q24 -145 189 -147q-13 47 21 63q3 -49 42 -63l-21 35l21 14v119v21v84q18 4 21 21h-21q3 20 21 21q-34 72 -21 147q-39 5 0 105h21q-20 32 0 63q-28 12 0 42l-42 -21q-7 87 42 154q-23 25 0 49q-41 28 -42 70
l21 14q-30 13 21 98l-7 14q-31 -4 -35 21h42q2 71 21 119v28v77v49q-39 25 -21 105l21 7q-26 39 -21 77h-21q-83 -34 -84 0l-42 -21q7 32 -21 42q-18 -36 -63 -21zM579 1572q-2 -21 -21 -21q39 -55 0 -147h21v-245l21 -28h21q37 69 105 21q-3 -20 -21 -21q27 -59 0 -105
q66 -53 0 -105q56 -109 0 -147q9 -71 -42 -105v-63q36 -18 21 -63q43 6 42 -35q-29 -33 -21 -70q-43 -19 -42 -63q-58 -25 -105 0q17 -81 -21 -105q28 -52 0 -84q47 -28 0 -84q36 -18 21 -63q21 -2 21 -21q59 31 84 -21q29 14 21 42q91 -58 21 -210q62 7 84 -42q29 14 21 42
q56 3 21 -28v-35q33 -15 42 -42q-82 18 -126 -35v-7v7v-7q32 20 63 0v21q60 -7 84 42q19 -4 21 -21q55 4 21 -42q48 21 84 0q27 66 105 0l-21 42q-85 12 42 28v14v-14v14q-53 -3 -42 49q-31 54 14 77l7 -42h21q-13 47 21 63q4 -57 -21 -105q45 20 42 63q31 -15 42 -42h21
q-36 47 21 42v21q-78 59 0 112q-50 62 -21 119q-48 -3 -49 42l-14 7q2 28 -21 35v-42q-61 18 -21 42q-20 32 0 63q-37 5 -63 21q16 34 42 49q-9 45 21 56v28v21v140q18 4 21 21l-21 49q4 79 42 126q-23 25 0 49q-26 24 0 49q-31 59 0 105q-30 13 0 42q-40 7 0 70
q-26 39 -21 77h-42q3 20 21 21v21v42q-36 18 -21 63q-30 12 -21 42h-42q20 40 21 84q-59 -1 -42 63q-32 -7 -42 21q-73 -35 -63 21q-99 -44 -147 42q-72 -3 -119 -21q-25 24 -49 21q-12 -30 -42 -21zM348 1551q-10 -32 -21 0h21zM54 753v21q28 -10 0 -21zM1314 753
q-3 19 -21 21q3 -19 21 -21zM705 669l7 42q28 -26 -7 -42zM516 669q-11 -33 -21 0h21zM1272 669h-21q11 -32 21 0zM1041 228q-35 16 -7 42q32 -32 28 21q94 -60 -21 -63zM1188 102q-20 3 -21 21q20 -3 21 -21zM1230 60q-20 3 -21 21q19 -4 21 -21zM1167 39v21q28 -10 0 -21z
M1251 18q-11 -33 -21 0h21zM1209 -45q-20 3 -21 21q20 -3 21 -21zM663 -45q68 11 0 21v-21zM747 -108v63q67 -31 0 -63zM600 -87q32 11 0 21v-21zM684 -66h-21q11 -32 21 0zM1104 -87q-11 -31 -21 0h21zM1230 -122q-30 -3 -21 35q26 -6 21 -35zM1062 -108q-10 -32 -21 0h21z
M810 -150v21q28 -11 0 -21zM894 -192v42q37 -20 0 -42zM999 -192v42q37 -20 0 -42zM1069 -234q-22 24 -49 21q17 31 21 63q62 -27 28 -84zM579 -171q68 11 0 21v-21zM908 -213q17 24 49 21q-4 -19 -21 -21q6 -57 -35 -21q-61 -7 -42 42q31 -4 49 -21zM978 -213v21
q33 -11 0 -21zM999 -297q-57 26 -35 84q31 -38 35 -84zM726 -234q68 10 0 21v-21zM1062 -234q-32 -48 -63 0h63zM684 -255q75 -27 0 21v-21zM1188 -276q32 10 0 21v-21zM852 -339v-21q102 18 42 63q4 -51 -42 -42zM789 -381q41 22 0 42v-42zM915 -360q33 -50 63 21h-42
q-2 -21 -21 -21zM1020 -402q72 29 21 63q-5 -37 -21 -63zM663 -381q32 11 0 21v-21zM768 -381h-21q11 -32 21 0zM873 -381h-21q10 -32 21 0z" />
    <glyph glyph-name="r" unicode="r" horiz-adv-x="1134" 
d="M538 1481q54 12 0 23v-23zM64 1451q-7 -75 -74 -69v-38q48 7 34 -45h-54q24 -38 0 -69q21 -5 20 -30q54 -11 0 -23v-45q51 3 41 -54l-41 16v-54q35 2 41 -30v-69v-30q1 -83 -7 -122l7 -22q1 -62 -7 -107q7 -59 7 -99q-25 -1 -41 -15q9 -28 34 -23q-25 -11 -34 -30
q20 -19 41 -15v-312l-7 -15l7 -137l-61 -15q11 -48 61 -31v-364q47 -11 54 30h27q3 -58 34 -76q20 41 61 30q-73 56 40 69v-23q-34 1 -34 -30q56 4 95 -16q35 52 88 46v53l20 38q-25 8 -27 31l7 121l20 46q-3 20 -20 23l-7 22l7 31v30l-7 38l7 38l-7 31v61q1 49 7 83
q-8 46 -7 76l27 15q-28 34 -20 76q48 -32 34 -91q27 -7 20 -38h34h20l21 -7q105 13 176 0v-38q47 -3 54 -54q49 -11 40 -68h27v-388q35 -19 21 -68q53 -7 40 -91h75h27h20h34h20h27h21h135v53h-34q-17 159 34 152v53q-61 12 -54 -53h-27q-19 77 27 91q-70 59 54 68v31
l-81 15v23v30v99l-14 8v137q-36 4 -27 45q-20 3 -20 23q40 -10 47 30q-69 -1 -81 46h-41q6 28 34 23q8 64 88 45q19 94 95 107q4 40 41 30v23q-30 -4 -34 23q25 20 54 15q-26 62 0 68l-20 46v23v30v137h-34q27 21 34 46q-54 7 -41 106q-54 16 -81 69q28 4 27 30
q-57 -2 -41 68q-49 -10 -47 38q-52 -4 -34 -83l-7 45q-54 -7 -94 0q-7 50 -48 61q10 -60 -34 -61q-4 54 0 92l-6 -31q-49 -12 -55 31h-33q-30 -66 -88 -31q-20 -40 -122 -23v54l27 15h-34h-34q57 -40 0 -46v-23q-20 3 -20 23q-35 -18 -68 -23v23v-7v7q-125 10 27 46l-27 15
q-8 12 -20 15q-13 -50 -75 -30q-7 -80 -61 -31q21 22 41 16q-17 17 -41 22q-3 21 -20 23q-40 -6 -7 -45l-115 15q0 -66 -67 -46v31q45 4 27 45q-8 -44 -48 -30zM491 1451q45 16 0 30v-30zM24 1436h-34q17 -58 34 0zM173 1344v61q83 -30 0 -61zM213 1382v23q57 -11 0 -23z
M173 1276v23q69 -12 0 -23zM267 1299q-10 -35 -20 0h20zM173 1276q-10 -50 -21 0h21zM335 1230q-52 -117 -68 0l27 16zM152 1230q-14 -52 -27 0h27zM267 1177q-9 -77 -20 0h20zM-30 1139q2 39 -27 38q-3 -39 27 -38zM247 1132q-17 -74 -34 0h34zM613 1071q-17 -59 -34 0h34z
M450 1040q77 -16 129 -15v-30h34q13 58 128 45q27 -14 54 -15q14 -51 82 -30q-3 -59 40 -61q-35 -13 -34 -46q90 -5 34 -167h-34l-6 -61q-50 11 -55 -30q-19 23 -40 30q-115 -29 -203 23q-4 -16 -14 -23q-41 27 -74 -7l-14 30q-14 -34 -47 -30q-10 -77 0 -130h-34
q-17 82 20 107q-21 38 -27 76q1 61 27 91q-18 46 0 99l-20 30h34q-53 25 -41 99q25 1 41 15h20zM538 972q-3 21 -20 23q3 -21 20 -23zM613 972h-34q17 -90 34 0zM267 789v31q44 -11 0 -31zM267 789q-9 -30 -20 0h20zM247 767q-17 -74 -34 0h34zM538 523v23q57 -11 0 -23z
M782 67h-27q16 -37 27 0zM-71 14q73 16 0 30v-30zM755 -32v-22q32 -5 27 -38q37 93 -27 106q43 -35 0 -46zM1066 -298v61q84 -30 0 -61zM173 -298q-49 -9 -48 38q49 10 48 -38zM1147 -260q-15 -69 -27 0h27z" />
    <glyph glyph-name="s" unicode="s" horiz-adv-x="1204" 
d="M327 1147q-28 -55 -104 -14l3 -21q-62 -14 -54 -71q-199 -80 -172 -279q-18 -7 -18 -24q21 1 24 -18q-27 -15 -15 -45l21 3q2 -34 -13 -58q29 -20 6 -48l22 -4l5 -35q49 -29 60 -76q55 -23 68 -76q82 -37 121 -110l42 6l26 -39l42 6l3 -21l83 12q8 -57 68 -33
q19 -72 92 -50q7 -17 24 -18q18 -46 -12 -65q26 -87 -24 -131l27 -39l-39 -26q-2 109 -38 122q-5 74 -39 121l-34 -5l-28 -3l-35 -5l-90 -13l-27 -4l-118 -17l-21 -3l-83 -11q0 -22 -18 -24q23 -64 -33 -68q23 -28 30 -60q57 -27 32 -80q78 24 48 -36q56 12 26 -38
q32 -8 27 -39q64 23 68 -33q35 -10 48 -36q38 12 59 30l6 -41q137 -42 253 14l-6 42l44 -15l-6 41q50 -21 12 -83q62 40 114 -5q126 89 100 -7q34 40 77 53q-7 50 33 68q0 82 71 95l15 45l20 10q4 59 52 85q-8 50 33 68q-36 57 -16 111q-59 70 -41 136q-31 8 -26 38
q-20 4 -31 17q-22 18 -20 40l-20 -3q-23 28 -30 59q-77 24 -98 93q-36 10 -47 35q-31 -11 -45 15q-28 -32 -42 -6l-80 -32l-10 20l-20 -3l-15 5l-9 12q-30 -7 -38 16q-62 2 -110 27q-2 93 -80 116q11 34 36 48q-32 28 -6 41l-26 39l41 6q18 -62 36 -101l41 6q13 38 60 29
q4 -57 34 -94l-17 -30l39 26q1 -37 -12 -65q33 9 52 28l13 -40q57 63 115 37q11 35 90 13q13 38 60 30q-1 21 18 23l-27 39l42 6q-20 45 11 65l-12 90q-32 36 -32 74l-21 -3l-6 41l-20 -3l-6 42q-94 -10 -116 68q-48 16 -71 54q-116 -63 -146 -21q-61 -24 -86 9l-62 -8
q-10 -36 -36 -48q23 -28 30 -59q-73 23 -35 94l-22 4q-11 -38 -59 -30zM431 1013q39 -14 38 -121l-41 -6q-3 35 13 58q-29 20 -7 49q-42 17 -33 80q55 -11 30 -60zM478 681q-6 -34 -21 -3zM956 748q-6 -33 -21 -3zM519 93q-1 -72 -21 -3zM126 -133l-3 21q30 -6 3 -21z
M643 -187l-2 64q40 -34 2 -64zM1080 -125q-7 -32 -21 -3zM649 -228q-21 0 -24 18q21 0 24 -18zM658 -291l-2 64q40 -33 2 -64zM325 -338l-3 21q29 -6 3 -21zM827 -288q-6 -34 -21 -3z" />
    <glyph glyph-name="t" unicode="t" horiz-adv-x="885" 
d="M161 1437q-63 -5 -63 -63h-21q-7 -70 21 -119q-10 -7 -21 -7q33 -86 42 -147q119 0 105 -63q32 7 42 -21h21q15 34 42 42q21 -39 21 -84h21q-7 -18 -21 -28q24 -53 0 -98h21q16 -106 -21 -126q19 -53 0 -105q34 -15 42 -42h-42q-3 -20 -21 -21q5 -108 -84 -63
q27 -53 84 -42q17 -30 42 -42v-42q-75 37 -21 -63q-84 10 -42 84q-59 -26 -21 -84q-36 -25 -63 7l21 35q-34 1 -49 21h-7h7h-14h7h-7q37 -62 -21 -84v-21q39 21 84 21q-12 -31 -42 -21q-18 -52 -63 -21q31 -44 -21 -63q-4 -37 -21 -63h42v-21q-48 -4 -63 -42q39 6 63 21
q-11 -79 -84 -42q18 -32 21 -63h14q45 -37 7 42q80 10 84 -63q29 14 21 42q31 -13 21 -49q36 -56 -42 -14q-15 -32 -42 -42q3 -19 21 -21q40 70 84 0q-49 -3 -63 -42q123 76 84 -21q29 -13 21 -42q62 -4 49 42q-56 -11 -35 42h-7h7h-7q5 53 56 21q-25 40 -14 84h14
q12 -30 42 -21q-16 -29 -21 -63q68 -41 42 -161q2 -35 42 -7v-252h21v98q10 7 21 7v21v28v21v140h42q-39 80 0 147q50 0 63 -42q49 3 63 42q127 -43 147 63l42 21q7 34 -21 42l21 42q-26 57 0 63q-25 30 0 49q-28 48 0 56q-25 30 0 49q-30 46 0 84q-23 35 0 77q-45 16 0 91
q-47 42 -42 98q26 1 42 14q-49 80 -21 112q-38 22 0 42q-28 56 21 98q-5 40 -21 70h42q-1 51 21 84q91 10 147 -42v21q73 -1 42 63q130 93 63 231q18 4 21 21q-47 34 -42 84q-47 -13 -63 21h-21q-18 -36 -63 -21l-7 -21q-11 7 -14 21q-44 -32 -63 21q-49 -3 -63 -42h-28h-49
l-28 21v-21q-20 3 -21 21q-19 -3 -21 -21q-88 25 -147 21q-55 36 -21 -21q-43 0 -56 42l-7 -21q-20 3 -21 21q-104 -22 -147 0q38 -50 -28 -42q-20 21 -14 42h-84v-21zM350 1038v21q28 -11 0 -21zM1043 1045q-18 -7 -21 14q15 -4 21 -14zM308 597q32 11 0 21v-21zM98 555
q32 11 0 21v-21zM245 534q3 -19 21 -21q66 32 0 63q36 -47 -21 -42zM350 513l7 42q61 -37 -7 -42zM812 534q-20 3 -21 21q20 -3 21 -21zM791 492v21q28 -11 0 -21zM329 450l7 42q78 -24 -7 -42zM203 450q41 22 0 42v-42zM56 429q60 21 21 42zM812 408v21q28 -10 0 -21z
M56 408h-21q11 -32 21 0zM119 408h-21q10 -32 21 0zM224 366q60 21 21 42zM371 345l7 21q21 -15 -7 -21zM350 324v21q33 -11 0 -21zM98 324q32 10 0 21v-21zM14 324h-21q11 -32 21 0zM-7 282v-21q88 12 42 42q-13 -29 -42 -21zM329 261q-19 4 -21 21q20 -3 21 -21zM308 261
q-58 -102 21 -105v-21h-21q26 -38 -7 -63q-46 -4 -14 63q-51 -19 -84 0v42q63 -43 63 21q-30 11 0 35q-15 10 -14 28h56zM77 261h-21q10 -32 21 0zM119 261h-21q10 -68 21 0zM245 240q-11 -33 -21 0h21zM371 240q-22 -41 -42 0h42zM161 135q-44 24 7 63q18 -35 -7 -63z
M329 177q-20 3 -21 21q20 -3 21 -21zM350 177v21q28 -10 0 -21zM336 177q16 -29 -7 0h7h-7h7zM378 177q16 -29 -7 0h7h-7h7zM14 177h-21q11 -32 21 0zM35 135q32 11 0 21v-21zM336 135q20 -32 -7 0h7h-7h7zM392 135q-10 -32 -21 0h21zM203 72q78 13 63 -63q29 -13 21 -42
q-52 27 -42 84q-39 -5 -63 -21q-2 51 -21 84q51 4 42 -42zM287 9v42q74 -9 0 -42zM161 9v21q33 -11 0 -21zM210 30q16 -29 -7 0h7h-7h7zM336 30q16 -29 -7 0h7h-7h7zM329 -33v21q28 -10 0 -21zM266 -33q-10 -28 -21 0h21zM329 -33q-28 -46 -35 0h35zM350 -54l7 21
q21 -15 -7 -21zM98 -75q34 -51 63 21h-21q-13 -29 -42 -21zM287 -117v42q37 -20 0 -42zM245 -117l7 21q20 -15 -7 -21zM602 -117v21q28 -10 0 -21zM392 -138v21q28 -11 0 -21zM371 -159h-21q10 -32 21 0zM560 -180q32 10 0 21v-21zM560 -201q-6 -53 42 -21q4 -19 21 -21
q-24 30 0 49q-9 11 -21 14q-13 -29 -42 -21zM245 -201h-21q10 -32 21 0zM392 -201h-21q11 -68 21 0zM665 -222h-21q10 -32 21 0zM266 -285q7 34 -21 42q-7 -34 21 -42zM518 -285q32 11 0 21v-21zM287 -306q32 10 0 21v-21zM329 -327q52 -66 63 21h-21q-12 -30 -42 -21z
M539 -327h-21q10 -32 21 0zM308 -432q71 36 0 42v-42zM392 -453q32 11 0 21v-21z" />
    <glyph glyph-name="u" unicode="u" horiz-adv-x="1205" 
d="M1014 1175q-18 -44 -91 3q-11 -8 -15 -20l-42 1q-20 38 -69 24q-25 -18 -57 -19q12 -76 -25 -111q16 -21 19 -50q-28 -74 -4 -98q-7 -11 -21 -13q-4 -63 17 -106l-22 -13q27 -28 19 -64q-1 -22 -22 -27q-8 -33 19 -43q-4 -19 -21 -20l19 -35q-1 -23 -22 -28
q-16 -76 17 -112l-22 -28q-1 -24 20 -28q-5 -38 -24 -70q26 -84 -4 -104q34 -53 -3 -98q15 -4 20 -15q-11 -7 -21 -6l20 -29l-43 -27q35 -7 41 -29l-42 1q45 -63 -24 -62q-14 -28 -43 -26q8 -45 -23 -55q-28 36 2 42l-20 28l5 140q-61 45 -17 113q-34 40 3 56q-26 53 3 84
l3 84q-58 47 3 84q-26 99 6 147q-16 4 -21 15q11 7 21 6q-25 59 4 98q-65 54 -35 176q59 22 24 83h21q-6 31 22 41l1 21q-57 -2 -19 42q-68 28 -110 68q-85 -26 -105 4q-40 -35 -56 2q-33 -20 -63 2q-19 -35 -63 -19q-18 -52 -57 -18l-29 -20q24 -32 -2 -49q36 -40 -22 -35
q69 -92 -5 -125l-1 -28q28 -45 -3 -77q30 -13 41 -37l-21 -6q-5 -71 -26 -118q25 -25 -2 -49q54 -40 -3 -98q18 -46 -4 -91q32 6 41 -23l-42 2l20 -43l-22 -13q-1 -24 20 -29q-4 -20 -22 -20q19 -95 -5 -147q33 -16 40 -43l21 -1l-22 -41q19 -34 -3 -63l21 -1l-2 -63
q54 -43 38 -107q58 -39 59 -107q45 -24 61 -65l63 -3l-2 -42q51 0 85 18l-1 -21l63 -2q25 -44 84 -3q-3 34 -19 56q11 7 21 7l5 126l21 -1q17 -51 -3 -84q46 -29 -3 -84q29 -14 19 -43q45 1 76 -24q20 21 50 19l1 21q36 -6 62 -23q36 28 42 -2q32 18 64 19l1 42q49 -3 44 40
l84 -3q35 59 87 81l-20 36q49 33 45 82q11 7 21 6q-47 74 4 105q-20 36 3 56q1 25 -20 29q30 43 -19 64q20 35 44 54q-24 26 3 70q-36 22 -17 127l21 -1q-27 40 3 77q-47 9 -40 51q31 15 44 40q-46 32 3 84q-26 2 -42 15l43 13q-8 11 -21 15q-7 59 25 90l1 35l-21 8
q-2 30 23 34q-26 53 3 84q-29 11 1 21q-24 31 2 49q-35 39 2 56l1 42h-21q-3 65 -60 66l-7 21h-14q-19 -35 -63 -18zM1138 1128q-20 4 -20 22q19 -5 20 -22zM235 1141l1 21q27 -12 -1 -21zM76 832l8 21q20 -16 -8 -21zM1147 813q-11 -28 -21 0h21zM559 814q-3 19 -20 21
q2 -19 20 -21zM96 810l8 21q20 -16 -8 -21zM93 726l10 63q33 -40 -10 -63zM533 689q-20 3 -20 21q19 -4 20 -21zM111 641q-12 -32 -21 1zM1138 561q-13 -32 -21 1zM1132 414q-12 -32 -21 1zM517 248q-21 3 -21 22q20 -4 21 -22zM543 -173l1 42q102 -82 -1 -42zM326 -354
l1 21q27 -12 -1 -21zM555 -405l-21 1q9 -32 21 -1z" />
    <glyph glyph-name="v" unicode="v" horiz-adv-x="1145" 
d="M58 1146q-1 -34 -21 -49q36 -38 0 -56v-42q27 -7 21 -35q-1 -88 63 -91v-21h-42l7 -21l14 -7q-2 -28 21 -35q5 -102 42 -126q2 -51 21 -84q-39 -21 0 -126q-57 -44 0 -112l-21 -35q41 -16 42 -56l-21 -56q-2 -28 21 -35v-126h21q0 -74 63 -42v-84q36 -18 21 -63h21
q30 -112 -21 -147q20 -32 0 -63q46 -12 63 -42q55 27 105 0q-17 67 126 0q-27 52 0 84q-64 47 21 84q32 -55 0 -98l21 -49q57 26 63 0q61 32 98 -21q36 17 70 21q15 45 42 70q-32 48 21 77l-21 42h21q15 34 42 42l-21 28q7 11 21 14q-1 105 42 182q-32 77 -21 140
q16 25 42 35q-7 62 42 84q3 74 42 119l-21 7q7 32 -21 42q15 32 42 42q-28 32 0 42l-21 42l42 7q-23 25 0 49q-25 38 0 56q-33 57 21 105v70v77v35q37 23 21 77l21 28h-42q-19 43 -63 42q-39 56 -91 -21l-35 21l21 -42q-50 -4 -42 42q-91 -17 -133 21h-35q-12 -30 -42 -21
q-15 -34 -42 -42v-189q-19 -4 -21 -21q42 -30 42 -77q-26 -2 -42 14q3 -19 21 -21q-36 -62 21 -84q-3 -20 -21 -21q-24 -106 0 -105q8 -34 -21 -42v-161q-10 -7 -21 -7v-140q-22 -37 -42 -49q3 -19 21 -21v-224l-21 -21q38 -43 21 -133l-42 21q-2 45 21 77q-46 44 0 119v21
v91q-32 34 -21 77l21 21q-21 75 0 140q-4 19 -21 21q7 18 21 28q-31 33 0 140q-28 7 -21 35l21 28h-21q-17 70 -63 105q7 70 -21 119v21v28v126q-16 3 -21 14l21 21q-21 19 -21 49q-32 -7 -42 21q-47 -13 -63 21q-34 7 -42 -21q-20 3 -21 21q-19 -3 -21 -21q-69 32 -126 0
q-4 18 -21 21l-7 -21l-14 7q2 28 -21 35q-17 -46 -63 -42zM107 1146q16 -29 -7 0h7h-7h7zM730 1020v21q28 -11 0 -21zM58 999v21q28 -10 0 -21zM751 978q-20 3 -21 21q20 -3 21 -21zM79 915v42q38 -22 0 -42zM709 915l7 21q21 -15 -7 -21zM730 873v21q28 -10 0 -21z
M1087 474q-11 -32 -21 0h21zM604 -219v42q105 -78 0 -42zM688 -345q-11 -31 -21 0h21z" />
    <glyph glyph-name="w" unicode="w" horiz-adv-x="1705" 
d="M205 1294q-3 -20 -21 -21q40 -61 -63 -42v-63l-42 21q17 -81 -21 -105v-42h42v-56q26 -56 21 -112q40 -24 21 -77l21 -7l-21 -42h21q4 -59 42 -84q0 -44 21 -77q-10 -7 -21 -7v-168h21v-42q53 -37 21 -126h21q-3 -20 -21 -21q22 -47 0 -84q19 -31 21 -63h-21l21 -28v-161
l42 -21l-21 -42q45 -23 63 -63l84 21v-21q30 -12 21 -42q34 -15 42 -42q32 20 63 0v21q40 17 42 56v28v119v21v84l21 28h-21v28v119v21v84h21q25 -46 0 -70q30 -44 0 -77q30 -12 21 -42h21q-3 -20 -21 -21v-42q12 -49 -21 -63l21 -35q-23 -48 0 -91l-21 -14v-70h21
q12 -86 42 -42q64 6 63 63h21q-4 63 21 105q-21 2 -21 21h42q-32 89 21 126q-4 96 84 105q-6 39 -21 63l84 21l-21 -42q27 -9 0 -63q61 -44 42 -168l-21 -7q46 -49 0 -77v-56q22 -47 21 -91q67 14 63 -42q19 3 21 21q92 -11 126 63q50 4 42 -42h21q-7 32 21 42
q-6 -53 42 -21q10 -53 126 -21q0 51 42 63l-21 28q31 64 21 119h21q-23 43 0 77q-28 21 0 42q-38 42 21 70q1 34 21 49q-36 38 0 56q2 58 42 84l-21 42h42q-1 51 21 84q-29 100 0 168q-40 -7 -42 28q21 20 42 14q-47 62 21 63q-14 67 42 63q-7 32 21 42q7 70 -21 119
q11 7 21 7v21v126q55 39 21 168q-37 4 -63 21v-21q-57 -6 -98 21l-7 -21q-50 24 -91 21q-29 -20 -63 -21q-20 21 -14 42h-63q-13 -29 -42 -21q-15 -34 -42 -42q-35 -80 0 -140l-42 -7q-7 -34 21 -42l-21 -49v-98q40 -24 21 -77q-11 -7 -21 -7q22 -39 21 -84l-21 -7
q30 -36 -21 -98l-42 21q-12 48 21 63q-33 42 0 70q-47 62 -42 133l-21 28q18 4 21 21h-21q-12 96 21 168v42q-36 39 -42 84q-62 -7 -84 42h-42l21 -42q-31 -7 -42 21q-60 -36 -126 21v-21h-21q-54 -35 -105 -42q8 -47 -21 -70q36 -75 0 -77q13 -47 -21 -63q29 -46 -21 -105
q29 -10 0 -21q20 -32 0 -63q39 -23 21 -84l-42 21q8 -18 21 -28q9 -45 -21 -56q21 -37 0 -77l21 -98q15 -56 -21 -77v-35q38 -47 21 -112h-21v63h-21q-12 82 21 140l-21 7q7 32 -21 42q3 20 21 21q-18 44 -42 70v70v28v21v140l-21 7v77l21 21q-33 36 -42 70q30 16 42 42
q-53 -37 -42 35l42 7q-28 32 0 42q-22 39 -21 84q-21 2 -21 21q-47 -13 -63 21q-52 -28 -84 0q-12 -30 -42 -21q-2 -21 -21 -21q-19 43 -63 42q-12 -30 -42 -21zM212 1273q20 -32 -7 0h7h-7h7zM268 1273q-10 -32 -21 0h21zM352 1252v21q28 -11 0 -21zM1507 1231v21
q28 -10 0 -21zM1570 1252q-10 -28 -21 0h21zM1255 1042v21q28 -11 0 -21zM1675 1042v21q28 -11 0 -21zM1234 622q-12 -177 -63 0q33 -18 63 0zM1213 433v63q49 -33 0 -63zM1591 454q-20 3 -21 21q20 -3 21 -21zM1570 370v21q28 -11 0 -21zM1507 -71q-20 3 -21 21
q20 -3 21 -21zM352 -218v42q74 -33 0 -42zM730 -197q-10 -32 -21 0h21z" />
    <glyph glyph-name="x" unicode="x" horiz-adv-x="1175" 
d="M1070 1389q-59 -4 -84 -42q-20 3 -21 21q-45 -36 -42 21q-91 -43 -175 0q-24 -19 -56 -21q-12 -46 -42 -63q20 -93 -42 -126q0 -51 -42 -63l21 -42h-42q11 46 -21 63v70q-27 46 -21 91q-21 19 -21 49h-21h-21h-70h-28h-28h-21h-28h-126q-11 7 -14 21q-51 -19 -84 0v-21
l-21 -42q-17 -64 -21 -105q36 -18 21 -63q21 -2 21 -21q34 -15 42 -42q93 -15 84 -105q47 -17 42 -63l42 -21l-21 -35v-175l42 -21q-3 -20 -21 -21q3 -19 21 -21q-20 -40 -21 -84q-17 -64 -21 -105h-21q7 -32 -21 -42v-28q-7 -11 -21 -14q7 -32 -21 -42q15 -80 -42 -105v-42
q-39 -7 -63 -21q3 -45 -21 -77q26 -59 -21 -112q47 -17 42 -63q67 14 63 -42q32 20 63 0v21q180 51 252 -42h21q12 30 42 21q2 21 21 21q26 100 0 189l42 -21q-47 79 21 42l-21 49q-4 31 21 35v49v56v28v28v28v28v119v21v84l21 7q-9 11 -21 14v35v28v35v91v28v119v21v84
q32 -15 42 -42q-25 -10 -21 -35v-273q38 -112 0 -147q25 -25 0 -70q30 -13 0 -42q45 -16 0 -91q57 -78 0 -119v-84h21v-42h21q7 -63 21 -98q-24 -25 -21 -49q47 -17 42 -63q51 0 63 -42q61 -8 84 -63h21v-210h42q-1 209 21 105h21v21l21 126l42 -21q15 34 42 42v-147
q35 18 21 126q38 -23 21 -112q9 -11 21 -14q-29 137 63 147q12 46 42 63q-22 39 -21 84h-21q-31 48 -84 63v56q-89 111 -84 231q-42 50 -42 105l-21 7l21 42q-53 19 -21 63l-42 21q18 62 63 84l-42 98q10 7 21 7q-5 56 42 21q-27 55 -21 105l42 21v35q10 7 21 7v63l42 21v21
l7 21l14 7q4 55 21 91l42 7q0 51 42 63q-7 32 21 42q-19 31 -21 63h-42q-19 43 -63 42v-21zM251 675v21q28 -10 0 -21zM881 675v21q28 -10 0 -21zM881 633q-29 13 -21 42q31 -12 21 -42zM923 507q-11 -33 -21 0h21zM146 -144v21q28 -10 0 -21zM818 -158q-30 -3 -21 35
q26 -6 21 -35zM902 -123q-10 -71 -21 0h21zM818 -186l7 21q21 -15 -7 -21zM881 -270q-20 3 -21 21q20 -3 21 -21z" />
    <glyph glyph-name="y" unicode="y" horiz-adv-x="1495" 
d="M1448 1480h-18q9 -27 18 0zM188 1444v18h-36q-38 -46 36 -18zM1520 1444q27 9 0 18v-18zM242 1444h-18q9 -27 18 0zM1556 1354q-17 3 -18 18q-48 -4 -18 36l-36 -18l-18 36q-38 -19 -66 0l-6 -18q-35 17 -72 18q-15 -39 -54 -36q27 -37 -18 -54v-18q-25 14 -54 18v-36
q75 -10 18 -54q5 27 -18 36q-1 -30 18 -42q-20 -35 -18 -66q43 2 36 -36h18v-72q-28 14 -54 0l18 -24q-6 -10 -18 -12l18 -24q-24 -44 -18 -84q18 -2 18 -18q-31 4 -54 18l18 30l-18 18q9 6 18 6q-16 43 0 72q-18 41 0 72q-18 2 -18 18h18v18v24v18v120h-18h-72v-66
q-9 -6 -18 -6v-48q-37 -53 -36 -114h-36q9 -51 -18 -78v-18q-6 -10 -18 -12v-54h-18v-18l-18 -108h-36v-60q-6 -10 -18 -12v-66q-32 -42 -18 -90q-9 -6 -18 -6q-5 66 -30 108q-33 68 30 72q4 32 18 54q-34 -30 -72 -36v36q54 -1 36 72q52 1 54 72h-18q-7 -68 -90 -90v72
q43 2 72 18v18q-53 -8 -72 36h72v18q-27 -6 -36 18q-37 -27 -54 18q-28 13 -36 36q-27 -16 -54 -18q15 27 18 54h-18q6 -29 -18 -36v24q-35 62 -36 120q-31 16 -18 54q-43 -2 -36 36q-189 -20 -144 54q-38 -27 -54 18h-18l-18 -72q-34 20 -18 72h-18q5 -49 -42 -18
q-26 -25 -48 -36q-17 28 0 54q-18 2 -18 18h-18q-14 -84 -72 18h-36q-5 -45 36 -18q10 -42 -18 -54q11 -41 -18 -54q-9 55 -54 72q31 -37 36 -72h18q-19 -39 -18 -78q-7 -10 -18 -12q-19 30 0 -18q-26 -11 -18 -36h18q5 67 24 0q10 -6 12 -18q49 3 18 -36q54 -3 54 -54h18
q-7 47 54 18q-11 -25 -36 -18q-21 -63 -72 -36q17 -39 54 -36q-11 -110 -36 -18h-18v-36q33 -20 18 -72q33 5 54 18q3 -43 -36 -36l18 -30l-18 -24q3 -16 18 -18v-18q-18 -65 -18 -108q-44 16 -18 54q-63 -40 -36 -108q-25 14 -54 18q-11 -66 -36 -108q18 -2 18 -18
q-16 -4 -18 -18q68 28 90 -36l-72 18q10 -43 36 -72h18q-35 84 90 0q-18 73 36 72q-22 -47 -18 -90h-36q-45 -58 -72 0q-28 -24 -36 0q-25 -12 -18 -36q64 -12 54 -72q45 -29 18 -72q26 14 36 36q-46 33 -36 90q50 -28 90 -36q-11 -25 -36 -18q17 -31 36 -48q-30 -29 18 -6
v-36q28 17 54 0q-17 39 -54 36v18q38 26 54 -18h18q4 32 18 54q-33 -29 -60 0l-30 -18q-2 44 -18 72h18h72q-6 27 18 36q17 -44 0 -72q30 -2 48 -18q19 23 36 0q19 23 36 0q4 26 24 36q9 -24 36 -18q-31 -47 18 -18q-32 53 18 72v18q-98 -68 -54 18q-29 -6 -36 18
q54 31 60 -18q14 55 48 72q37 -93 -18 -54v-18q69 -27 36 -90q28 -16 54 0v-54h36q19 -93 -36 -90q-22 -99 -120 -90q-50 -43 -24 18h-18q-16 -45 -54 -18q-2 -18 -18 -18q6 27 -18 36q1 -51 -54 -36q27 42 -18 36q2 -43 -36 -36q31 -39 -18 -36q0 49 -54 36q10 27 36 18
q-12 25 -36 18l-18 -36q40 -15 36 -54q-78 48 -60 -18h-48q-3 -54 -54 -54q14 -26 36 -36q12 -68 -36 -36v-18q44 -15 18 -54l36 18q-4 -32 -18 -54q44 -28 54 -72l36 18q13 -38 36 -54q-13 54 18 72v-54h54v-18q55 -15 90 -18q-11 41 18 54q48 4 18 -36q49 25 72 -18
q65 32 72 -36h18q-16 52 -18 90q27 -15 54 -18q-14 -25 -18 -54q97 -34 54 72q56 -11 54 36q40 -24 0 -72q28 17 54 0q-8 47 54 18q16 28 0 54q-44 -23 -72 0v18q110 1 72 90q45 0 72 -18q-1 66 90 72q8 44 36 72q-18 2 -18 18h24q36 51 30 108h18q3 53 54 54q-10 40 18 54
v36q-34 20 -18 72q-18 2 -18 18q55 -1 36 -72h18v54q45 1 54 60q6 10 18 12q-11 41 18 54v18v18v48q-2 55 6 96q22 -34 12 -72h36v36q22 8 18 30q17 41 18 78h18l18 102l36 6v54h18v24q6 10 18 12q-7 62 36 90v36q27 -13 36 -36q16 7 24 18q41 -24 84 -18v18q-30 2 -48 18
q-16 -21 -30 0q-33 -31 -30 18q-41 23 54 18q4 54 54 54q-19 34 -18 72q27 -10 18 -36q14 -3 18 -12q1 -71 54 -6q-43 -2 -36 36l36 -18q28 17 54 0q13 28 36 36l-18 42q-5 10 -12 12q-49 -37 12 54h-54q20 34 72 18v18q-91 24 18 36v18q-45 0 -72 18q31 -41 -18 -36
q-11 -25 -36 -18q7 64 -48 72h-6h6h-6v18q64 5 36 90h-18q4 -54 -18 -90zM260 1408q27 9 0 18v-18zM296 1408q27 9 0 18v-18zM1328 1408q17 -28 -6 0h6h-6h6zM1484 1390q-11 -25 -36 -18q39 -49 -12 -54l-6 36q-38 22 6 54q22 -15 48 -18zM1376 1372v18q24 -9 0 -18z
M1628 1372q58 9 0 18v-18zM116 1372q-9 -24 -18 0h18zM1322 1354l6 18q89 -11 -6 -18zM422 1354q27 9 0 18v-18zM1250 1372h-18q9 -27 18 0zM224 1318l6 36q24 -23 -6 -36zM1538 1354q-9 -24 -18 0h18zM1628 1354h-18q9 -27 18 0zM278 1336q-9 -28 -18 0h18zM332 1318v18
q24 -9 0 -18zM386 1336q-9 -24 -18 0h18zM-28 1300q27 9 0 18v-18zM-28 1264q27 9 0 18v-18zM1574 1228q-17 3 -18 18q18 -2 18 -18zM1628 1192q48 4 18 -36q-63 21 -36 72q25 -11 18 -36zM1736 1210q27 9 0 18v-18zM26 1192l6 18q17 -12 -6 -18zM44 1174l6 18
q52 -12 -6 -18zM1718 1174q27 9 0 18v-18zM1754 1174q27 9 0 18v-18zM98 1156v18q24 -9 0 -18zM1556 1174q-19 -35 -36 0h36zM1610 1174q-9 -24 -18 0h18zM1214 1156h-18q9 -27 18 0zM1754 1156h-36q31 -61 36 0zM134 1138q-9 -28 -18 0h18zM1556 1138q-10 -26 -18 0h18z
M1628 1096q-19 -12 -36 6l18 36q47 -12 18 -42zM746 1102q35 19 0 36v-36zM1556 1102l6 18q18 -13 -6 -18zM1700 1120q-10 -28 -18 0h18zM710 1102q27 9 0 18v-18zM152 1084v18q24 -9 0 -18zM62 1084h-18q9 -27 18 0zM782 1084h-36q31 -61 36 0zM1502 1048v18q24 -9 0 -18z
M692 1048q-9 -24 -18 0h18zM1502 1012q-25 11 -18 36q27 -10 18 -36zM854 1030q-3 16 -18 18q3 -16 18 -18zM1664 976q-18 29 0 54q-3 16 -18 18q-25 -59 18 -72zM206 1030q-48 -104 -48 0h48zM692 994v18q62 -9 0 -18zM764 1012q-10 -28 -18 0h18zM1448 994v18q24 -9 0 -18
zM872 1012h-18q9 -27 18 0zM1574 976q27 -5 36 18q-44 -1 -72 18q-31 -82 36 -36zM710 958v18q24 -9 0 -18zM764 976q-10 -28 -18 0h18zM1214 958v18q24 -9 0 -18zM854 958q27 9 0 18v-18zM152 922v18q24 -9 0 -18zM206 904v18q24 -9 0 -18zM890 904q27 9 0 18v-18zM134 904
q-9 -24 -18 0h18zM800 904h-18q9 -27 18 0zM746 886q-9 -28 -18 0h18zM1196 832h18q-6 27 18 36q-4 -65 -36 -102q18 -14 18 -36l-18 -24h36q-11 -25 -36 -18q2 -43 -36 -36l18 30v18v24v108l-18 6q15 22 18 48q31 -14 18 -54zM1484 886h-18q9 -27 18 0zM242 850
q-9 -28 -18 0h18zM782 814l6 36q24 -23 -6 -36zM836 832q58 9 0 18v-18zM98 832h-18q9 -27 18 0zM782 814q-10 -28 -18 0h18zM188 778q-38 -64 -30 0h30zM242 760q-9 -28 -18 0h18zM782 760q-9 -24 -18 0h18zM260 724v18q24 -9 0 -18zM80 742h-18q41 -64 18 0zM44 670h-18
q9 -27 18 0zM242 634v18q62 -9 0 -18zM98 634q-10 -28 -18 0h18zM134 598v-18q29 -13 36 -36q-69 11 -72 72q27 -5 36 18q63 -29 0 -36zM242 616q-18 2 -18 18q16 -3 18 -18zM350 634q-9 -28 -18 0h18zM8 616q27 9 0 18v-18zM422 562q-25 11 -18 36q25 -11 18 -36zM1196 598
q-9 -61 -18 0h18zM80 544v18q24 -9 0 -18zM80 544q-9 -24 -18 0h18zM242 544q-9 -28 -18 0h18zM26 508v18q24 -9 0 -18zM98 508v18q24 -9 0 -18zM422 508q-17 3 -18 18q18 -2 18 -18zM26 508q-10 -28 -18 0h18zM98 508q-9 -24 -18 0h18zM170 508q-9 -28 -18 0h18zM296 508
q-10 -26 -18 0h18zM26 472l6 18q17 -12 -6 -18zM62 472v18q28 -10 0 -18zM68 454q16 -27 -6 0h6h-6h6zM116 436v18q24 -9 0 -18zM170 436v18q24 -9 0 -18zM278 454q-9 -28 -18 0h18zM368 400v54q42 -28 0 -54zM476 436v18q24 -9 0 -18zM-40 400q14 19 0 36v-36zM26 418
q-9 -28 -18 0h18zM170 400l6 18q52 -12 -6 -18zM440 400q-17 3 -18 18q18 -2 18 -18zM224 352q-10 -45 -54 -42l18 72q37 5 36 -30zM260 364v18q24 -9 0 -18zM386 382q-3 -16 -18 -18q16 -27 18 -54q-63 22 -36 72h36zM-10 364q-3 16 -18 18q3 -16 18 -18zM80 346
q-3 16 -18 18q3 -16 18 -18zM296 328v18q24 -9 0 -18zM782 328v18q24 -9 0 -18zM998 328v18q24 -9 0 -18zM122 328q17 -28 -6 0h6h-6h6zM296 328q-9 -60 -18 0h18zM116 310q-10 -28 -18 0h18zM350 274q-11 19 -12 36q85 -23 12 -36zM674 310q-9 -28 -18 0h18zM782 310
q-9 -28 -18 0h18zM962 292v18q24 -9 0 -18zM116 274l6 18q18 -13 -6 -18zM332 292q-39 -63 -30 0h30zM818 292q-9 -28 -18 0h18zM962 238q34 -20 -18 -36v18v72q31 -15 18 -54zM494 292h-18q9 -58 18 0zM530 256l6 18q17 -12 -6 -18zM728 256v18q24 -9 0 -18zM926 274
q-10 -75 -54 -18q27 -6 36 18h18zM998 256l6 18q51 -11 -6 -18zM1106 256q-28 -7 -36 18q26 6 36 -18zM-10 256q58 9 0 18v-18zM242 274h-54q28 -41 54 0zM818 238v18q24 -9 0 -18zM980 238v18q28 -9 0 -18zM674 220v18q24 -9 0 -18zM746 220v18q24 -9 0 -18zM818 238
q-9 -24 -18 0h18zM998 220l6 18q17 -12 -6 -18zM-10 220q58 9 0 18v-18zM170 220q-9 -28 -18 0h18zM944 184q26 13 42 36q16 -113 -42 -36zM386 202q-3 16 -18 18q3 -16 18 -18zM782 202q-10 -26 -18 0h18zM800 184v18q24 -9 0 -18zM908 166q-25 11 -18 36q25 -11 18 -36z
M-10 184q27 9 0 18v-18zM296 184q-3 16 -18 18q3 -16 18 -18zM998 130l6 54q30 -33 -6 -54zM44 184h-18q9 -27 18 0zM836 130h-36q0 -45 -18 -72q-32 19 0 36q-5 33 -18 54q30 0 42 18q38 -2 30 -36zM872 166q-9 -28 -18 0h18zM944 166q-10 -28 -18 0h18zM674 130v18
q24 -9 0 -18zM980 130q-19 -34 -18 -72q-42 -3 -36 36q-27 -6 -36 18q53 -10 60 36zM1034 130v18q24 -9 0 -18zM836 112l6 18q17 -12 -6 -18zM836 112q-8 -61 -18 0h18zM872 58q-17 3 -18 18q18 -2 18 -18zM944 4q41 -31 -36 0v54q39 -15 36 -54zM836 -2q-26 -10 -54 6
l24 36q71 -28 30 -42zM80 4q27 9 0 18v-18zM998 -14q27 9 0 18v-18zM872 -32v18q24 -9 0 -18zM908 -50v36q63 -29 0 -36zM890 -50q-25 -96 -54 18q25 -14 54 -18zM134 -50q-10 -28 -18 0h18zM134 -86l6 18q18 -13 -6 -18zM44 -140q14 25 18 54q58 -45 -18 -54zM134 -86
q-9 -24 -18 0h18zM170 -104v18q24 -9 0 -18zM-10 -104q27 9 0 18v-18zM116 -140q-25 11 -18 36q27 -10 18 -36zM152 -140v18q24 -9 0 -18zM206 -158l6 36q24 -23 -6 -36zM152 -140q-9 -24 -18 0h18zM62 -194v36q63 -29 0 -36zM134 -158q-9 -24 -18 0h18zM-10 -176
q-3 16 -18 18q3 -16 18 -18zM188 -194v18q62 -9 0 -18zM134 -194q-10 -26 -18 0h18zM152 -212v18q24 -9 0 -18zM98 -212q-10 -27 -36 -18q-4 -21 -18 -6q-13 9 -12 24h66zM62 -302l6 54q30 -33 -6 -54zM188 -266q10 -42 -18 -54q1 42 -36 36q-9 -56 -54 -72q-12 55 36 54
q-21 33 6 54q35 -20 66 -18zM206 -266q-16 3 -18 18q18 -2 18 -18zM242 -284v18q24 -9 0 -18zM530 -266q-10 -26 -18 0h18zM746 -266q-20 -35 -36 0h36zM800 -266h-18q9 -58 18 0zM242 -284q-9 -24 -18 0h18zM512 -320q-43 -3 -36 36q28 -13 36 -36zM530 -320l6 36
q24 -23 -6 -36zM584 -302v18q24 -9 0 -18zM638 -320v36q94 0 0 -36zM350 -302q-10 -26 -18 0h18zM440 -320v18q24 -9 0 -18zM584 -302q-9 -24 -18 0h18zM242 -338v18q24 -9 0 -18zM356 -320q17 -28 -6 0h6h-6h6zM404 -338q-18 2 -18 18q18 -2 18 -18zM638 -320
q-10 -28 -18 0h18zM242 -338q-19 -32 -36 0h36zM350 -338q-9 -24 -18 0h18zM440 -356v18q24 -9 0 -18zM476 -356v18q24 -9 0 -18zM584 -356v18q24 -9 0 -18zM368 -374v18q24 -9 0 -18zM512 -374v18q24 -9 0 -18zM584 -356q-30 -64 -36 0h36zM692 -356q-10 -28 -18 0h18z
M224 -392v18q24 -9 0 -18zM392 -374h66q-37 -50 -72 0h6h-6h6zM584 -410q-9 -24 -18 0h18zM368 -464q27 9 0 18v-18zM440 -464q27 9 0 18v-18z" />
    <glyph glyph-name="z" unicode="z" horiz-adv-x="1524" 
d="M941 1820q-46 1 -63 -63h-21h-126v-21q-45 -25 -63 -63h63q-40 102 84 42q12 30 42 21q20 -82 -35 -84q-54 31 -63 -21q48 31 77 -21q-32 -20 -28 -63q-49 1 -14 42q-74 -3 -21 -84q-78 -13 -63 63q-74 -34 -42 42q-20 3 -21 21q-19 -3 -21 -21q28 -12 0 -42
q39 -5 0 -105q-50 1 -63 42q-45 -36 -42 21q-72 -34 -147 -21q-37 -53 -42 21q-29 -14 -21 -42q-15 4 -21 14l-28 7h-35q-35 46 -84 42q-12 -30 -42 -21q14 -67 -42 -63v-63q16 -4 21 -14q-17 -42 0 -70q-51 -36 0 -98q-10 -7 -21 -7v-21q30 -12 21 -42q21 -2 21 -21
q35 -2 56 -21q13 20 35 21h35h21h28h21h140q9 -71 -21 -119l21 -28h-42q-8 -73 -63 -105q0 -51 -42 -63q7 -32 -21 -42q1 -81 -63 -105q-7 -34 21 -42q-30 -65 -21 -126h-21l-21 -126h-21q2 -50 -42 -42q-9 -64 -63 -84q33 -154 -42 -273h21q-10 -79 63 -84q27 -43 84 0
l7 -21q71 66 119 0q64 15 84 -21q35 19 21 63q29 -13 21 -42h84q37 -148 -63 -105l21 -42q46 24 63 63q31 -18 63 -21v21q-51 -4 -42 42q86 -35 42 21q81 -11 42 -84h42q18 51 63 21q-47 61 -21 105q36 -17 21 -63h42q0 68 63 21q13 29 42 21q-61 65 105 21q-4 57 42 21
q2 21 21 21q2 58 42 84q4 57 -21 98q19 18 21 35q-17 21 -21 49l21 28q-19 30 -28 63h-7h7h-7q-21 21 -49 0q7 32 -21 42v35v21v28v28v28v28v119v21v84q11 7 21 7l-21 42q26 1 42 14q-50 26 -21 70q-16 4 -21 14l42 7v21q-50 -2 -42 42q107 -28 63 -84h21q25 49 0 84
q72 37 84 105l42 -21l-42 63q39 7 63 21q17 -30 42 -42q17 64 21 105q20 -3 21 -21q50 -64 21 21q54 -18 84 0q-68 92 0 84v21h21q-7 -60 42 -84q-30 58 21 84v42q-34 -7 -42 21q-19 -3 -21 -21q-54 37 21 42v21q-111 57 -21 63v56q-12 44 -63 28q26 37 63 42
q-35 55 -42 105h-21q-18 -97 -105 -21q-3 -49 42 -42v-21q-114 0 -42 91q3 22 63 -28q-21 34 0 63q-47 -27 -105 21q35 -46 -21 -42q39 -79 -42 -84q30 45 -21 63q21 -34 0 -63q-25 8 -21 35q-31 21 0 28q-3 49 -42 63q41 -102 -63 -63q-15 -34 -42 -42v21v84q20 -3 21 -21
q31 19 63 21v42h-84q1 52 -7 84h-14v-42zM1151 1757h-21q10 -32 21 0zM1277 1757h-21q10 -32 21 0zM899 1673q-29 13 -21 42q29 -13 21 -42zM647 1715h-21q10 -32 21 0zM773 1715h-21q10 -32 21 0zM1130 1694q68 10 0 21v-21zM605 1673q-3 19 -21 21q3 -19 21 -21zM521 1631
q3 -49 42 -63q-37 43 0 63q22 -40 42 0q-34 -7 -42 21l-42 -21q2 49 -42 42q17 -30 42 -42zM899 1610v42q38 -22 0 -42zM1046 1652q-10 -28 -21 0h21zM416 1631q21 -48 0 -84q59 26 21 84q19 4 21 21h-21q-3 -20 -21 -21zM668 1631q32 11 0 21v-21zM1067 1610v21
q28 -10 0 -21zM1067 1589q-31 -7 -42 21q32 8 42 -21zM710 1589q32 11 0 21v-21zM857 1568q-20 3 -21 21q20 -3 21 -21zM920 1568q-20 3 -21 21q20 -3 21 -21zM1193 1589q-11 -32 -21 0h21zM1235 1589q-11 -33 -21 0h21zM1403 1568q-46 -12 -63 21q46 12 63 -21zM479 1547
q71 7 0 42v-42zM584 1505q68 39 0 84v-84zM983 1547v21q72 -10 0 -21zM1088 1568q-10 -32 -21 0h21zM1130 1568q-10 -71 -21 0h21zM1340 1568q-33 -73 -42 0h42zM920 1547q-10 -32 -21 0h21zM1235 1484v21q25 16 28 42q44 -58 -28 -63zM542 1526q32 10 0 21v-21zM1445 1484
q87 12 21 63q-4 -37 -21 -63zM185 1526q-11 -28 -21 0h21zM668 1505v21q28 -10 0 -21zM1088 1526q-10 -32 -21 0h21zM1172 1526q-10 -32 -21 0h21zM1361 1463v42q73 -33 0 -42zM248 1442v42q109 -41 0 -42zM836 1463q-20 3 -21 21q20 -3 21 -21zM1088 1484q-10 -32 -21 0h21
zM1235 1484q-22 -38 -42 0h42zM1298 1463v21q28 -10 0 -21zM1256 1442v21q28 -11 0 -21zM1466 1421q32 11 0 21v-21zM1529 1442h-21q10 -32 21 0zM1277 1379v21q28 -10 0 -21zM1340 1400q-10 -32 -21 0h21zM1403 1400q-22 -38 -42 0h42zM1508 1379l-42 21q73 -149 42 -21z
M1277 1379q-11 -72 -21 0h21zM1550 1379h-21q11 -32 21 0zM1214 1316v21q28 -10 0 -21zM1319 1316v21q71 -9 0 -21zM1235 1274l7 42q80 -74 -7 -42zM1340 1274q-10 -32 -21 0h21zM101 1211v21q28 -10 0 -21zM1151 1232q-11 -31 -21 0h21zM1235 1211q-34 -8 -42 21
q31 7 42 -21zM1340 1232q37 -68 -42 -21q-2 -21 -21 -21v42h63zM1067 1190v21q28 -11 0 -21zM1151 1169l7 42q28 -26 -7 -42zM1256 1127q-19 4 -21 21q20 -3 21 -21zM1214 1106v21q33 -11 0 -21zM1067 1085v21q72 -10 0 -21zM1319 1106h-21q10 -32 21 0zM1109 1043v21
q28 -10 0 -21zM1025 1022v21q28 -11 0 -21zM1109 1001v21q28 -10 0 -21zM1067 1001q-11 -32 -21 0h21zM1109 1001q-11 -33 -21 0h21zM1193 980q32 10 0 21v-21zM1109 896q47 -77 -21 -42q48 -78 63 21l21 7q12 59 -42 56q7 -34 -21 -42zM1130 875l7 21q20 -15 -7 -21z
M878 833l21 42q54 -37 -21 -42zM815 770v21q28 -10 0 -21zM815 770q-11 -33 -21 0h21zM843 770h56v-168q-18 -4 -21 -21q16 -3 21 -14l-21 -21l21 -14q4 -31 -21 -35q3 -19 21 -21v-273q-53 38 -21 126q-35 -28 -42 0l-42 -21q-27 43 -84 0q-6 38 -21 63q-19 -4 -21 -21
q-21 2 -21 21q-81 -13 -42 42v21q80 14 42 -42h42v28q36 45 -21 14q-12 30 -42 21q15 32 42 42q-17 66 63 84v42l42 -21q-38 44 0 63q-2 50 42 42q4 40 21 63h7h-7h7zM836 707q32 11 0 21v-21zM962 686q16 -106 -21 -126v126h21zM794 581l42 -21q3 49 -42 42v-21zM815 434
q32 10 0 21v-21zM773 413h-21q10 -32 21 0zM1025 413h-21q10 -32 21 0zM962 308q-39 23 -21 84q39 -23 21 -84zM773 350q32 10 0 21v-21zM668 308l7 42q28 -27 -7 -42zM815 -133v21q28 -10 0 -21zM542 -154v21q28 -11 0 -21zM542 -154q-11 -33 -21 0h21zM689 -154
q-21 -89 -42 0h42zM395 -217v-21q61 53 84 21v42q-50 -11 -84 -42q-3 52 -63 63q15 -64 63 -63zM878 -175q32 11 0 21v-21zM815 -196h-21q-27 -75 21 0zM878 -196h-21q11 -32 21 0zM689 -280q75 5 21 42zM584 -280q32 10 0 21v-21zM647 -343q14 64 -21 84q-14 -64 21 -84z
M815 -259h-42q22 -41 42 0zM479 -322q68 10 0 21v-21zM563 -301h-21q10 -32 21 0zM689 -301h-21q10 -32 21 0zM563 -364q68 10 0 21v-21z" />
    <glyph glyph-name="braceleft" unicode="{" horiz-adv-x="420" 
 />
    <glyph glyph-name="bar" unicode="|" horiz-adv-x="201" 
 />
    <glyph glyph-name="braceright" unicode="}" horiz-adv-x="360" 
 />
    <glyph glyph-name="asciitilde" unicode="~" 
 />
    <glyph glyph-name="Adieresis" unicode="&#xc4;" horiz-adv-x="609" 
 />
    <glyph glyph-name="Aring" unicode="&#xc5;" horiz-adv-x="1301" 
d="M452 1505q0 -51 -42 -63q7 -32 -21 -42v-56q21 -16 21 -42q-24 -25 -21 -49h42q-17 -31 -21 -63q34 -15 42 -42q-49 1 -42 -42q-49 -17 -21 -63h-42v-21h-21q0 -51 -42 -63q-2 -58 -42 -84q24 -65 0 -112l21 -35q-35 -17 -21 -63q-75 -49 -42 -147q-18 -4 -21 -21l21 -7
l-21 -35q59 1 42 -63h-42v-42q-96 -17 -84 -147l-21 -14q29 -31 21 -70q-48 -32 -21 -84q-30 -12 -21 -42h42q-13 -29 -42 -21q-8 -87 21 -147h-42l21 -42q-59 -40 -63 -105q36 -18 21 -63q51 0 63 -42h42q22 54 84 21q22 54 77 21q74 33 112 -21q32 18 63 21q15 32 42 42
q-7 32 21 42q-19 31 -21 63h21v35v49h21v56q10 7 21 7v21v84h21q-15 -83 21 -105v21v28v21v140q15 -4 21 -14v-175q21 -2 21 -21q-18 -4 -21 -21l126 21q-3 -20 -21 -21q37 -91 0 -112q36 -38 0 -56v-42q30 -12 21 -42q21 -2 21 -21q35 -2 56 -21q31 29 70 21q45 60 84 0
q54 26 98 0q40 45 154 0v21q63 5 63 63h21q-22 39 -21 84q-22 5 -21 28q-29 24 0 35q-15 31 -42 49q21 20 42 14l-21 35l21 14l-21 35q0 51 21 84q-59 32 -21 140q-33 33 -35 70l35 7l-21 35q81 39 21 84v42q-87 25 -147 21q7 32 -21 42q-8 34 21 42q-31 59 0 105
q-41 21 -63 56l42 28l-21 42q22 10 21 28q-9 11 -21 14q33 122 0 154q18 26 21 56q-30 12 -21 42q-103 -4 -126 84q-52 0 -84 21q2 58 42 84q-3 19 -21 21q32 99 -42 147q-5 63 -63 63v35q-14 -4 -21 -14l-56 14h-56h-140q-15 -25 -42 -35zM620 1477v-70l-21 -14v-308l-21 7
v28v21v21v21v21v21v217l21 14v49q24 -8 21 -28zM851 1190q-11 -33 -21 0h21zM858 1169q13 -27 -7 0h7h-7h7zM620 1064v-119q47 -40 0 -70q18 -23 7 -42q-62 -49 -7 84q-36 17 -21 147h21zM977 1064q-11 -32 -21 0h21zM956 833v21q28 -10 0 -21zM1019 812v21q28 -11 0 -21z
M599 728v63q116 -32 0 -63zM998 749v21q28 -10 0 -21zM620 700v-98q-6 -32 21 -42v-189q65 -30 63 42h21q-8 -86 21 -147h-84q23 -37 84 -21v-21q-94 -19 -105 28q-24 36 -63 35v56v21v91h14q14 -55 7 -105q20 -3 21 -21q14 4 21 14l-21 7v21v126q-45 -36 -42 21h21v28v21
v140zM641 644v63q49 -32 0 -63zM1019 665v21q28 -10 0 -21zM641 623l28 21q32 -99 -28 -21zM1040 644q-11 -31 -21 0h21zM662 539v21q28 -10 0 -21zM704 518q-10 -32 -21 0h21zM1040 476v21q28 -11 0 -21zM1187 434q-20 3 -21 21q20 -3 21 -21zM704 434q-11 -31 -21 0h21z
M221 371q-11 -32 -21 0h21zM683 287q32 11 0 21v-21zM620 266q-10 -111 -21 0h21zM1166 224q-10 -32 -21 0h21zM95 77v21q28 -10 0 -21zM81 35h35q-10 -77 -42 0h7h-7h7zM683 -70v21q28 -11 0 -21zM1250 -133q-11 -33 -21 0h21zM452 -343v21q28 -10 0 -21zM1061 -364
q-19 4 -21 21q20 -3 21 -21zM389 -385v21q28 -10 0 -21z" />
    <glyph glyph-name="Ccedilla" unicode="&#xc7;" horiz-adv-x="729" 
 />
    <glyph glyph-name="Eacute" unicode="&#xc9;" horiz-adv-x="648" 
 />
    <glyph glyph-name="Ntilde" unicode="&#xd1;" horiz-adv-x="612" 
 />
    <glyph glyph-name="Odieresis" unicode="&#xd6;" horiz-adv-x="696" 
 />
    <glyph glyph-name="Udieresis" unicode="&#xdc;" horiz-adv-x="660" 
 />
    <glyph glyph-name="aacute" unicode="&#xe1;" horiz-adv-x="369" 
 />
    <glyph glyph-name="agrave" unicode="&#xe0;" horiz-adv-x="369" 
 />
    <glyph glyph-name="acircumflex" unicode="&#xe2;" horiz-adv-x="369" 
 />
    <glyph glyph-name="adieresis" unicode="&#xe4;" horiz-adv-x="369" 
 />
    <glyph glyph-name="atilde" unicode="&#xe3;" horiz-adv-x="369" 
 />
    <glyph glyph-name="aring" unicode="&#xe5;" horiz-adv-x="1301" 
d="M452 1505q0 -51 -42 -63q7 -32 -21 -42v-56q21 -16 21 -42q-24 -25 -21 -49h42q-17 -31 -21 -63q34 -15 42 -42q-49 1 -42 -42q-49 -17 -21 -63h-42v-21h-21q0 -51 -42 -63q-2 -58 -42 -84q24 -65 0 -112l21 -35q-35 -17 -21 -63q-75 -49 -42 -147q-18 -4 -21 -21l21 -7
l-21 -35q59 1 42 -63h-42v-42q-96 -17 -84 -147l-21 -14q29 -31 21 -70q-48 -32 -21 -84q-30 -12 -21 -42h42q-13 -29 -42 -21q-8 -87 21 -147h-42l21 -42q-59 -40 -63 -105q36 -18 21 -63q51 0 63 -42h42q22 54 84 21q22 54 77 21q74 33 112 -21q32 18 63 21q15 32 42 42
q-7 32 21 42q-19 31 -21 63h21v35v49h21v56q10 7 21 7v21v84h21q-15 -83 21 -105v21v28v21v140q15 -4 21 -14v-175q21 -2 21 -21q-18 -4 -21 -21l126 21q-3 -20 -21 -21q37 -91 0 -112q36 -38 0 -56v-42q30 -12 21 -42q21 -2 21 -21q35 -2 56 -21q31 29 70 21q45 60 84 0
q54 26 98 0q40 45 154 0v21q63 5 63 63h21q-22 39 -21 84q-22 5 -21 28q-29 24 0 35q-15 31 -42 49q21 20 42 14l-21 35l21 14l-21 35q0 51 21 84q-59 32 -21 140q-33 33 -35 70l35 7l-21 35q81 39 21 84v42q-87 25 -147 21q7 32 -21 42q-8 34 21 42q-31 59 0 105
q-41 21 -63 56l42 28l-21 42q22 10 21 28q-9 11 -21 14q33 122 0 154q18 26 21 56q-30 12 -21 42q-103 -4 -126 84q-52 0 -84 21q2 58 42 84q-3 19 -21 21q32 99 -42 147q-5 63 -63 63v35q-14 -4 -21 -14l-56 14h-56h-140q-15 -25 -42 -35zM620 1477v-70l-21 -14v-308l-21 7
v28v21v21v21v21v21v217l21 14v49q24 -8 21 -28zM851 1190q-11 -33 -21 0h21zM858 1169q13 -27 -7 0h7h-7h7zM620 1064v-119q47 -40 0 -70q18 -23 7 -42q-62 -49 -7 84q-36 17 -21 147h21zM977 1064q-11 -32 -21 0h21zM956 833v21q28 -10 0 -21zM1019 812v21q28 -11 0 -21z
M599 728v63q116 -32 0 -63zM998 749v21q28 -10 0 -21zM620 700v-98q-6 -32 21 -42v-189q65 -30 63 42h21q-8 -86 21 -147h-84q23 -37 84 -21v-21q-94 -19 -105 28q-24 36 -63 35v56v21v91h14q14 -55 7 -105q20 -3 21 -21q14 4 21 14l-21 7v21v126q-45 -36 -42 21h21v28v21
v140zM641 644v63q49 -32 0 -63zM1019 665v21q28 -10 0 -21zM641 623l28 21q32 -99 -28 -21zM1040 644q-11 -31 -21 0h21zM662 539v21q28 -10 0 -21zM704 518q-10 -32 -21 0h21zM1040 476v21q28 -11 0 -21zM1187 434q-20 3 -21 21q20 -3 21 -21zM704 434q-11 -31 -21 0h21z
M221 371q-11 -32 -21 0h21zM683 287q32 11 0 21v-21zM620 266q-10 -111 -21 0h21zM1166 224q-10 -32 -21 0h21zM95 77v21q28 -10 0 -21zM81 35h35q-10 -77 -42 0h7h-7h7zM683 -70v21q28 -11 0 -21zM1250 -133q-11 -33 -21 0h21zM452 -343v21q28 -10 0 -21zM1061 -364
q-19 4 -21 21q20 -3 21 -21zM389 -385v21q28 -10 0 -21z" />
    <glyph glyph-name="ccedilla" unicode="&#xe7;" horiz-adv-x="510" 
 />
    <glyph glyph-name="eacute" unicode="&#xe9;" horiz-adv-x="486" 
 />
    <glyph glyph-name="egrave" unicode="&#xe8;" horiz-adv-x="486" 
 />
    <glyph glyph-name="ecircumflex" unicode="&#xea;" horiz-adv-x="486" 
 />
    <glyph glyph-name="edieresis" unicode="&#xeb;" horiz-adv-x="486" 
 />
    <glyph glyph-name="iacute" unicode="&#xed;" horiz-adv-x="234" 
 />
    <glyph glyph-name="igrave" unicode="&#xec;" horiz-adv-x="234" 
 />
    <glyph glyph-name="icircumflex" unicode="&#xee;" horiz-adv-x="234" 
 />
    <glyph glyph-name="idieresis" unicode="&#xef;" horiz-adv-x="234" 
 />
    <glyph glyph-name="ntilde" unicode="&#xf1;" horiz-adv-x="384" 
 />
    <glyph glyph-name="oacute" unicode="&#xf3;" horiz-adv-x="366" 
 />
    <glyph glyph-name="ograve" unicode="&#xf2;" horiz-adv-x="366" 
 />
    <glyph glyph-name="ocircumflex" unicode="&#xf4;" horiz-adv-x="366" 
 />
    <glyph glyph-name="odieresis" unicode="&#xf6;" horiz-adv-x="366" 
 />
    <glyph glyph-name="otilde" unicode="&#xf5;" horiz-adv-x="366" 
 />
    <glyph glyph-name="uacute" unicode="&#xfa;" horiz-adv-x="342" 
 />
    <glyph glyph-name="ugrave" unicode="&#xf9;" horiz-adv-x="342" 
 />
    <glyph glyph-name="ucircumflex" unicode="&#xfb;" horiz-adv-x="342" 
 />
    <glyph glyph-name="udieresis" unicode="&#xfc;" horiz-adv-x="342" 
 />
    <glyph glyph-name="dagger" unicode="&#x2020;" horiz-adv-x="451" 
 />
    <glyph glyph-name="degree" unicode="&#xb0;" horiz-adv-x="285" 
 />
    <glyph glyph-name="cent" unicode="&#xa2;" 
 />
    <glyph glyph-name="sterling" unicode="&#xa3;" 
 />
    <glyph glyph-name="section" unicode="&#xa7;" horiz-adv-x="420" 
 />
    <glyph glyph-name="bullet" unicode="&#x2022;" horiz-adv-x="387" 
 />
    <glyph glyph-name="paragraph" unicode="&#xb6;" horiz-adv-x="450" 
 />
    <glyph glyph-name="germandbls" unicode="&#xdf;" horiz-adv-x="498" 
 />
    <glyph glyph-name="registered" unicode="&#xae;" horiz-adv-x="747" 
 />
    <glyph glyph-name="copyright" unicode="&#xa9;" horiz-adv-x="714" 
 />
    <glyph glyph-name="trademark" unicode="&#x2122;" horiz-adv-x="681" 
 />
    <glyph glyph-name="acute" unicode="&#xb4;" horiz-adv-x="462" 
 />
    <glyph glyph-name="dieresis" unicode="&#xa8;" horiz-adv-x="371" 
 />
    <glyph glyph-name="AE" unicode="&#xc6;" horiz-adv-x="1662" 
d="M754 1222q-44 -29 -70 21q-10 -22 7 -42q-50 1 -63 42q-61 -48 -105 -21q7 -32 -21 -42q13 -47 -21 -63q-3 -74 -42 -119q5 -40 21 -70q-43 -37 -84 -42q32 -44 -21 -63q28 -35 63 -42q-17 -36 -63 -21q25 -30 0 -49q38 -38 -21 -35q8 -47 -21 -70q1 -42 21 -70
q-49 -36 -42 -91q-36 -23 -77 -21q-19 -21 -49 -21q2 -50 -42 -42q-2 -21 -21 -21q7 -32 -21 -42v-42q30 -12 21 -42q41 -21 -21 -21q28 -55 -21 -98l21 -14q-8 -11 -21 -14q21 -39 21 -84q21 -2 21 -21q-26 -1 -42 -14q35 -156 -42 -154v-21q30 -12 21 -42q78 -8 63 -84
q21 -2 21 -21h56h49q21 41 56 63l7 -42q87 54 126 0h42q34 47 84 42q-7 32 21 42q-22 62 -63 84q3 20 21 21q-2 50 42 42l-21 42q60 9 77 -42q13 20 35 21q46 29 119 -21v-210h21q6 103 21 21h21v21v21v21v91v77v28v28v28v28v119v21v84q-87 25 -147 21v35q11 7 21 7
q-6 74 21 126h-21q21 51 42 84h21v-42q52 -26 42 -84h21v42v98v21v126v91v28v119v21v84l42 21l-21 28v140q-32 15 -42 42h-21q37 -58 -42 -42zM922 1243q-15 -34 -42 -42q3 -19 21 -21q-2 -35 -21 -56q44 -36 0 -126l21 -28l-42 -7q17 -24 42 -35q-4 -38 -21 -70v-203h-21
l21 -42h21q-14 67 42 63q-3 -20 -21 -21v-56q-25 -62 -21 -112q-25 -10 -21 -35q48 -81 0 -112v-21q59 1 42 -63h-21q17 -81 -21 -105q19 -31 21 -63l-42 21v-357l21 -42q-19 -4 -21 -21l42 -21q20 62 42 21q34 22 56 0q40 56 77 21q34 24 56 0q32 50 63 0q32 20 63 0
q12 30 42 21q19 -43 63 -42v-21q77 63 112 0q38 36 56 0h42v21q63 5 63 63h21q-40 99 0 140q-40 44 0 91h-21q-5 63 -63 63v21q-40 -33 -70 0q-10 -22 7 -42q-46 -37 -42 21h-42v-21q21 -2 21 -21q-59 -1 -42 63q-60 -36 -126 21q-2 51 -21 84q32 14 42 42q-21 2 -21 21
q91 37 112 0q61 50 119 21q33 49 70 0q39 26 77 21l7 21q17 25 14 56q24 25 21 49q-30 12 -21 42q-21 2 -21 21h21q11 46 -21 63q38 169 -63 126q7 32 -21 42v-21q-54 -10 -84 -35q-59 -50 -63 35q-80 -54 -84 21h-21q-83 -34 -84 0l-42 -21q7 31 -21 42v21h21q6 64 21 105
q-21 2 -21 21q28 11 21 42q139 -70 84 0q50 4 42 -42q32 7 42 -21h70q46 27 91 21q19 21 49 21q32 59 42 105q-34 15 -42 42h21q-7 32 21 42q-28 32 0 42q-22 39 -21 84l-42 21v-21q-20 3 -21 21q-108 -12 -182 42l-7 -21q-46 11 -63 -21q-46 11 -63 -21q-29 13 -21 42
q-19 -3 -21 -21q-20 3 -21 21q-43 -23 -77 0q-36 -17 -70 -21q6 32 -21 42q-33 -54 -84 -21zM1027 1222q-11 -28 -21 0h21zM1237 907v21q28 -10 0 -21zM1195 823q-11 -31 -21 0h21zM775 718v42q107 -79 0 -42zM796 697q18 -113 -63 -168v28q40 74 42 140h21zM1426 634
q-10 -28 -21 0h21zM796 529v21q28 -10 0 -21zM775 382h-21q10 -68 21 0zM89 109q20 -32 -7 0h7h-7h7zM89 67q20 -32 -7 0h7h-7h7zM901 67q-11 -71 -21 0h21zM901 -17q-20 3 -21 21q20 -3 21 -21zM607 -59q-29 13 -21 42q29 -13 21 -42zM880 -143v21v84q65 -53 0 -105z
M670 -59q-11 -31 -21 0h21zM796 -206v63q49 -33 0 -63zM1447 -290v21q28 -11 0 -21zM880 -311l7 21q20 -15 -7 -21z" />
    </font>
</defs>
</svg>
